%
M48
M72
T01C0.02362
T02C0.03200
T03C0.03937
T04C0.04000
T05C0.12598
%
T01
X49740Y43580
X49747Y43584
X78541Y109405
X63447Y139284
X86000Y153320
X79527Y167004
X102620Y147180
X100307Y137464
X113621Y135945
X117267Y142804
X109380Y124180
X124467Y121284
X143281Y116789
X116661Y101745
X160747Y88564
X181987Y127784
X172700Y131180
X170580Y142500
X146101Y150905
X118440Y168860
T02
X78327Y36144
X68327Y36144
X58327Y36144
X58327Y16144
X68327Y16144
X78327Y16144
T03
X57412Y145603
X57412Y155603
X57412Y165603
X57412Y175603
X47412Y175603
X47412Y165603
X47412Y155603
X47412Y145603
T04
X24927Y156584
X14927Y156584
X14927Y166584
X14927Y176584
X24927Y176584
X24927Y166584
X35883Y191331
X45883Y191331
X55883Y191331
X65883Y191331
X75883Y191331
X85883Y191331
X98767Y195444
X98767Y177644
X124367Y177644
X138527Y166044
X148527Y166044
X158527Y166044
X168527Y166044
X178527Y166044
X188527Y166044
X124367Y195444
X31627Y80464
X21627Y80464
X21627Y70464
X21627Y60464
X31627Y60464
X31627Y70464
X37551Y32203
X37551Y22203
X37551Y12203
X190527Y11424
X190527Y21424
X190527Y31424
X190527Y41424
X190527Y51424
X190527Y61424
T05
X14080Y14693
X174001Y11622
X193725Y195834
X13332Y196228
M30
