G75*
%MOIN*%
%OFA0B0*%
%FSLAX25Y25*%
%IPPOS*%
%LPD*%
%AMOC8*
5,1,8,0,0,1.08239X$1,22.5*
%
%ADD10R,0.04331X0.03937*%
%ADD11R,0.05937X0.05937*%
%ADD12C,0.05937*%
%ADD13C,0.06000*%
%ADD14C,0.05200*%
%ADD15C,0.06000*%
%ADD16OC8,0.06000*%
%ADD17R,0.02200X0.05000*%
%ADD18R,0.05000X0.02200*%
%ADD19R,0.04331X0.07480*%
%ADD20R,0.07480X0.04331*%
%ADD21C,0.01200*%
%ADD22R,0.03962X0.03962*%
%ADD23C,0.01000*%
D10*
X0186821Y0073644D03*
X0193514Y0073644D03*
X0193514Y0083824D03*
X0186821Y0083824D03*
X0186481Y0098644D03*
X0193174Y0098644D03*
X0193074Y0108444D03*
X0186381Y0108444D03*
D11*
X0047412Y0175603D03*
D12*
X0057412Y0175603D03*
X0057412Y0165603D03*
X0057412Y0155603D03*
X0057412Y0145603D03*
X0047412Y0145603D03*
X0047412Y0155603D03*
X0047412Y0165603D03*
D13*
X0045883Y0188331D02*
X0045883Y0194331D01*
X0055883Y0194331D02*
X0055883Y0188331D01*
X0065883Y0188331D02*
X0065883Y0194331D01*
X0075883Y0194331D02*
X0075883Y0188331D01*
X0085883Y0188331D02*
X0085883Y0194331D01*
X0095767Y0195444D02*
X0101767Y0195444D01*
X0101767Y0177644D02*
X0095767Y0177644D01*
X0121367Y0177644D02*
X0127367Y0177644D01*
X0138527Y0169044D02*
X0138527Y0163044D01*
X0148527Y0163044D02*
X0148527Y0169044D01*
X0158527Y0169044D02*
X0158527Y0163044D01*
X0168527Y0163044D02*
X0168527Y0169044D01*
X0178527Y0169044D02*
X0178527Y0163044D01*
X0188527Y0163044D02*
X0188527Y0169044D01*
X0127367Y0195444D02*
X0121367Y0195444D01*
X0035883Y0194331D02*
X0035883Y0188331D01*
X0187527Y0061424D02*
X0193527Y0061424D01*
X0193527Y0051424D02*
X0187527Y0051424D01*
X0187527Y0041424D02*
X0193527Y0041424D01*
X0193527Y0031424D02*
X0187527Y0031424D01*
X0187527Y0021424D02*
X0193527Y0021424D01*
X0193527Y0011424D02*
X0187527Y0011424D01*
X0040551Y0012203D02*
X0034551Y0012203D01*
X0034551Y0022203D02*
X0040551Y0022203D01*
X0040551Y0032203D02*
X0034551Y0032203D01*
D14*
X0058327Y0033544D02*
X0058327Y0038744D01*
X0068327Y0038744D02*
X0068327Y0033544D01*
X0078327Y0033544D02*
X0078327Y0038744D01*
X0078327Y0018744D02*
X0078327Y0013544D01*
X0068327Y0013544D02*
X0068327Y0018744D01*
X0058327Y0018744D02*
X0058327Y0013544D01*
D15*
X0031627Y0080464D03*
X0014927Y0156584D03*
D16*
X0024927Y0156584D03*
X0024927Y0166584D03*
X0014927Y0166584D03*
X0014927Y0176584D03*
X0024927Y0176584D03*
X0021627Y0080464D03*
X0021627Y0070464D03*
X0021627Y0060464D03*
X0031627Y0060464D03*
X0031627Y0070464D03*
D17*
X0143663Y0061044D03*
X0146813Y0061044D03*
X0149963Y0061044D03*
X0153112Y0061044D03*
X0156262Y0061044D03*
X0159412Y0061044D03*
X0162561Y0061044D03*
X0165711Y0061044D03*
X0165711Y0027244D03*
X0162561Y0027244D03*
X0159412Y0027244D03*
X0156262Y0027244D03*
X0153112Y0027244D03*
X0149963Y0027244D03*
X0146813Y0027244D03*
X0143663Y0027244D03*
X0160923Y0118764D03*
X0164073Y0118764D03*
X0167223Y0118764D03*
X0170372Y0118764D03*
X0173522Y0118764D03*
X0176672Y0118764D03*
X0179821Y0118764D03*
X0182971Y0118764D03*
X0182971Y0152564D03*
X0179821Y0152564D03*
X0176672Y0152564D03*
X0173522Y0152564D03*
X0170372Y0152564D03*
X0167223Y0152564D03*
X0164073Y0152564D03*
X0160923Y0152564D03*
D18*
X0155047Y0146688D03*
X0155047Y0143538D03*
X0155047Y0140388D03*
X0155047Y0137239D03*
X0155047Y0134089D03*
X0155047Y0130940D03*
X0155047Y0127790D03*
X0155047Y0124640D03*
X0188847Y0124640D03*
X0188847Y0127790D03*
X0188847Y0130940D03*
X0188847Y0134089D03*
X0188847Y0137239D03*
X0188847Y0140388D03*
X0188847Y0143538D03*
X0188847Y0146688D03*
X0171587Y0055168D03*
X0171587Y0052018D03*
X0171587Y0048868D03*
X0171587Y0045719D03*
X0171587Y0042569D03*
X0171587Y0039420D03*
X0171587Y0036270D03*
X0171587Y0033120D03*
X0137787Y0033120D03*
X0137787Y0036270D03*
X0137787Y0039420D03*
X0137787Y0042569D03*
X0137787Y0045719D03*
X0137787Y0048868D03*
X0137787Y0052018D03*
X0137787Y0055168D03*
D19*
X0169360Y0094781D03*
X0178415Y0094781D03*
X0178415Y0109348D03*
X0169360Y0109348D03*
D20*
X0162744Y0081152D03*
X0162744Y0072097D03*
X0177311Y0072097D03*
X0177311Y0081152D03*
D21*
X0003560Y0039576D02*
X0003560Y0003740D01*
X0171330Y0003745D01*
X0169300Y0004586D01*
X0166965Y0006921D01*
X0165702Y0009971D01*
X0165702Y0013273D01*
X0166965Y0016323D01*
X0169300Y0018658D01*
X0170706Y0019240D01*
X0132350Y0019240D01*
X0131394Y0019636D01*
X0130663Y0020367D01*
X0130267Y0021323D01*
X0130267Y0046236D01*
X0130281Y0046268D01*
X0053728Y0046268D01*
X0053728Y0040775D01*
X0052557Y0039603D01*
X0052554Y0039603D01*
X0052550Y0039599D01*
X0046930Y0039599D01*
X0045759Y0040770D01*
X0045759Y0040980D01*
X0009103Y0040980D01*
X0008147Y0041376D01*
X0007416Y0042107D01*
X0007020Y0043063D01*
X0007020Y0102701D01*
X0007416Y0103657D01*
X0008147Y0104388D01*
X0009103Y0104784D01*
X0077701Y0104784D01*
X0077701Y0105424D01*
X0075731Y0105424D01*
X0074560Y0106596D01*
X0074560Y0112215D01*
X0075731Y0113386D01*
X0081350Y0113386D01*
X0082522Y0112215D01*
X0082522Y0109077D01*
X0082901Y0108162D01*
X0082901Y0101667D01*
X0082505Y0100711D01*
X0081774Y0099980D01*
X0080818Y0099584D01*
X0012240Y0099584D01*
X0012240Y0087395D01*
X0012310Y0087424D01*
X0105100Y0087424D01*
X0105100Y0110937D01*
X0105496Y0111893D01*
X0106227Y0112624D01*
X0107183Y0113020D01*
X0113940Y0113020D01*
X0113940Y0130822D01*
X0112798Y0131964D01*
X0110811Y0131964D01*
X0110120Y0132655D01*
X0110120Y0128161D01*
X0112190Y0128161D01*
X0113361Y0126990D01*
X0113361Y0121370D01*
X0112190Y0120199D01*
X0106570Y0120199D01*
X0105399Y0121370D01*
X0105399Y0122624D01*
X0105316Y0122707D01*
X0104920Y0123663D01*
X0104920Y0139500D01*
X0104288Y0139500D01*
X0104288Y0134655D01*
X0103117Y0133483D01*
X0102707Y0133483D01*
X0102511Y0133011D01*
X0101780Y0132280D01*
X0100824Y0131884D01*
X0058014Y0131884D01*
X0057058Y0132280D01*
X0056327Y0133011D01*
X0048614Y0140724D01*
X0048400Y0140635D01*
X0046423Y0140635D01*
X0044597Y0141391D01*
X0043199Y0142789D01*
X0042443Y0144615D01*
X0042443Y0146592D01*
X0043199Y0148418D01*
X0044597Y0149815D01*
X0046423Y0150572D01*
X0048400Y0150572D01*
X0050226Y0149815D01*
X0051624Y0148418D01*
X0052380Y0146592D01*
X0052380Y0144615D01*
X0052291Y0144401D01*
X0052702Y0143990D01*
X0052443Y0144615D01*
X0052443Y0146592D01*
X0053199Y0148418D01*
X0054597Y0149815D01*
X0056423Y0150572D01*
X0058400Y0150572D01*
X0060226Y0149815D01*
X0060847Y0149194D01*
X0060847Y0152012D01*
X0060226Y0151391D01*
X0058400Y0150635D01*
X0056423Y0150635D01*
X0054597Y0151391D01*
X0053199Y0152789D01*
X0052443Y0154615D01*
X0052443Y0156592D01*
X0053012Y0157965D01*
X0051811Y0157965D01*
X0052380Y0156592D01*
X0052380Y0154615D01*
X0051624Y0152789D01*
X0050226Y0151391D01*
X0048400Y0150635D01*
X0046423Y0150635D01*
X0044597Y0151391D01*
X0043199Y0152789D01*
X0042443Y0154615D01*
X0042443Y0156592D01*
X0043012Y0157965D01*
X0036204Y0157965D01*
X0035248Y0158361D01*
X0034684Y0158925D01*
X0029657Y0158925D01*
X0029927Y0158655D01*
X0029927Y0154513D01*
X0026998Y0151584D01*
X0022856Y0151584D01*
X0019927Y0154513D01*
X0019927Y0158655D01*
X0020197Y0158925D01*
X0019369Y0158925D01*
X0019927Y0157579D01*
X0019927Y0155590D01*
X0019166Y0153752D01*
X0017759Y0152345D01*
X0015922Y0151584D01*
X0013933Y0151584D01*
X0012095Y0152345D01*
X0010688Y0153752D01*
X0009927Y0155590D01*
X0009927Y0157579D01*
X0010485Y0158925D01*
X0007943Y0158925D01*
X0006987Y0159321D01*
X0006256Y0160052D01*
X0005860Y0161008D01*
X0005860Y0185797D01*
X0006256Y0186753D01*
X0006987Y0187484D01*
X0007943Y0187880D01*
X0026320Y0187880D01*
X0026320Y0199441D01*
X0026716Y0200397D01*
X0027447Y0201128D01*
X0028403Y0201524D01*
X0066400Y0201524D01*
X0067356Y0201128D01*
X0068087Y0200397D01*
X0068483Y0199441D01*
X0068483Y0198666D01*
X0068715Y0198570D01*
X0070122Y0197164D01*
X0070883Y0195326D01*
X0070883Y0187337D01*
X0070122Y0185499D01*
X0069847Y0185224D01*
X0071919Y0185224D01*
X0071644Y0185499D01*
X0070883Y0187337D01*
X0070883Y0195326D01*
X0071644Y0197164D01*
X0073051Y0198570D01*
X0074888Y0199331D01*
X0076878Y0199331D01*
X0078715Y0198570D01*
X0080122Y0197164D01*
X0080883Y0195326D01*
X0080883Y0187337D01*
X0080122Y0185499D01*
X0079847Y0185224D01*
X0081919Y0185224D01*
X0081644Y0185499D01*
X0080883Y0187337D01*
X0080883Y0195326D01*
X0081644Y0197164D01*
X0083051Y0198570D01*
X0084888Y0199331D01*
X0086878Y0199331D01*
X0088715Y0198570D01*
X0090122Y0197164D01*
X0090883Y0195326D01*
X0090883Y0188997D01*
X0091614Y0189728D01*
X0092570Y0190124D01*
X0138177Y0190124D01*
X0139133Y0189728D01*
X0139864Y0188997D01*
X0140260Y0188041D01*
X0140260Y0183540D01*
X0199144Y0183540D01*
X0200100Y0183144D01*
X0200831Y0182413D01*
X0201227Y0181457D01*
X0201227Y0117707D01*
X0200831Y0116751D01*
X0200100Y0116020D01*
X0199144Y0115624D01*
X0186071Y0115624D01*
X0186071Y0115436D01*
X0184899Y0114264D01*
X0182232Y0114264D01*
X0182580Y0113916D01*
X0182580Y0111606D01*
X0183387Y0112413D01*
X0189374Y0112413D01*
X0190032Y0111754D01*
X0190291Y0111904D01*
X0190698Y0112013D01*
X0192689Y0112013D01*
X0192689Y0108828D01*
X0193458Y0108828D01*
X0196839Y0108828D01*
X0196839Y0110623D01*
X0196730Y0111030D01*
X0196519Y0111395D01*
X0196221Y0111693D01*
X0195856Y0111904D01*
X0195450Y0112013D01*
X0193458Y0112013D01*
X0193458Y0108828D01*
X0193458Y0108060D01*
X0196839Y0108060D01*
X0196839Y0106265D01*
X0196730Y0105858D01*
X0196519Y0105493D01*
X0196221Y0105195D01*
X0195856Y0104985D01*
X0195450Y0104876D01*
X0193458Y0104876D01*
X0193458Y0108060D01*
X0192689Y0108060D01*
X0192689Y0104876D01*
X0190698Y0104876D01*
X0190291Y0104985D01*
X0190032Y0105134D01*
X0189374Y0104476D01*
X0183387Y0104476D01*
X0182580Y0105282D01*
X0182580Y0104779D01*
X0181408Y0103607D01*
X0179117Y0103607D01*
X0178964Y0103544D01*
X0178744Y0103544D01*
X0178324Y0103124D01*
X0183564Y0103124D01*
X0184520Y0102728D01*
X0184636Y0102613D01*
X0189474Y0102613D01*
X0190133Y0101955D01*
X0190391Y0102104D01*
X0190798Y0102213D01*
X0192789Y0102213D01*
X0192789Y0099028D01*
X0193558Y0099028D01*
X0196939Y0099028D01*
X0196939Y0100823D01*
X0196830Y0101230D01*
X0196619Y0101595D01*
X0196321Y0101893D01*
X0195956Y0102104D01*
X0195550Y0102213D01*
X0193558Y0102213D01*
X0193558Y0099028D01*
X0193558Y0098260D01*
X0196939Y0098260D01*
X0196939Y0096465D01*
X0196830Y0096058D01*
X0196619Y0095693D01*
X0196321Y0095395D01*
X0195956Y0095185D01*
X0195550Y0095076D01*
X0193558Y0095076D01*
X0193558Y0098260D01*
X0192789Y0098260D01*
X0192789Y0095076D01*
X0190798Y0095076D01*
X0190391Y0095185D01*
X0190133Y0095334D01*
X0189474Y0094676D01*
X0183487Y0094676D01*
X0182580Y0095582D01*
X0182580Y0090212D01*
X0181408Y0089040D01*
X0175421Y0089040D01*
X0174249Y0090212D01*
X0174249Y0095993D01*
X0173525Y0095269D01*
X0173525Y0090212D01*
X0172353Y0089040D01*
X0166366Y0089040D01*
X0165194Y0090212D01*
X0165194Y0093040D01*
X0158719Y0099515D01*
X0158447Y0100172D01*
X0158447Y0092545D01*
X0163557Y0092545D01*
X0164728Y0091374D01*
X0164728Y0086813D01*
X0165152Y0087237D01*
X0165883Y0087968D01*
X0166839Y0088364D01*
X0182744Y0088364D01*
X0183700Y0087968D01*
X0183876Y0087793D01*
X0189814Y0087793D01*
X0190472Y0087134D01*
X0190731Y0087284D01*
X0191138Y0087393D01*
X0193129Y0087393D01*
X0193129Y0084208D01*
X0193898Y0084208D01*
X0197279Y0084208D01*
X0197279Y0086003D01*
X0197170Y0086410D01*
X0196959Y0086775D01*
X0196661Y0087073D01*
X0196296Y0087284D01*
X0195890Y0087393D01*
X0193898Y0087393D01*
X0193898Y0084208D01*
X0193898Y0083440D01*
X0197279Y0083440D01*
X0197279Y0081645D01*
X0197170Y0081238D01*
X0196959Y0080873D01*
X0196661Y0080575D01*
X0196296Y0080365D01*
X0195890Y0080256D01*
X0193898Y0080256D01*
X0193898Y0083440D01*
X0193129Y0083440D01*
X0193129Y0080256D01*
X0191138Y0080256D01*
X0190731Y0080365D01*
X0190472Y0080514D01*
X0189814Y0079856D01*
X0183827Y0079856D01*
X0183051Y0080632D01*
X0183051Y0078158D01*
X0181879Y0076986D01*
X0172867Y0076986D01*
X0172867Y0076262D01*
X0181879Y0076262D01*
X0182655Y0075486D01*
X0182655Y0076441D01*
X0183827Y0077613D01*
X0189814Y0077613D01*
X0190472Y0076955D01*
X0190731Y0077104D01*
X0191138Y0077213D01*
X0193129Y0077213D01*
X0193129Y0074028D01*
X0193898Y0074028D01*
X0197279Y0074028D01*
X0197279Y0075823D01*
X0197170Y0076230D01*
X0196959Y0076595D01*
X0196661Y0076893D01*
X0196296Y0077104D01*
X0195890Y0077213D01*
X0193898Y0077213D01*
X0193898Y0074028D01*
X0193898Y0073260D01*
X0197279Y0073260D01*
X0197279Y0071465D01*
X0197170Y0071058D01*
X0196959Y0070693D01*
X0196661Y0070395D01*
X0196296Y0070185D01*
X0195890Y0070076D01*
X0193898Y0070076D01*
X0193898Y0073260D01*
X0193129Y0073260D01*
X0193129Y0070076D01*
X0191138Y0070076D01*
X0190731Y0070185D01*
X0190472Y0070334D01*
X0189814Y0069676D01*
X0186223Y0069676D01*
X0185790Y0069497D01*
X0183051Y0069497D01*
X0183051Y0069284D01*
X0198664Y0069284D01*
X0199620Y0068888D01*
X0200351Y0068157D01*
X0200747Y0067201D01*
X0200747Y0061667D01*
X0200687Y0061522D01*
X0200687Y0015807D01*
X0200291Y0014851D01*
X0199560Y0014120D01*
X0198604Y0013724D01*
X0197986Y0013724D01*
X0198527Y0012419D01*
X0198527Y0010430D01*
X0197766Y0008592D01*
X0196359Y0007185D01*
X0194522Y0006424D01*
X0186533Y0006424D01*
X0184695Y0007185D01*
X0183288Y0008592D01*
X0182527Y0010430D01*
X0182527Y0012419D01*
X0183288Y0014256D01*
X0184695Y0015663D01*
X0186533Y0016424D01*
X0187927Y0016424D01*
X0187927Y0016824D01*
X0187165Y0016824D01*
X0186450Y0016937D01*
X0185761Y0017161D01*
X0185116Y0017490D01*
X0184530Y0017915D01*
X0184018Y0018427D01*
X0183593Y0019013D01*
X0183264Y0019658D01*
X0183040Y0020347D01*
X0182933Y0021024D01*
X0190127Y0021024D01*
X0190127Y0021824D01*
X0182933Y0021824D01*
X0183040Y0022501D01*
X0183264Y0023190D01*
X0183593Y0023835D01*
X0184018Y0024421D01*
X0184530Y0024933D01*
X0185008Y0025280D01*
X0180717Y0025280D01*
X0180013Y0024576D01*
X0179057Y0024180D01*
X0175900Y0024180D01*
X0175900Y0023703D01*
X0175504Y0022747D01*
X0174773Y0022016D01*
X0173817Y0021620D01*
X0173020Y0021620D01*
X0173020Y0021323D01*
X0172624Y0020367D01*
X0172056Y0019799D01*
X0172350Y0019921D01*
X0175652Y0019921D01*
X0178702Y0018658D01*
X0181037Y0016323D01*
X0182300Y0013273D01*
X0182300Y0009971D01*
X0181037Y0006921D01*
X0178702Y0004586D01*
X0176672Y0003745D01*
X0204263Y0003746D01*
X0204281Y0204098D01*
X0204280Y0204099D01*
X0204281Y0204464D01*
X0042548Y0204464D01*
X0042548Y0204464D01*
X0042542Y0204464D01*
X0042539Y0204460D01*
X0041715Y0204463D01*
X0015201Y0204437D01*
X0018033Y0203264D01*
X0020367Y0200929D01*
X0021631Y0197879D01*
X0021631Y0194577D01*
X0020367Y0191527D01*
X0018033Y0189192D01*
X0014982Y0187929D01*
X0011681Y0187929D01*
X0008631Y0189192D01*
X0006296Y0191527D01*
X0005032Y0194577D01*
X0005032Y0197879D01*
X0006296Y0200929D01*
X0008631Y0203264D01*
X0011454Y0204433D01*
X0003560Y0204426D01*
X0003560Y0039576D01*
X0003560Y0039576D01*
X0003560Y0040092D02*
X0046437Y0040092D01*
X0049740Y0043580D02*
X0049747Y0043580D01*
X0049747Y0043584D01*
X0049740Y0043580D02*
X0009640Y0043580D01*
X0009620Y0043580D01*
X0009620Y0102184D01*
X0009640Y0102184D01*
X0009640Y0043580D01*
X0007258Y0042489D02*
X0003560Y0042489D01*
X0003560Y0041291D02*
X0008352Y0041291D01*
X0007020Y0043688D02*
X0003560Y0043688D01*
X0003560Y0044886D02*
X0007020Y0044886D01*
X0007020Y0046085D02*
X0003560Y0046085D01*
X0003560Y0047283D02*
X0007020Y0047283D01*
X0007020Y0048482D02*
X0003560Y0048482D01*
X0003560Y0049680D02*
X0007020Y0049680D01*
X0007020Y0050879D02*
X0003560Y0050879D01*
X0003560Y0052077D02*
X0007020Y0052077D01*
X0007020Y0053276D02*
X0003560Y0053276D01*
X0003560Y0054474D02*
X0007020Y0054474D01*
X0007020Y0055673D02*
X0003560Y0055673D01*
X0003560Y0056872D02*
X0007020Y0056872D01*
X0007020Y0058070D02*
X0003560Y0058070D01*
X0003560Y0059269D02*
X0007020Y0059269D01*
X0007020Y0060467D02*
X0003560Y0060467D01*
X0003560Y0061666D02*
X0007020Y0061666D01*
X0007020Y0062864D02*
X0003560Y0062864D01*
X0003560Y0064063D02*
X0007020Y0064063D01*
X0007020Y0065261D02*
X0003560Y0065261D01*
X0003560Y0066460D02*
X0007020Y0066460D01*
X0007020Y0067658D02*
X0003560Y0067658D01*
X0003560Y0068857D02*
X0007020Y0068857D01*
X0007020Y0070055D02*
X0003560Y0070055D01*
X0003560Y0071254D02*
X0007020Y0071254D01*
X0007020Y0072452D02*
X0003560Y0072452D01*
X0003560Y0073651D02*
X0007020Y0073651D01*
X0007020Y0074849D02*
X0003560Y0074849D01*
X0003560Y0076048D02*
X0007020Y0076048D01*
X0007020Y0077246D02*
X0003560Y0077246D01*
X0003560Y0078445D02*
X0007020Y0078445D01*
X0007020Y0079643D02*
X0003560Y0079643D01*
X0003560Y0080842D02*
X0007020Y0080842D01*
X0007020Y0082040D02*
X0003560Y0082040D01*
X0003560Y0083239D02*
X0007020Y0083239D01*
X0007020Y0084437D02*
X0003560Y0084437D01*
X0003560Y0085636D02*
X0007020Y0085636D01*
X0007020Y0086834D02*
X0003560Y0086834D01*
X0003560Y0088033D02*
X0007020Y0088033D01*
X0007020Y0089231D02*
X0003560Y0089231D01*
X0003560Y0090430D02*
X0007020Y0090430D01*
X0007020Y0091628D02*
X0003560Y0091628D01*
X0003560Y0092827D02*
X0007020Y0092827D01*
X0007020Y0094025D02*
X0003560Y0094025D01*
X0003560Y0095224D02*
X0007020Y0095224D01*
X0007020Y0096422D02*
X0003560Y0096422D01*
X0003560Y0097621D02*
X0007020Y0097621D01*
X0007020Y0098819D02*
X0003560Y0098819D01*
X0003560Y0100018D02*
X0007020Y0100018D01*
X0007020Y0101216D02*
X0003560Y0101216D01*
X0003560Y0102415D02*
X0007020Y0102415D01*
X0007398Y0103613D02*
X0003560Y0103613D01*
X0003560Y0104812D02*
X0077701Y0104812D01*
X0075145Y0106010D02*
X0003560Y0106010D01*
X0003560Y0107209D02*
X0074560Y0107209D01*
X0074560Y0108408D02*
X0003560Y0108408D01*
X0003560Y0109606D02*
X0074560Y0109606D01*
X0074560Y0110805D02*
X0003560Y0110805D01*
X0003560Y0112003D02*
X0074560Y0112003D01*
X0075547Y0113202D02*
X0003560Y0113202D01*
X0003560Y0114400D02*
X0113940Y0114400D01*
X0113940Y0113202D02*
X0081535Y0113202D01*
X0082522Y0112003D02*
X0105606Y0112003D01*
X0105100Y0110805D02*
X0082522Y0110805D01*
X0082522Y0109606D02*
X0105100Y0109606D01*
X0105100Y0108408D02*
X0082799Y0108408D01*
X0082901Y0107209D02*
X0105100Y0107209D01*
X0105100Y0106010D02*
X0082901Y0106010D01*
X0082901Y0104812D02*
X0105100Y0104812D01*
X0105100Y0103613D02*
X0082901Y0103613D01*
X0082901Y0102415D02*
X0105100Y0102415D01*
X0105100Y0101216D02*
X0082714Y0101216D01*
X0081812Y0100018D02*
X0105100Y0100018D01*
X0105100Y0098819D02*
X0012240Y0098819D01*
X0012240Y0097621D02*
X0105100Y0097621D01*
X0105100Y0096422D02*
X0012240Y0096422D01*
X0012240Y0095224D02*
X0105100Y0095224D01*
X0105100Y0094025D02*
X0012240Y0094025D01*
X0012240Y0092827D02*
X0105100Y0092827D01*
X0105100Y0091628D02*
X0012240Y0091628D01*
X0012240Y0090430D02*
X0105100Y0090430D01*
X0105100Y0089231D02*
X0012240Y0089231D01*
X0012240Y0088033D02*
X0105100Y0088033D01*
X0107700Y0085260D02*
X0107264Y0084824D01*
X0012827Y0084824D01*
X0012827Y0048868D01*
X0137787Y0048868D01*
X0137293Y0051524D02*
X0137787Y0052018D01*
X0137293Y0051524D02*
X0015207Y0051524D01*
X0015207Y0075504D01*
X0064067Y0075504D01*
X0070142Y0081579D01*
X0111980Y0081579D01*
X0111980Y0106480D01*
X0119620Y0106480D01*
X0119620Y0142804D01*
X0117267Y0142804D01*
X0118440Y0147180D02*
X0118440Y0168860D01*
X0114459Y0168333D02*
X0101367Y0168333D01*
X0101367Y0167135D02*
X0114459Y0167135D01*
X0114459Y0166050D02*
X0115630Y0164879D01*
X0115840Y0164879D01*
X0115840Y0149780D01*
X0106601Y0149780D01*
X0106601Y0149990D01*
X0105430Y0151161D01*
X0099810Y0151161D01*
X0098639Y0149990D01*
X0098639Y0144700D01*
X0088600Y0144700D01*
X0088600Y0149339D01*
X0088810Y0149339D01*
X0089981Y0150510D01*
X0089981Y0156130D01*
X0088810Y0157301D01*
X0083190Y0157301D01*
X0082019Y0156130D01*
X0082019Y0150510D01*
X0083190Y0149339D01*
X0083400Y0149339D01*
X0083400Y0141583D01*
X0083796Y0140627D01*
X0084527Y0139896D01*
X0085483Y0139500D01*
X0096326Y0139500D01*
X0096326Y0137084D01*
X0067428Y0137084D01*
X0067428Y0142094D01*
X0066257Y0143265D01*
X0066047Y0143265D01*
X0066047Y0161082D01*
X0065651Y0162038D01*
X0064920Y0162769D01*
X0063964Y0163165D01*
X0061779Y0163165D01*
X0062380Y0164615D01*
X0062380Y0166592D01*
X0061624Y0168418D01*
X0060226Y0169815D01*
X0058400Y0170572D01*
X0056423Y0170572D01*
X0054597Y0169815D01*
X0053199Y0168418D01*
X0052443Y0166592D01*
X0052443Y0164615D01*
X0053044Y0163165D01*
X0051779Y0163165D01*
X0052380Y0164615D01*
X0052380Y0166592D01*
X0051624Y0168418D01*
X0050226Y0169815D01*
X0048400Y0170572D01*
X0046423Y0170572D01*
X0044597Y0169815D01*
X0043199Y0168418D01*
X0042443Y0166592D01*
X0042443Y0164615D01*
X0043044Y0163165D01*
X0037798Y0163165D01*
X0037234Y0163729D01*
X0036278Y0164125D01*
X0029539Y0164125D01*
X0029927Y0164513D01*
X0029927Y0168655D01*
X0026998Y0171584D01*
X0029398Y0173984D01*
X0035337Y0173984D01*
X0036292Y0174380D01*
X0037024Y0175111D01*
X0039698Y0177785D01*
X0042843Y0177785D01*
X0042843Y0175988D01*
X0047027Y0175988D01*
X0047027Y0175219D01*
X0042843Y0175219D01*
X0042843Y0172424D01*
X0042952Y0172017D01*
X0043163Y0171652D01*
X0043461Y0171354D01*
X0043825Y0171144D01*
X0044232Y0171035D01*
X0047027Y0171035D01*
X0047027Y0175219D01*
X0047796Y0175219D01*
X0047796Y0175988D01*
X0051980Y0175988D01*
X0051980Y0177785D01*
X0052937Y0177785D01*
X0052443Y0176592D01*
X0052443Y0174615D01*
X0053199Y0172789D01*
X0054597Y0171391D01*
X0056423Y0170635D01*
X0058400Y0170635D01*
X0060226Y0171391D01*
X0061624Y0172789D01*
X0062380Y0174615D01*
X0062380Y0176592D01*
X0061886Y0177785D01*
X0090744Y0177785D01*
X0090767Y0177795D01*
X0090767Y0176650D01*
X0091528Y0174812D01*
X0092935Y0173405D01*
X0094773Y0172644D01*
X0096167Y0172644D01*
X0096167Y0169604D01*
X0083508Y0169604D01*
X0083508Y0169814D01*
X0082337Y0170985D01*
X0076718Y0170985D01*
X0075546Y0169814D01*
X0075546Y0164195D01*
X0076718Y0163023D01*
X0082337Y0163023D01*
X0083508Y0164195D01*
X0083508Y0164404D01*
X0099284Y0164404D01*
X0100240Y0164800D01*
X0100971Y0165531D01*
X0101367Y0166487D01*
X0101367Y0172644D01*
X0102762Y0172644D01*
X0104599Y0173405D01*
X0106006Y0174812D01*
X0106102Y0175044D01*
X0117032Y0175044D01*
X0117128Y0174812D01*
X0118535Y0173405D01*
X0119897Y0172841D01*
X0115630Y0172841D01*
X0114459Y0171670D01*
X0114459Y0166050D01*
X0114573Y0165936D02*
X0101139Y0165936D01*
X0100089Y0164738D02*
X0115840Y0164738D01*
X0115840Y0163539D02*
X0082853Y0163539D01*
X0079527Y0167004D02*
X0098767Y0167004D01*
X0098767Y0177644D01*
X0124367Y0177644D01*
X0124467Y0177644D01*
X0124467Y0121284D01*
X0128448Y0121591D02*
X0151668Y0121591D01*
X0151719Y0121540D02*
X0154247Y0121540D01*
X0153643Y0120937D01*
X0153247Y0119981D01*
X0153247Y0070801D01*
X0150908Y0068462D01*
X0150512Y0067506D01*
X0150512Y0065144D01*
X0149963Y0065144D01*
X0149963Y0061044D01*
X0149963Y0056944D01*
X0150784Y0056944D01*
X0151184Y0056544D01*
X0155041Y0056544D01*
X0155441Y0056944D01*
X0156262Y0056944D01*
X0156812Y0056944D01*
X0156812Y0054087D01*
X0157207Y0053131D01*
X0157939Y0052400D01*
X0158894Y0052004D01*
X0159961Y0052004D01*
X0159961Y0039120D01*
X0155745Y0039120D01*
X0154789Y0038724D01*
X0154058Y0037993D01*
X0153662Y0037037D01*
X0153662Y0031344D01*
X0153112Y0031344D01*
X0152291Y0031344D01*
X0151891Y0031744D01*
X0142287Y0031744D01*
X0142287Y0056544D01*
X0144885Y0056544D01*
X0148742Y0056544D01*
X0149141Y0056944D01*
X0149963Y0056944D01*
X0149963Y0061044D01*
X0149963Y0061044D01*
X0149963Y0110107D01*
X0143281Y0116789D01*
X0143281Y0101745D01*
X0116661Y0101745D01*
X0114580Y0101216D02*
X0153247Y0101216D01*
X0153247Y0100018D02*
X0114580Y0100018D01*
X0114580Y0098819D02*
X0153247Y0098819D01*
X0153247Y0097621D02*
X0114580Y0097621D01*
X0114580Y0096422D02*
X0153247Y0096422D01*
X0153247Y0095224D02*
X0114580Y0095224D01*
X0114580Y0094025D02*
X0153247Y0094025D01*
X0153247Y0092827D02*
X0114580Y0092827D01*
X0114580Y0091628D02*
X0153247Y0091628D01*
X0153247Y0090430D02*
X0114580Y0090430D01*
X0114580Y0089231D02*
X0153247Y0089231D01*
X0153247Y0088033D02*
X0114580Y0088033D01*
X0114580Y0086834D02*
X0153247Y0086834D01*
X0153247Y0085636D02*
X0114580Y0085636D01*
X0114580Y0084437D02*
X0153247Y0084437D01*
X0153247Y0083239D02*
X0114580Y0083239D01*
X0114580Y0082040D02*
X0153247Y0082040D01*
X0153247Y0080842D02*
X0114489Y0080842D01*
X0114580Y0081061D02*
X0114580Y0103880D01*
X0120137Y0103880D01*
X0121093Y0104276D01*
X0121824Y0105007D01*
X0122220Y0105963D01*
X0122220Y0117303D01*
X0127277Y0117303D01*
X0128448Y0118475D01*
X0128448Y0124094D01*
X0127277Y0125265D01*
X0127067Y0125265D01*
X0127067Y0172644D01*
X0128362Y0172644D01*
X0130199Y0173405D01*
X0131606Y0174812D01*
X0132367Y0176650D01*
X0132367Y0178639D01*
X0131606Y0180476D01*
X0130199Y0181883D01*
X0129376Y0182224D01*
X0132680Y0182224D01*
X0132680Y0176383D01*
X0133076Y0175427D01*
X0133807Y0174696D01*
X0134763Y0174300D01*
X0165927Y0174300D01*
X0165927Y0173379D01*
X0165695Y0173283D01*
X0164288Y0171876D01*
X0163527Y0170039D01*
X0163527Y0162050D01*
X0162766Y0160212D01*
X0161359Y0158805D01*
X0161127Y0158709D01*
X0161127Y0157064D01*
X0172301Y0157064D01*
X0172701Y0156664D01*
X0173522Y0156664D01*
X0173522Y0152564D01*
X0173522Y0152564D01*
X0173522Y0156664D01*
X0174343Y0156664D01*
X0174743Y0157064D01*
X0184899Y0157064D01*
X0185927Y0156036D01*
X0185927Y0158709D01*
X0185695Y0158805D01*
X0184288Y0160212D01*
X0183527Y0162050D01*
X0183527Y0170039D01*
X0184151Y0171544D01*
X0182397Y0171544D01*
X0182461Y0171455D01*
X0182790Y0170810D01*
X0183014Y0170121D01*
X0183127Y0169406D01*
X0183127Y0166444D01*
X0178927Y0166444D01*
X0178927Y0165644D01*
X0178927Y0158450D01*
X0179604Y0158557D01*
X0180293Y0158781D01*
X0180938Y0159110D01*
X0181524Y0159535D01*
X0182036Y0160047D01*
X0182461Y0160633D01*
X0182790Y0161278D01*
X0183014Y0161967D01*
X0183127Y0162682D01*
X0183127Y0165644D01*
X0178927Y0165644D01*
X0178127Y0165644D01*
X0178127Y0158450D01*
X0177450Y0158557D01*
X0176761Y0158781D01*
X0176116Y0159110D01*
X0175530Y0159535D01*
X0175018Y0160047D01*
X0174593Y0160633D01*
X0174264Y0161278D01*
X0174040Y0161967D01*
X0173927Y0162682D01*
X0173927Y0165644D01*
X0178127Y0165644D01*
X0178127Y0166444D01*
X0173927Y0166444D01*
X0173927Y0169406D01*
X0174040Y0170121D01*
X0174264Y0170810D01*
X0174593Y0171455D01*
X0174658Y0171544D01*
X0172903Y0171544D01*
X0173527Y0170039D01*
X0173527Y0162050D01*
X0172766Y0160212D01*
X0171359Y0158805D01*
X0169522Y0158044D01*
X0167533Y0158044D01*
X0165695Y0158805D01*
X0164288Y0160212D01*
X0163527Y0162050D01*
X0163527Y0170039D01*
X0162766Y0171876D01*
X0161359Y0173283D01*
X0159522Y0174044D01*
X0157533Y0174044D01*
X0155695Y0173283D01*
X0154288Y0171876D01*
X0153527Y0170039D01*
X0152766Y0171876D01*
X0151359Y0173283D01*
X0149522Y0174044D01*
X0147533Y0174044D01*
X0145695Y0173283D01*
X0144288Y0171876D01*
X0143527Y0170039D01*
X0142766Y0171876D01*
X0141359Y0173283D01*
X0139522Y0174044D01*
X0137533Y0174044D01*
X0135695Y0173283D01*
X0134288Y0171876D01*
X0133527Y0170039D01*
X0133527Y0162050D01*
X0134288Y0160212D01*
X0135695Y0158805D01*
X0137533Y0158044D01*
X0139522Y0158044D01*
X0141009Y0158660D01*
X0144988Y0154681D01*
X0145944Y0154285D01*
X0147761Y0154285D01*
X0147761Y0143021D01*
X0148157Y0142065D01*
X0148888Y0141334D01*
X0149844Y0140938D01*
X0150547Y0140938D01*
X0150547Y0122712D01*
X0151719Y0121540D01*
X0150547Y0122790D02*
X0128448Y0122790D01*
X0128448Y0123988D02*
X0150547Y0123988D01*
X0150547Y0125187D02*
X0127355Y0125187D01*
X0127067Y0126385D02*
X0150547Y0126385D01*
X0150547Y0127584D02*
X0127067Y0127584D01*
X0127067Y0128782D02*
X0150547Y0128782D01*
X0150547Y0129981D02*
X0127067Y0129981D01*
X0127067Y0131179D02*
X0150547Y0131179D01*
X0150547Y0132378D02*
X0127067Y0132378D01*
X0127067Y0133576D02*
X0150547Y0133576D01*
X0150547Y0134775D02*
X0127067Y0134775D01*
X0127067Y0135973D02*
X0150547Y0135973D01*
X0150547Y0137172D02*
X0127067Y0137172D01*
X0127067Y0138370D02*
X0150547Y0138370D01*
X0150547Y0139569D02*
X0127067Y0139569D01*
X0127067Y0140767D02*
X0150547Y0140767D01*
X0148256Y0141966D02*
X0127067Y0141966D01*
X0127067Y0143164D02*
X0147761Y0143164D01*
X0147761Y0144363D02*
X0127067Y0144363D01*
X0127067Y0145561D02*
X0147761Y0145561D01*
X0147761Y0146760D02*
X0127067Y0146760D01*
X0127067Y0147958D02*
X0147761Y0147958D01*
X0147761Y0149157D02*
X0127067Y0149157D01*
X0127067Y0150355D02*
X0147761Y0150355D01*
X0147761Y0151554D02*
X0127067Y0151554D01*
X0127067Y0152752D02*
X0147761Y0152752D01*
X0147761Y0153951D02*
X0127067Y0153951D01*
X0127067Y0155149D02*
X0144520Y0155149D01*
X0143321Y0156348D02*
X0127067Y0156348D01*
X0127067Y0157546D02*
X0142123Y0157546D01*
X0146461Y0156885D02*
X0138527Y0164819D01*
X0138527Y0166044D01*
X0133527Y0165936D02*
X0127067Y0165936D01*
X0127067Y0164738D02*
X0133527Y0164738D01*
X0133527Y0163539D02*
X0127067Y0163539D01*
X0127067Y0162341D02*
X0133527Y0162341D01*
X0133903Y0161142D02*
X0127067Y0161142D01*
X0127067Y0159943D02*
X0134557Y0159943D01*
X0135840Y0158745D02*
X0127067Y0158745D01*
X0127067Y0167135D02*
X0133527Y0167135D01*
X0133527Y0168333D02*
X0127067Y0168333D01*
X0127067Y0169532D02*
X0133527Y0169532D01*
X0133813Y0170730D02*
X0127067Y0170730D01*
X0127067Y0171929D02*
X0134341Y0171929D01*
X0135539Y0173127D02*
X0129528Y0173127D01*
X0131120Y0174326D02*
X0134701Y0174326D01*
X0133036Y0175524D02*
X0131901Y0175524D01*
X0132367Y0176723D02*
X0132680Y0176723D01*
X0132680Y0177921D02*
X0132367Y0177921D01*
X0132168Y0179120D02*
X0132680Y0179120D01*
X0132680Y0180318D02*
X0131671Y0180318D01*
X0132680Y0181517D02*
X0130566Y0181517D01*
X0135280Y0184824D02*
X0135280Y0176900D01*
X0196427Y0176900D01*
X0196427Y0124640D01*
X0188847Y0124640D01*
X0188847Y0127790D02*
X0181993Y0127790D01*
X0181990Y0127789D01*
X0181988Y0127787D01*
X0181987Y0127784D01*
X0185412Y0130940D02*
X0183786Y0132566D01*
X0183786Y0142500D01*
X0170580Y0142500D01*
X0170220Y0147404D02*
X0170220Y0152564D01*
X0170372Y0152564D01*
X0173522Y0152752D02*
X0173522Y0152752D01*
X0173522Y0153951D02*
X0173522Y0153951D01*
X0173522Y0155149D02*
X0173522Y0155149D01*
X0173522Y0156348D02*
X0173522Y0156348D01*
X0171214Y0158745D02*
X0176872Y0158745D01*
X0178127Y0158745D02*
X0178927Y0158745D01*
X0178927Y0159943D02*
X0178127Y0159943D01*
X0178127Y0161142D02*
X0178927Y0161142D01*
X0178927Y0162341D02*
X0178127Y0162341D01*
X0178127Y0163539D02*
X0178927Y0163539D01*
X0178927Y0164738D02*
X0178127Y0164738D01*
X0178127Y0165936D02*
X0173527Y0165936D01*
X0173527Y0164738D02*
X0173927Y0164738D01*
X0173927Y0163539D02*
X0173527Y0163539D01*
X0173527Y0162341D02*
X0173981Y0162341D01*
X0174334Y0161142D02*
X0173151Y0161142D01*
X0172498Y0159943D02*
X0175122Y0159943D01*
X0180182Y0158745D02*
X0185840Y0158745D01*
X0185927Y0157546D02*
X0161127Y0157546D01*
X0161214Y0158745D02*
X0165840Y0158745D01*
X0164557Y0159943D02*
X0162498Y0159943D01*
X0163151Y0161142D02*
X0163903Y0161142D01*
X0163527Y0162341D02*
X0163527Y0162341D01*
X0163527Y0163539D02*
X0163527Y0163539D01*
X0163527Y0164738D02*
X0163527Y0164738D01*
X0163527Y0165936D02*
X0163527Y0165936D01*
X0163527Y0167135D02*
X0163527Y0167135D01*
X0163527Y0168333D02*
X0163527Y0168333D01*
X0163527Y0169532D02*
X0163527Y0169532D01*
X0163241Y0170730D02*
X0163813Y0170730D01*
X0164341Y0171929D02*
X0162714Y0171929D01*
X0161515Y0173127D02*
X0165539Y0173127D01*
X0168527Y0174144D02*
X0194067Y0174144D01*
X0194067Y0134089D01*
X0188847Y0134089D01*
X0188847Y0134004D01*
X0188847Y0130940D02*
X0185412Y0130940D01*
X0177660Y0137680D02*
X0177660Y0123820D01*
X0173522Y0123820D01*
X0173522Y0118764D01*
X0176672Y0118764D02*
X0176672Y0114520D01*
X0170372Y0114520D01*
X0170372Y0118764D01*
X0170372Y0128852D01*
X0172700Y0131180D01*
X0175060Y0131179D02*
X0170040Y0131179D01*
X0170040Y0129981D02*
X0175060Y0129981D01*
X0175060Y0128782D02*
X0170040Y0128782D01*
X0170040Y0127584D02*
X0175060Y0127584D01*
X0175060Y0126420D02*
X0173005Y0126420D01*
X0172049Y0126024D01*
X0171318Y0125293D01*
X0170922Y0124337D01*
X0170922Y0122864D01*
X0170372Y0122864D01*
X0170040Y0122864D01*
X0170040Y0135080D01*
X0175060Y0135080D01*
X0175060Y0126420D01*
X0172921Y0126385D02*
X0170040Y0126385D01*
X0170040Y0125187D02*
X0171274Y0125187D01*
X0170922Y0123988D02*
X0170040Y0123988D01*
X0170372Y0122864D02*
X0170372Y0118764D01*
X0170372Y0118764D01*
X0170372Y0122864D01*
X0170372Y0122790D02*
X0170372Y0122790D01*
X0170372Y0121591D02*
X0170372Y0121591D01*
X0170372Y0120393D02*
X0170372Y0120393D01*
X0170372Y0119194D02*
X0170372Y0119194D01*
X0167440Y0118764D02*
X0167440Y0137680D01*
X0177660Y0137680D01*
X0175060Y0134775D02*
X0170040Y0134775D01*
X0170040Y0133576D02*
X0175060Y0133576D01*
X0175060Y0132378D02*
X0170040Y0132378D01*
X0167440Y0137680D02*
X0162727Y0137680D01*
X0162727Y0126224D01*
X0162607Y0126224D01*
X0155847Y0119464D01*
X0155847Y0088564D01*
X0160747Y0088564D01*
X0164728Y0088033D02*
X0166039Y0088033D01*
X0166175Y0089231D02*
X0164728Y0089231D01*
X0164728Y0090430D02*
X0165194Y0090430D01*
X0165194Y0091628D02*
X0164473Y0091628D01*
X0165194Y0092827D02*
X0158447Y0092827D01*
X0158447Y0094025D02*
X0164209Y0094025D01*
X0163010Y0095224D02*
X0158447Y0095224D01*
X0158447Y0096422D02*
X0161812Y0096422D01*
X0160613Y0097621D02*
X0158447Y0097621D01*
X0158447Y0098819D02*
X0159415Y0098819D01*
X0158511Y0100018D02*
X0158447Y0100018D01*
X0160923Y0100988D02*
X0167131Y0094781D01*
X0169360Y0094781D01*
X0175103Y0100524D01*
X0183047Y0100524D01*
X0184927Y0098644D01*
X0186481Y0098644D01*
X0190023Y0095224D02*
X0190323Y0095224D01*
X0192789Y0095224D02*
X0193558Y0095224D01*
X0193558Y0096422D02*
X0192789Y0096422D01*
X0192789Y0097621D02*
X0193558Y0097621D01*
X0193558Y0098819D02*
X0204272Y0098819D01*
X0204272Y0097621D02*
X0196939Y0097621D01*
X0196928Y0096422D02*
X0204272Y0096422D01*
X0204271Y0095224D02*
X0196024Y0095224D01*
X0196939Y0100018D02*
X0204272Y0100018D01*
X0204272Y0101216D02*
X0196834Y0101216D01*
X0193558Y0101216D02*
X0192789Y0101216D01*
X0192789Y0100018D02*
X0193558Y0100018D01*
X0189672Y0102415D02*
X0204272Y0102415D01*
X0204272Y0103613D02*
X0181415Y0103613D01*
X0182580Y0104812D02*
X0183050Y0104812D01*
X0186381Y0108444D02*
X0179318Y0108444D01*
X0178447Y0109315D01*
X0178415Y0109348D01*
X0178415Y0106892D01*
X0174907Y0103384D01*
X0165087Y0103384D01*
X0164073Y0104398D01*
X0164073Y0118764D01*
X0160923Y0118764D02*
X0160923Y0100988D01*
X0153247Y0102415D02*
X0114580Y0102415D01*
X0114580Y0103613D02*
X0153247Y0103613D01*
X0153247Y0104812D02*
X0121629Y0104812D01*
X0122220Y0106010D02*
X0153247Y0106010D01*
X0153247Y0107209D02*
X0122220Y0107209D01*
X0122220Y0108408D02*
X0153247Y0108408D01*
X0153247Y0109606D02*
X0122220Y0109606D01*
X0122220Y0110805D02*
X0153247Y0110805D01*
X0153247Y0112003D02*
X0122220Y0112003D01*
X0122220Y0113202D02*
X0153247Y0113202D01*
X0153247Y0114400D02*
X0122220Y0114400D01*
X0122220Y0115599D02*
X0153247Y0115599D01*
X0153247Y0116797D02*
X0122220Y0116797D01*
X0127969Y0117996D02*
X0153247Y0117996D01*
X0153247Y0119194D02*
X0128448Y0119194D01*
X0128448Y0120393D02*
X0153417Y0120393D01*
X0146101Y0117085D02*
X0146041Y0117025D01*
X0143281Y0116789D01*
X0146101Y0117085D02*
X0146101Y0150905D01*
X0146461Y0156885D02*
X0150361Y0156885D01*
X0150361Y0143538D01*
X0155047Y0143538D01*
X0155047Y0146688D02*
X0153321Y0148414D01*
X0153321Y0166044D01*
X0148527Y0166044D01*
X0143527Y0165936D02*
X0143527Y0165936D01*
X0143527Y0164738D02*
X0143527Y0164738D01*
X0143527Y0163539D02*
X0143527Y0163539D01*
X0143527Y0163496D02*
X0143527Y0170039D01*
X0143527Y0163496D01*
X0143527Y0163496D01*
X0143527Y0167135D02*
X0143527Y0167135D01*
X0143527Y0168333D02*
X0143527Y0168333D01*
X0143527Y0169532D02*
X0143527Y0169532D01*
X0143241Y0170730D02*
X0143813Y0170730D01*
X0144341Y0171929D02*
X0142714Y0171929D01*
X0141515Y0173127D02*
X0145539Y0173127D01*
X0151515Y0173127D02*
X0155539Y0173127D01*
X0154341Y0171929D02*
X0152714Y0171929D01*
X0153241Y0170730D02*
X0153813Y0170730D01*
X0153527Y0170039D02*
X0153527Y0168644D01*
X0153527Y0170039D01*
X0153527Y0169532D02*
X0153527Y0169532D01*
X0153527Y0168644D02*
X0153527Y0168644D01*
X0158527Y0166044D02*
X0158527Y0152584D01*
X0158687Y0152584D01*
X0158687Y0152564D01*
X0160923Y0152564D01*
X0164073Y0152564D02*
X0164073Y0147404D01*
X0162727Y0147404D01*
X0162727Y0137680D01*
X0164073Y0147404D02*
X0170220Y0147404D01*
X0183667Y0147404D01*
X0188527Y0152264D01*
X0188527Y0166044D01*
X0183527Y0165936D02*
X0178927Y0165936D01*
X0183127Y0164738D02*
X0183527Y0164738D01*
X0183527Y0163539D02*
X0183127Y0163539D01*
X0183073Y0162341D02*
X0183527Y0162341D01*
X0183903Y0161142D02*
X0182721Y0161142D01*
X0181932Y0159943D02*
X0184557Y0159943D01*
X0185615Y0156348D02*
X0185927Y0156348D01*
X0183527Y0167135D02*
X0183127Y0167135D01*
X0183127Y0168333D02*
X0183527Y0168333D01*
X0183527Y0169532D02*
X0183107Y0169532D01*
X0182816Y0170730D02*
X0183813Y0170730D01*
X0174238Y0170730D02*
X0173241Y0170730D01*
X0173527Y0169532D02*
X0173947Y0169532D01*
X0173927Y0168333D02*
X0173527Y0168333D01*
X0173527Y0167135D02*
X0173927Y0167135D01*
X0168527Y0166044D02*
X0168527Y0174144D01*
X0186690Y0191133D02*
X0189024Y0188799D01*
X0192075Y0187535D01*
X0195376Y0187535D01*
X0198426Y0188799D01*
X0200761Y0191133D01*
X0202025Y0194184D01*
X0202025Y0197485D01*
X0200761Y0200536D01*
X0198426Y0202870D01*
X0195376Y0204134D01*
X0192075Y0204134D01*
X0189024Y0202870D01*
X0186690Y0200536D01*
X0185426Y0197485D01*
X0185426Y0194184D01*
X0186690Y0191133D01*
X0186718Y0191105D02*
X0128898Y0191105D01*
X0129133Y0191181D02*
X0129778Y0191510D01*
X0130364Y0191935D01*
X0130876Y0192447D01*
X0131301Y0193033D01*
X0131630Y0193678D01*
X0131854Y0194367D01*
X0131961Y0195044D01*
X0124767Y0195044D01*
X0124767Y0190844D01*
X0127729Y0190844D01*
X0128444Y0190957D01*
X0129133Y0191181D01*
X0130732Y0192303D02*
X0186205Y0192303D01*
X0185709Y0193502D02*
X0131540Y0193502D01*
X0131907Y0194700D02*
X0185426Y0194700D01*
X0185426Y0195899D02*
X0131952Y0195899D01*
X0131961Y0195844D02*
X0131854Y0196521D01*
X0131630Y0197210D01*
X0131301Y0197855D01*
X0130876Y0198441D01*
X0130364Y0198953D01*
X0129778Y0199378D01*
X0129133Y0199707D01*
X0128444Y0199931D01*
X0127729Y0200044D01*
X0124767Y0200044D01*
X0124767Y0195844D01*
X0123967Y0195844D01*
X0123967Y0195044D01*
X0124767Y0195044D01*
X0124767Y0195844D01*
X0131961Y0195844D01*
X0131667Y0197097D02*
X0185426Y0197097D01*
X0185762Y0198296D02*
X0130981Y0198296D01*
X0129550Y0199494D02*
X0186258Y0199494D01*
X0186847Y0200693D02*
X0067791Y0200693D01*
X0068461Y0199494D02*
X0093584Y0199494D01*
X0093356Y0199378D02*
X0094001Y0199707D01*
X0094690Y0199931D01*
X0095405Y0200044D01*
X0098367Y0200044D01*
X0098367Y0195844D01*
X0098367Y0195044D01*
X0099167Y0195044D01*
X0099167Y0190844D01*
X0102129Y0190844D01*
X0102844Y0190957D01*
X0103533Y0191181D01*
X0104178Y0191510D01*
X0104764Y0191935D01*
X0105276Y0192447D01*
X0105701Y0193033D01*
X0106030Y0193678D01*
X0106254Y0194367D01*
X0106361Y0195044D01*
X0099167Y0195044D01*
X0099167Y0195844D01*
X0098367Y0195844D01*
X0091173Y0195844D01*
X0091280Y0196521D01*
X0091504Y0197210D01*
X0091833Y0197855D01*
X0092258Y0198441D01*
X0092770Y0198953D01*
X0093356Y0199378D01*
X0092153Y0198296D02*
X0088990Y0198296D01*
X0090149Y0197097D02*
X0091468Y0197097D01*
X0091182Y0195899D02*
X0090646Y0195899D01*
X0091173Y0195044D02*
X0091280Y0194367D01*
X0091504Y0193678D01*
X0091833Y0193033D01*
X0092258Y0192447D01*
X0092770Y0191935D01*
X0093356Y0191510D01*
X0094001Y0191181D01*
X0094690Y0190957D01*
X0095405Y0190844D01*
X0098367Y0190844D01*
X0098367Y0195044D01*
X0091173Y0195044D01*
X0091228Y0194700D02*
X0090883Y0194700D01*
X0090883Y0193502D02*
X0091594Y0193502D01*
X0090883Y0192303D02*
X0092402Y0192303D01*
X0090883Y0191105D02*
X0094236Y0191105D01*
X0092044Y0189906D02*
X0090883Y0189906D01*
X0093087Y0187524D02*
X0137660Y0187524D01*
X0137660Y0180940D01*
X0198627Y0180940D01*
X0198627Y0118224D01*
X0182971Y0118224D01*
X0182971Y0118764D01*
X0182971Y0118564D01*
X0183180Y0114520D02*
X0176672Y0114520D01*
X0178447Y0109315D02*
X0178447Y0106144D01*
X0182580Y0112003D02*
X0182977Y0112003D01*
X0182580Y0113202D02*
X0204273Y0113202D01*
X0204273Y0114400D02*
X0185035Y0114400D01*
X0186071Y0115599D02*
X0204273Y0115599D01*
X0204273Y0116797D02*
X0200850Y0116797D01*
X0201227Y0117996D02*
X0204274Y0117996D01*
X0204274Y0119194D02*
X0201227Y0119194D01*
X0201227Y0120393D02*
X0204274Y0120393D01*
X0204274Y0121591D02*
X0201227Y0121591D01*
X0201227Y0122790D02*
X0204274Y0122790D01*
X0204274Y0123988D02*
X0201227Y0123988D01*
X0201227Y0125187D02*
X0204274Y0125187D01*
X0204274Y0126385D02*
X0201227Y0126385D01*
X0201227Y0127584D02*
X0204274Y0127584D01*
X0204275Y0128782D02*
X0201227Y0128782D01*
X0201227Y0129981D02*
X0204275Y0129981D01*
X0204275Y0131179D02*
X0201227Y0131179D01*
X0201227Y0132378D02*
X0204275Y0132378D01*
X0204275Y0133576D02*
X0201227Y0133576D01*
X0201227Y0134775D02*
X0204275Y0134775D01*
X0204275Y0135973D02*
X0201227Y0135973D01*
X0201227Y0137172D02*
X0204275Y0137172D01*
X0204275Y0138370D02*
X0201227Y0138370D01*
X0201227Y0139569D02*
X0204276Y0139569D01*
X0204276Y0140767D02*
X0201227Y0140767D01*
X0201227Y0141966D02*
X0204276Y0141966D01*
X0204276Y0143164D02*
X0201227Y0143164D01*
X0201227Y0144363D02*
X0204276Y0144363D01*
X0204276Y0145561D02*
X0201227Y0145561D01*
X0201227Y0146760D02*
X0204276Y0146760D01*
X0204276Y0147958D02*
X0201227Y0147958D01*
X0201227Y0149157D02*
X0204276Y0149157D01*
X0204276Y0150355D02*
X0201227Y0150355D01*
X0201227Y0151554D02*
X0204277Y0151554D01*
X0204277Y0152752D02*
X0201227Y0152752D01*
X0201227Y0153951D02*
X0204277Y0153951D01*
X0204277Y0155149D02*
X0201227Y0155149D01*
X0201227Y0156348D02*
X0204277Y0156348D01*
X0204277Y0157546D02*
X0201227Y0157546D01*
X0201227Y0158745D02*
X0204277Y0158745D01*
X0204277Y0159943D02*
X0201227Y0159943D01*
X0201227Y0161142D02*
X0204277Y0161142D01*
X0204278Y0162341D02*
X0201227Y0162341D01*
X0201227Y0163539D02*
X0204278Y0163539D01*
X0204278Y0164738D02*
X0201227Y0164738D01*
X0201227Y0165936D02*
X0204278Y0165936D01*
X0204278Y0167135D02*
X0201227Y0167135D01*
X0201227Y0168333D02*
X0204278Y0168333D01*
X0204278Y0169532D02*
X0201227Y0169532D01*
X0201227Y0170730D02*
X0204278Y0170730D01*
X0204278Y0171929D02*
X0201227Y0171929D01*
X0201227Y0173127D02*
X0204279Y0173127D01*
X0204279Y0174326D02*
X0201227Y0174326D01*
X0201227Y0175524D02*
X0204279Y0175524D01*
X0204279Y0176723D02*
X0201227Y0176723D01*
X0201227Y0177921D02*
X0204279Y0177921D01*
X0204279Y0179120D02*
X0201227Y0179120D01*
X0201227Y0180318D02*
X0204279Y0180318D01*
X0204279Y0181517D02*
X0201202Y0181517D01*
X0200529Y0182715D02*
X0204279Y0182715D01*
X0204280Y0183914D02*
X0140260Y0183914D01*
X0140260Y0185112D02*
X0204280Y0185112D01*
X0204280Y0186311D02*
X0140260Y0186311D01*
X0140260Y0187509D02*
X0204280Y0187509D01*
X0204280Y0188708D02*
X0198207Y0188708D01*
X0199534Y0189906D02*
X0204280Y0189906D01*
X0204280Y0191105D02*
X0200733Y0191105D01*
X0201246Y0192303D02*
X0204280Y0192303D01*
X0204280Y0193502D02*
X0201742Y0193502D01*
X0202025Y0194700D02*
X0204281Y0194700D01*
X0204281Y0195899D02*
X0202025Y0195899D01*
X0202025Y0197097D02*
X0204281Y0197097D01*
X0204281Y0198296D02*
X0201689Y0198296D01*
X0201192Y0199494D02*
X0204281Y0199494D01*
X0204281Y0200693D02*
X0200604Y0200693D01*
X0199405Y0201891D02*
X0204281Y0201891D01*
X0204281Y0203090D02*
X0197896Y0203090D01*
X0204280Y0204288D02*
X0015559Y0204288D01*
X0018207Y0203090D02*
X0189555Y0203090D01*
X0188045Y0201891D02*
X0019405Y0201891D01*
X0020465Y0200693D02*
X0027012Y0200693D01*
X0026342Y0199494D02*
X0020962Y0199494D01*
X0021458Y0198296D02*
X0026320Y0198296D01*
X0026320Y0197097D02*
X0021631Y0197097D01*
X0021631Y0195899D02*
X0026320Y0195899D01*
X0026320Y0194700D02*
X0021631Y0194700D01*
X0021185Y0193502D02*
X0026320Y0193502D01*
X0026320Y0192303D02*
X0020689Y0192303D01*
X0019945Y0191105D02*
X0026320Y0191105D01*
X0026320Y0189906D02*
X0018747Y0189906D01*
X0016863Y0188708D02*
X0026320Y0188708D01*
X0028920Y0185280D02*
X0028920Y0198924D01*
X0065883Y0198924D01*
X0065883Y0191331D01*
X0070458Y0186311D02*
X0071308Y0186311D01*
X0070883Y0187509D02*
X0070883Y0187509D01*
X0070883Y0188708D02*
X0070883Y0188708D01*
X0070883Y0189906D02*
X0070883Y0189906D01*
X0070883Y0191105D02*
X0070883Y0191105D01*
X0070883Y0192303D02*
X0070883Y0192303D01*
X0070883Y0193502D02*
X0070883Y0193502D01*
X0070883Y0194700D02*
X0070883Y0194700D01*
X0070646Y0195899D02*
X0071120Y0195899D01*
X0071617Y0197097D02*
X0070149Y0197097D01*
X0068990Y0198296D02*
X0072776Y0198296D01*
X0078990Y0198296D02*
X0082776Y0198296D01*
X0081617Y0197097D02*
X0080149Y0197097D01*
X0080646Y0195899D02*
X0081120Y0195899D01*
X0080883Y0194700D02*
X0080883Y0194700D01*
X0080883Y0193502D02*
X0080883Y0193502D01*
X0080883Y0192303D02*
X0080883Y0192303D01*
X0080883Y0191105D02*
X0080883Y0191105D01*
X0080883Y0189906D02*
X0080883Y0189906D01*
X0080883Y0188708D02*
X0080883Y0188708D01*
X0080883Y0187509D02*
X0080883Y0187509D01*
X0080458Y0186311D02*
X0081308Y0186311D01*
X0088287Y0182724D02*
X0093087Y0187524D01*
X0094547Y0184824D02*
X0135280Y0184824D01*
X0139984Y0188708D02*
X0189244Y0188708D01*
X0187917Y0189906D02*
X0138703Y0189906D01*
X0124767Y0191105D02*
X0123967Y0191105D01*
X0123967Y0190844D02*
X0123967Y0195044D01*
X0116773Y0195044D01*
X0116880Y0194367D01*
X0117104Y0193678D01*
X0117433Y0193033D01*
X0117858Y0192447D01*
X0118370Y0191935D01*
X0118956Y0191510D01*
X0119601Y0191181D01*
X0120290Y0190957D01*
X0121005Y0190844D01*
X0123967Y0190844D01*
X0123967Y0192303D02*
X0124767Y0192303D01*
X0124767Y0193502D02*
X0123967Y0193502D01*
X0123967Y0194700D02*
X0124767Y0194700D01*
X0124367Y0195444D02*
X0098767Y0195444D01*
X0099167Y0195844D02*
X0099167Y0200044D01*
X0102129Y0200044D01*
X0102844Y0199931D01*
X0103533Y0199707D01*
X0104178Y0199378D01*
X0104764Y0198953D01*
X0105276Y0198441D01*
X0105701Y0197855D01*
X0106030Y0197210D01*
X0106254Y0196521D01*
X0106361Y0195844D01*
X0099167Y0195844D01*
X0099167Y0195899D02*
X0098367Y0195899D01*
X0098367Y0197097D02*
X0099167Y0197097D01*
X0099167Y0198296D02*
X0098367Y0198296D01*
X0098367Y0199494D02*
X0099167Y0199494D01*
X0099167Y0194700D02*
X0098367Y0194700D01*
X0098367Y0193502D02*
X0099167Y0193502D01*
X0099167Y0192303D02*
X0098367Y0192303D01*
X0098367Y0191105D02*
X0099167Y0191105D01*
X0103298Y0191105D02*
X0119836Y0191105D01*
X0118002Y0192303D02*
X0105132Y0192303D01*
X0105940Y0193502D02*
X0117194Y0193502D01*
X0116828Y0194700D02*
X0106307Y0194700D01*
X0106352Y0195899D02*
X0116782Y0195899D01*
X0116773Y0195844D02*
X0123967Y0195844D01*
X0123967Y0200044D01*
X0121005Y0200044D01*
X0120290Y0199931D01*
X0119601Y0199707D01*
X0118956Y0199378D01*
X0118370Y0198953D01*
X0117858Y0198441D01*
X0117433Y0197855D01*
X0117104Y0197210D01*
X0116880Y0196521D01*
X0116773Y0195844D01*
X0117068Y0197097D02*
X0106067Y0197097D01*
X0105381Y0198296D02*
X0117753Y0198296D01*
X0119184Y0199494D02*
X0103950Y0199494D01*
X0094547Y0184824D02*
X0090247Y0180524D01*
X0090767Y0176723D02*
X0062326Y0176723D01*
X0062380Y0175524D02*
X0091233Y0175524D01*
X0092014Y0174326D02*
X0062260Y0174326D01*
X0061764Y0173127D02*
X0093606Y0173127D01*
X0096167Y0171929D02*
X0060763Y0171929D01*
X0060510Y0169532D02*
X0075546Y0169532D01*
X0075546Y0168333D02*
X0061659Y0168333D01*
X0062155Y0167135D02*
X0075546Y0167135D01*
X0075546Y0165936D02*
X0062380Y0165936D01*
X0062380Y0164738D02*
X0075546Y0164738D01*
X0076202Y0163539D02*
X0061934Y0163539D01*
X0063447Y0160565D02*
X0063447Y0139284D01*
X0063267Y0139284D01*
X0067428Y0139569D02*
X0085317Y0139569D01*
X0083738Y0140767D02*
X0067428Y0140767D01*
X0067428Y0141966D02*
X0083400Y0141966D01*
X0083400Y0143164D02*
X0066357Y0143164D01*
X0066047Y0144363D02*
X0083400Y0144363D01*
X0083400Y0145561D02*
X0066047Y0145561D01*
X0066047Y0146760D02*
X0083400Y0146760D01*
X0083400Y0147958D02*
X0066047Y0147958D01*
X0066047Y0149157D02*
X0083400Y0149157D01*
X0082174Y0150355D02*
X0066047Y0150355D01*
X0066047Y0151554D02*
X0082019Y0151554D01*
X0082019Y0152752D02*
X0066047Y0152752D01*
X0066047Y0153951D02*
X0082019Y0153951D01*
X0082019Y0155149D02*
X0066047Y0155149D01*
X0066047Y0156348D02*
X0082237Y0156348D01*
X0086000Y0153320D02*
X0086000Y0142100D01*
X0107520Y0142100D01*
X0107520Y0124180D01*
X0109380Y0124180D01*
X0113361Y0123988D02*
X0113940Y0123988D01*
X0113940Y0122790D02*
X0113361Y0122790D01*
X0113361Y0121591D02*
X0113940Y0121591D01*
X0113940Y0120393D02*
X0112383Y0120393D01*
X0113940Y0119194D02*
X0003560Y0119194D01*
X0003560Y0117996D02*
X0113940Y0117996D01*
X0113940Y0116797D02*
X0003560Y0116797D01*
X0003560Y0115599D02*
X0113940Y0115599D01*
X0116540Y0110420D02*
X0107700Y0110420D01*
X0107700Y0085260D01*
X0112497Y0078979D02*
X0113453Y0079374D01*
X0114184Y0080106D01*
X0114580Y0081061D01*
X0113722Y0079643D02*
X0153247Y0079643D01*
X0153247Y0078445D02*
X0070685Y0078445D01*
X0071218Y0078979D02*
X0112497Y0078979D01*
X0127807Y0068204D02*
X0046327Y0068204D01*
X0042627Y0071464D02*
X0134467Y0071464D01*
X0143663Y0062268D01*
X0143663Y0061044D01*
X0144064Y0065544D02*
X0136671Y0072937D01*
X0135940Y0073668D01*
X0134984Y0074064D01*
X0066304Y0074064D01*
X0071218Y0078979D01*
X0069486Y0077246D02*
X0153247Y0077246D01*
X0153247Y0076048D02*
X0068288Y0076048D01*
X0067089Y0074849D02*
X0153247Y0074849D01*
X0153247Y0073651D02*
X0135957Y0073651D01*
X0137156Y0072452D02*
X0153247Y0072452D01*
X0153247Y0071254D02*
X0138354Y0071254D01*
X0139553Y0070055D02*
X0152501Y0070055D01*
X0151303Y0068857D02*
X0140751Y0068857D01*
X0141950Y0067658D02*
X0150575Y0067658D01*
X0150512Y0066460D02*
X0143148Y0066460D01*
X0144064Y0065544D02*
X0148742Y0065544D01*
X0149142Y0065144D01*
X0149963Y0065144D01*
X0149963Y0061044D01*
X0149963Y0061044D01*
X0149963Y0060467D02*
X0149963Y0060467D01*
X0149963Y0059269D02*
X0149963Y0059269D01*
X0149963Y0058070D02*
X0149963Y0058070D01*
X0149069Y0056872D02*
X0150856Y0056872D01*
X0155368Y0056872D02*
X0156812Y0056872D01*
X0156262Y0056944D02*
X0156262Y0061044D01*
X0156262Y0061044D01*
X0156262Y0056944D01*
X0156262Y0058070D02*
X0156262Y0058070D01*
X0156262Y0059269D02*
X0156262Y0059269D01*
X0156262Y0060467D02*
X0156262Y0060467D01*
X0156262Y0061044D02*
X0156262Y0065144D01*
X0156262Y0061044D01*
X0156262Y0061044D01*
X0156262Y0061666D02*
X0156262Y0061666D01*
X0156262Y0062864D02*
X0156262Y0062864D01*
X0156262Y0064063D02*
X0156262Y0064063D01*
X0156262Y0065144D02*
X0155712Y0065144D01*
X0155712Y0065912D01*
X0155847Y0066047D01*
X0156750Y0065144D01*
X0156262Y0065144D01*
X0156633Y0065261D02*
X0155712Y0065261D01*
X0153112Y0066989D02*
X0155847Y0069724D01*
X0155847Y0088564D01*
X0162744Y0081152D02*
X0167356Y0085764D01*
X0170267Y0085764D01*
X0170267Y0068504D01*
X0167947Y0066184D01*
X0162561Y0066184D01*
X0162561Y0061044D01*
X0165711Y0061044D02*
X0167887Y0061044D01*
X0174287Y0067444D01*
X0174287Y0069073D01*
X0177311Y0072097D01*
X0185273Y0072097D01*
X0186821Y0073644D01*
X0182655Y0076048D02*
X0182093Y0076048D01*
X0182139Y0077246D02*
X0183460Y0077246D01*
X0183051Y0078445D02*
X0204270Y0078445D01*
X0204270Y0079643D02*
X0183051Y0079643D01*
X0184167Y0083824D02*
X0186821Y0083824D01*
X0184167Y0083824D02*
X0182227Y0085764D01*
X0170267Y0085764D01*
X0172544Y0089231D02*
X0175230Y0089231D01*
X0174249Y0090430D02*
X0173525Y0090430D01*
X0173525Y0091628D02*
X0174249Y0091628D01*
X0174249Y0092827D02*
X0173525Y0092827D01*
X0173525Y0094025D02*
X0174249Y0094025D01*
X0174249Y0095224D02*
X0173525Y0095224D01*
X0182580Y0095224D02*
X0182939Y0095224D01*
X0182580Y0094025D02*
X0204271Y0094025D01*
X0204271Y0092827D02*
X0182580Y0092827D01*
X0182580Y0091628D02*
X0204271Y0091628D01*
X0204271Y0090430D02*
X0182580Y0090430D01*
X0181599Y0089231D02*
X0204271Y0089231D01*
X0204271Y0088033D02*
X0183544Y0088033D01*
X0193129Y0086834D02*
X0193898Y0086834D01*
X0193898Y0085636D02*
X0193129Y0085636D01*
X0193129Y0084437D02*
X0193898Y0084437D01*
X0193514Y0083824D02*
X0193514Y0073644D01*
X0193514Y0073644D01*
X0193898Y0073651D02*
X0204270Y0073651D01*
X0204270Y0074849D02*
X0197279Y0074849D01*
X0197219Y0076048D02*
X0204270Y0076048D01*
X0204270Y0077246D02*
X0190181Y0077246D01*
X0193129Y0076048D02*
X0193898Y0076048D01*
X0193898Y0074849D02*
X0193129Y0074849D01*
X0193129Y0072452D02*
X0193898Y0072452D01*
X0193898Y0071254D02*
X0193129Y0071254D01*
X0190194Y0070055D02*
X0204269Y0070055D01*
X0204269Y0068857D02*
X0199651Y0068857D01*
X0200558Y0067658D02*
X0204269Y0067658D01*
X0204269Y0066460D02*
X0200747Y0066460D01*
X0200747Y0065261D02*
X0204269Y0065261D01*
X0204269Y0064063D02*
X0200747Y0064063D01*
X0200747Y0062864D02*
X0204269Y0062864D01*
X0204268Y0061666D02*
X0200747Y0061666D01*
X0200687Y0060467D02*
X0204268Y0060467D01*
X0204268Y0059269D02*
X0200687Y0059269D01*
X0200687Y0058070D02*
X0204268Y0058070D01*
X0204268Y0056872D02*
X0200687Y0056872D01*
X0200687Y0055673D02*
X0204268Y0055673D01*
X0204268Y0054474D02*
X0200687Y0054474D01*
X0200687Y0053276D02*
X0204268Y0053276D01*
X0204268Y0052077D02*
X0200687Y0052077D01*
X0200687Y0050879D02*
X0204267Y0050879D01*
X0204267Y0049680D02*
X0200687Y0049680D01*
X0200687Y0048482D02*
X0204267Y0048482D01*
X0204267Y0047283D02*
X0200687Y0047283D01*
X0200687Y0046085D02*
X0204267Y0046085D01*
X0204267Y0044886D02*
X0200687Y0044886D01*
X0200687Y0043688D02*
X0204267Y0043688D01*
X0204267Y0042489D02*
X0200687Y0042489D01*
X0200687Y0041291D02*
X0204267Y0041291D01*
X0204266Y0040092D02*
X0200687Y0040092D01*
X0200687Y0038894D02*
X0204266Y0038894D01*
X0204266Y0037695D02*
X0200687Y0037695D01*
X0200687Y0036497D02*
X0204266Y0036497D01*
X0204266Y0035298D02*
X0200687Y0035298D01*
X0200687Y0034100D02*
X0204266Y0034100D01*
X0204266Y0032901D02*
X0200687Y0032901D01*
X0200687Y0031703D02*
X0204266Y0031703D01*
X0204266Y0030504D02*
X0200687Y0030504D01*
X0200687Y0029306D02*
X0204266Y0029306D01*
X0204265Y0028107D02*
X0200687Y0028107D01*
X0200687Y0026909D02*
X0204265Y0026909D01*
X0204265Y0025710D02*
X0200687Y0025710D01*
X0200687Y0024512D02*
X0204265Y0024512D01*
X0204265Y0023313D02*
X0200687Y0023313D01*
X0200687Y0022115D02*
X0204265Y0022115D01*
X0204265Y0020916D02*
X0200687Y0020916D01*
X0200687Y0019718D02*
X0204265Y0019718D01*
X0204265Y0018519D02*
X0200687Y0018519D01*
X0200687Y0017321D02*
X0204264Y0017321D01*
X0204264Y0016122D02*
X0200687Y0016122D01*
X0200321Y0014924D02*
X0204264Y0014924D01*
X0204264Y0013725D02*
X0198607Y0013725D01*
X0198482Y0012527D02*
X0204264Y0012527D01*
X0204264Y0011328D02*
X0198527Y0011328D01*
X0198403Y0010130D02*
X0204264Y0010130D01*
X0204264Y0008931D02*
X0197906Y0008931D01*
X0196907Y0007733D02*
X0204264Y0007733D01*
X0204263Y0006534D02*
X0194787Y0006534D01*
X0190527Y0011424D02*
X0190527Y0016324D01*
X0190527Y0016384D01*
X0190527Y0016324D02*
X0198087Y0016324D01*
X0198087Y0062184D01*
X0198147Y0062184D01*
X0198147Y0066684D01*
X0181927Y0066684D01*
X0179167Y0063924D01*
X0175767Y0063924D01*
X0174107Y0062264D01*
X0173007Y0062264D01*
X0165347Y0054604D01*
X0162561Y0054604D01*
X0162561Y0036520D01*
X0156262Y0036520D01*
X0156262Y0027244D01*
X0153112Y0027244D02*
X0153112Y0031344D01*
X0153112Y0027244D01*
X0153112Y0027244D01*
X0153112Y0028107D02*
X0153112Y0028107D01*
X0153112Y0029306D02*
X0153112Y0029306D01*
X0153112Y0030504D02*
X0153112Y0030504D01*
X0153662Y0031703D02*
X0151932Y0031703D01*
X0153662Y0032901D02*
X0142287Y0032901D01*
X0142287Y0034100D02*
X0153662Y0034100D01*
X0153662Y0035298D02*
X0142287Y0035298D01*
X0142287Y0036497D02*
X0153662Y0036497D01*
X0153935Y0037695D02*
X0142287Y0037695D01*
X0142287Y0038894D02*
X0155199Y0038894D01*
X0159961Y0040092D02*
X0142287Y0040092D01*
X0142287Y0041291D02*
X0159961Y0041291D01*
X0159961Y0042489D02*
X0142287Y0042489D01*
X0142287Y0043688D02*
X0159961Y0043688D01*
X0159961Y0044886D02*
X0142287Y0044886D01*
X0142287Y0046085D02*
X0159961Y0046085D01*
X0159961Y0047283D02*
X0142287Y0047283D01*
X0142287Y0048482D02*
X0159961Y0048482D01*
X0159961Y0049680D02*
X0142287Y0049680D01*
X0142287Y0050879D02*
X0159961Y0050879D01*
X0158717Y0052077D02*
X0142287Y0052077D01*
X0142287Y0053276D02*
X0157147Y0053276D01*
X0156812Y0054474D02*
X0142287Y0054474D01*
X0142287Y0055673D02*
X0156812Y0055673D01*
X0159412Y0054604D02*
X0162561Y0054604D01*
X0159412Y0054604D02*
X0159412Y0061044D01*
X0159412Y0066160D01*
X0155847Y0069724D01*
X0153112Y0066989D02*
X0153112Y0061044D01*
X0149963Y0061666D02*
X0149963Y0061666D01*
X0149963Y0062864D02*
X0149963Y0062864D01*
X0149963Y0064063D02*
X0149963Y0064063D01*
X0150512Y0065261D02*
X0149024Y0065261D01*
X0137787Y0058224D02*
X0137787Y0055168D01*
X0137787Y0058224D02*
X0127807Y0068204D01*
X0130267Y0046085D02*
X0053728Y0046085D01*
X0053728Y0044886D02*
X0130267Y0044886D01*
X0130267Y0043688D02*
X0053728Y0043688D01*
X0053728Y0042489D02*
X0055567Y0042489D01*
X0055721Y0042644D02*
X0054427Y0041350D01*
X0053727Y0039659D01*
X0053727Y0032629D01*
X0054427Y0030938D01*
X0055721Y0029644D01*
X0057412Y0028944D01*
X0059242Y0028944D01*
X0060933Y0029644D01*
X0062227Y0030938D01*
X0062927Y0032629D01*
X0062927Y0039659D01*
X0062227Y0041350D01*
X0060933Y0042644D01*
X0059242Y0043344D01*
X0057412Y0043344D01*
X0055721Y0042644D01*
X0054403Y0041291D02*
X0053728Y0041291D01*
X0053907Y0040092D02*
X0053046Y0040092D01*
X0053727Y0038894D02*
X0003560Y0038894D01*
X0003560Y0037695D02*
X0053727Y0037695D01*
X0053727Y0036497D02*
X0042221Y0036497D01*
X0042317Y0036466D02*
X0041628Y0036689D01*
X0040913Y0036803D01*
X0037951Y0036803D01*
X0037951Y0032603D01*
X0037151Y0032603D01*
X0037151Y0036803D01*
X0034189Y0036803D01*
X0033474Y0036689D01*
X0032785Y0036466D01*
X0032140Y0036137D01*
X0031554Y0035711D01*
X0031042Y0035199D01*
X0030617Y0034614D01*
X0030288Y0033968D01*
X0030064Y0033280D01*
X0029957Y0032603D01*
X0037151Y0032603D01*
X0037151Y0031803D01*
X0029957Y0031803D01*
X0030064Y0031125D01*
X0030288Y0030437D01*
X0030617Y0029792D01*
X0031042Y0029206D01*
X0031554Y0028694D01*
X0032140Y0028268D01*
X0032785Y0027940D01*
X0033474Y0027716D01*
X0034189Y0027603D01*
X0037151Y0027603D01*
X0037151Y0031803D01*
X0037951Y0031803D01*
X0037951Y0032603D01*
X0045145Y0032603D01*
X0045038Y0033280D01*
X0044814Y0033968D01*
X0044485Y0034614D01*
X0044060Y0035199D01*
X0043548Y0035711D01*
X0042962Y0036137D01*
X0042317Y0036466D01*
X0043961Y0035298D02*
X0053727Y0035298D01*
X0053727Y0034100D02*
X0044747Y0034100D01*
X0045098Y0032901D02*
X0053727Y0032901D01*
X0054111Y0031703D02*
X0045129Y0031703D01*
X0045145Y0031803D02*
X0037951Y0031803D01*
X0037951Y0027603D01*
X0040913Y0027603D01*
X0041628Y0027716D01*
X0042317Y0027940D01*
X0042962Y0028268D01*
X0043548Y0028694D01*
X0044060Y0029206D01*
X0044485Y0029792D01*
X0044814Y0030437D01*
X0045038Y0031125D01*
X0045145Y0031803D01*
X0044836Y0030504D02*
X0054861Y0030504D01*
X0056539Y0029306D02*
X0044132Y0029306D01*
X0042646Y0028107D02*
X0130267Y0028107D01*
X0130267Y0026909D02*
X0042255Y0026909D01*
X0041546Y0027203D02*
X0043383Y0026441D01*
X0044790Y0025035D01*
X0045551Y0023197D01*
X0045551Y0021208D01*
X0044790Y0019370D01*
X0043383Y0017964D01*
X0041546Y0017203D01*
X0033557Y0017203D01*
X0031719Y0017964D01*
X0030312Y0019370D01*
X0029551Y0021208D01*
X0029551Y0023197D01*
X0030312Y0025035D01*
X0031719Y0026441D01*
X0033557Y0027203D01*
X0041546Y0027203D01*
X0037951Y0028107D02*
X0037151Y0028107D01*
X0037151Y0029306D02*
X0037951Y0029306D01*
X0037951Y0030504D02*
X0037151Y0030504D01*
X0037151Y0031703D02*
X0037951Y0031703D01*
X0037951Y0032901D02*
X0037151Y0032901D01*
X0037151Y0034100D02*
X0037951Y0034100D01*
X0037951Y0035298D02*
X0037151Y0035298D01*
X0037151Y0036497D02*
X0037951Y0036497D01*
X0032881Y0036497D02*
X0003560Y0036497D01*
X0003560Y0035298D02*
X0031141Y0035298D01*
X0030355Y0034100D02*
X0003560Y0034100D01*
X0003560Y0032901D02*
X0030004Y0032901D01*
X0029973Y0031703D02*
X0003560Y0031703D01*
X0003560Y0030504D02*
X0030266Y0030504D01*
X0030970Y0029306D02*
X0003560Y0029306D01*
X0003560Y0028107D02*
X0032456Y0028107D01*
X0032847Y0026909D02*
X0003560Y0026909D01*
X0003560Y0025710D02*
X0030988Y0025710D01*
X0030096Y0024512D02*
X0003560Y0024512D01*
X0003560Y0023313D02*
X0029599Y0023313D01*
X0029551Y0022115D02*
X0017848Y0022115D01*
X0018781Y0021728D02*
X0015730Y0022992D01*
X0012429Y0022992D01*
X0009379Y0021728D01*
X0007044Y0019394D01*
X0005780Y0016344D01*
X0005780Y0013042D01*
X0007044Y0009992D01*
X0009379Y0007657D01*
X0012429Y0006394D01*
X0015730Y0006394D01*
X0018781Y0007657D01*
X0021115Y0009992D01*
X0022379Y0013042D01*
X0022379Y0016344D01*
X0021115Y0019394D01*
X0018781Y0021728D01*
X0019593Y0020916D02*
X0029672Y0020916D01*
X0030169Y0019718D02*
X0020792Y0019718D01*
X0021478Y0018519D02*
X0031164Y0018519D01*
X0031719Y0016441D02*
X0030312Y0015035D01*
X0029551Y0013197D01*
X0029551Y0011208D01*
X0030312Y0009370D01*
X0031719Y0007964D01*
X0033557Y0007203D01*
X0041546Y0007203D01*
X0043383Y0007964D01*
X0044790Y0009370D01*
X0045551Y0011208D01*
X0045551Y0013197D01*
X0044790Y0015035D01*
X0043383Y0016441D01*
X0041546Y0017203D01*
X0033557Y0017203D01*
X0031719Y0016441D01*
X0031400Y0016122D02*
X0022379Y0016122D01*
X0022379Y0014924D02*
X0030266Y0014924D01*
X0029770Y0013725D02*
X0022379Y0013725D01*
X0022165Y0012527D02*
X0029551Y0012527D01*
X0029551Y0011328D02*
X0021669Y0011328D01*
X0021173Y0010130D02*
X0029998Y0010130D01*
X0030752Y0008931D02*
X0020055Y0008931D01*
X0018856Y0007733D02*
X0032277Y0007733D01*
X0033272Y0017321D02*
X0021974Y0017321D01*
X0016070Y0006534D02*
X0167352Y0006534D01*
X0166629Y0007733D02*
X0042825Y0007733D01*
X0044351Y0008931D02*
X0166133Y0008931D01*
X0165702Y0010130D02*
X0081418Y0010130D01*
X0080933Y0009644D02*
X0082227Y0010938D01*
X0082927Y0012629D01*
X0082927Y0019659D01*
X0082227Y0021350D01*
X0080933Y0022644D01*
X0079242Y0023344D01*
X0077412Y0023344D01*
X0075721Y0022644D01*
X0074427Y0021350D01*
X0073727Y0019659D01*
X0073727Y0012629D01*
X0074427Y0010938D01*
X0075721Y0009644D01*
X0077412Y0008944D01*
X0079242Y0008944D01*
X0080933Y0009644D01*
X0082388Y0011328D02*
X0165702Y0011328D01*
X0165702Y0012527D02*
X0082885Y0012527D01*
X0082927Y0013725D02*
X0165889Y0013725D01*
X0166386Y0014924D02*
X0082927Y0014924D01*
X0082927Y0016122D02*
X0166882Y0016122D01*
X0167963Y0017321D02*
X0082927Y0017321D01*
X0082927Y0018519D02*
X0169161Y0018519D01*
X0170420Y0021840D02*
X0170420Y0024220D01*
X0173300Y0024220D01*
X0173300Y0026780D01*
X0178540Y0026780D01*
X0178540Y0027880D01*
X0190527Y0027880D01*
X0190527Y0031424D01*
X0181867Y0030644D02*
X0181867Y0041424D01*
X0190527Y0041424D01*
X0190527Y0051424D02*
X0179067Y0051424D01*
X0179067Y0033120D01*
X0171587Y0033120D01*
X0170527Y0029704D02*
X0170527Y0027244D01*
X0165711Y0027244D01*
X0162561Y0027244D02*
X0162561Y0036520D01*
X0171587Y0036270D02*
X0176687Y0036270D01*
X0176687Y0061424D01*
X0190527Y0061424D01*
X0197222Y0071254D02*
X0204269Y0071254D01*
X0204269Y0072452D02*
X0197279Y0072452D01*
X0196928Y0080842D02*
X0204270Y0080842D01*
X0204270Y0082040D02*
X0197279Y0082040D01*
X0197279Y0083239D02*
X0204270Y0083239D01*
X0204271Y0084437D02*
X0197279Y0084437D01*
X0197279Y0085636D02*
X0204271Y0085636D01*
X0204271Y0086834D02*
X0196900Y0086834D01*
X0193898Y0083239D02*
X0193129Y0083239D01*
X0193129Y0082040D02*
X0193898Y0082040D01*
X0193898Y0080842D02*
X0193129Y0080842D01*
X0189711Y0104812D02*
X0204272Y0104812D01*
X0204272Y0106010D02*
X0196771Y0106010D01*
X0196839Y0107209D02*
X0204273Y0107209D01*
X0204273Y0108408D02*
X0193458Y0108408D01*
X0193458Y0109606D02*
X0192689Y0109606D01*
X0192689Y0110805D02*
X0193458Y0110805D01*
X0193458Y0112003D02*
X0192689Y0112003D01*
X0190662Y0112003D02*
X0189784Y0112003D01*
X0192689Y0107209D02*
X0193458Y0107209D01*
X0193458Y0106010D02*
X0192689Y0106010D01*
X0196839Y0109606D02*
X0204273Y0109606D01*
X0204273Y0110805D02*
X0196790Y0110805D01*
X0195485Y0112003D02*
X0204273Y0112003D01*
X0167440Y0118764D02*
X0167223Y0118764D01*
X0155247Y0146688D02*
X0155047Y0146688D01*
X0119206Y0173127D02*
X0103928Y0173127D01*
X0105520Y0174326D02*
X0117614Y0174326D01*
X0114718Y0171929D02*
X0101367Y0171929D01*
X0101367Y0170730D02*
X0114459Y0170730D01*
X0114459Y0169532D02*
X0101367Y0169532D01*
X0096167Y0170730D02*
X0082592Y0170730D01*
X0076462Y0170730D02*
X0058630Y0170730D01*
X0056193Y0170730D02*
X0027852Y0170730D01*
X0026998Y0171584D02*
X0022856Y0171584D01*
X0019927Y0168655D01*
X0019927Y0164513D01*
X0020315Y0164125D01*
X0018974Y0164125D01*
X0019527Y0164679D01*
X0019527Y0166184D01*
X0015327Y0166184D01*
X0015327Y0166984D01*
X0014527Y0166984D01*
X0014527Y0171184D01*
X0013022Y0171184D01*
X0011060Y0169222D01*
X0011060Y0173380D01*
X0012856Y0171584D01*
X0016998Y0171584D01*
X0019927Y0174513D01*
X0019927Y0178655D01*
X0019927Y0174513D01*
X0022856Y0171584D01*
X0026998Y0171584D01*
X0027343Y0171929D02*
X0043003Y0171929D01*
X0042843Y0173127D02*
X0028541Y0173127D01*
X0029051Y0169532D02*
X0044313Y0169532D01*
X0043164Y0168333D02*
X0029927Y0168333D01*
X0029927Y0167135D02*
X0042668Y0167135D01*
X0042443Y0165936D02*
X0029927Y0165936D01*
X0029927Y0164738D02*
X0042443Y0164738D01*
X0042889Y0163539D02*
X0037424Y0163539D01*
X0035761Y0161525D02*
X0036721Y0160565D01*
X0063447Y0160565D01*
X0065349Y0162341D02*
X0115840Y0162341D01*
X0115840Y0161142D02*
X0066022Y0161142D01*
X0066047Y0159943D02*
X0115840Y0159943D01*
X0115840Y0158745D02*
X0066047Y0158745D01*
X0066047Y0157546D02*
X0115840Y0157546D01*
X0115840Y0156348D02*
X0089763Y0156348D01*
X0089981Y0155149D02*
X0115840Y0155149D01*
X0115840Y0153951D02*
X0089981Y0153951D01*
X0089981Y0152752D02*
X0115840Y0152752D01*
X0115840Y0151554D02*
X0089981Y0151554D01*
X0089826Y0150355D02*
X0099005Y0150355D01*
X0098639Y0149157D02*
X0088600Y0149157D01*
X0088600Y0147958D02*
X0098639Y0147958D01*
X0098639Y0146760D02*
X0088600Y0146760D01*
X0088600Y0145561D02*
X0098639Y0145561D01*
X0102620Y0147180D02*
X0118440Y0147180D01*
X0115840Y0150355D02*
X0106235Y0150355D01*
X0104920Y0138370D02*
X0104288Y0138370D01*
X0104288Y0137172D02*
X0104920Y0137172D01*
X0104920Y0135973D02*
X0104288Y0135973D01*
X0104288Y0134775D02*
X0104920Y0134775D01*
X0104920Y0133576D02*
X0103210Y0133576D01*
X0101878Y0132378D02*
X0104920Y0132378D01*
X0104920Y0131179D02*
X0003560Y0131179D01*
X0003560Y0129981D02*
X0104920Y0129981D01*
X0104920Y0128782D02*
X0003560Y0128782D01*
X0003560Y0127584D02*
X0104920Y0127584D01*
X0104920Y0126385D02*
X0003560Y0126385D01*
X0003560Y0125187D02*
X0104920Y0125187D01*
X0104920Y0123988D02*
X0003560Y0123988D01*
X0003560Y0122790D02*
X0105282Y0122790D01*
X0105399Y0121591D02*
X0003560Y0121591D01*
X0003560Y0120393D02*
X0106377Y0120393D01*
X0113361Y0125187D02*
X0113940Y0125187D01*
X0113940Y0126385D02*
X0113361Y0126385D01*
X0113940Y0127584D02*
X0112767Y0127584D01*
X0113940Y0128782D02*
X0110120Y0128782D01*
X0110120Y0129981D02*
X0113940Y0129981D01*
X0113582Y0131179D02*
X0110120Y0131179D01*
X0110120Y0132378D02*
X0110398Y0132378D01*
X0113621Y0134818D02*
X0116540Y0131899D01*
X0116540Y0110420D01*
X0113621Y0134818D02*
X0113621Y0135945D01*
X0100307Y0134484D02*
X0100307Y0137464D01*
X0100307Y0134484D02*
X0058531Y0134484D01*
X0047412Y0145603D01*
X0044022Y0141966D02*
X0003560Y0141966D01*
X0003560Y0143164D02*
X0043044Y0143164D01*
X0042547Y0144363D02*
X0003560Y0144363D01*
X0003560Y0145561D02*
X0042443Y0145561D01*
X0042513Y0146760D02*
X0003560Y0146760D01*
X0003560Y0147958D02*
X0043009Y0147958D01*
X0043939Y0149157D02*
X0003560Y0149157D01*
X0003560Y0150355D02*
X0045901Y0150355D01*
X0044434Y0151554D02*
X0003560Y0151554D01*
X0003560Y0152752D02*
X0011688Y0152752D01*
X0010606Y0153951D02*
X0003560Y0153951D01*
X0003560Y0155149D02*
X0010109Y0155149D01*
X0009927Y0156348D02*
X0003560Y0156348D01*
X0003560Y0157546D02*
X0009927Y0157546D01*
X0010410Y0158745D02*
X0003560Y0158745D01*
X0003560Y0159943D02*
X0006365Y0159943D01*
X0005860Y0161142D02*
X0003560Y0161142D01*
X0003560Y0162341D02*
X0005860Y0162341D01*
X0005860Y0163539D02*
X0003560Y0163539D01*
X0003560Y0164738D02*
X0005860Y0164738D01*
X0005860Y0165936D02*
X0003560Y0165936D01*
X0003560Y0167135D02*
X0005860Y0167135D01*
X0005860Y0168333D02*
X0003560Y0168333D01*
X0003560Y0169532D02*
X0005860Y0169532D01*
X0005860Y0170730D02*
X0003560Y0170730D01*
X0003560Y0171929D02*
X0005860Y0171929D01*
X0005860Y0173127D02*
X0003560Y0173127D01*
X0003560Y0174326D02*
X0005860Y0174326D01*
X0005860Y0175524D02*
X0003560Y0175524D01*
X0003560Y0176723D02*
X0005860Y0176723D01*
X0005860Y0177921D02*
X0003560Y0177921D01*
X0003560Y0179120D02*
X0005860Y0179120D01*
X0005860Y0180318D02*
X0003560Y0180318D01*
X0003560Y0181517D02*
X0005860Y0181517D01*
X0005860Y0182715D02*
X0003560Y0182715D01*
X0003560Y0183914D02*
X0005860Y0183914D01*
X0005860Y0185112D02*
X0003560Y0185112D01*
X0003560Y0186311D02*
X0006073Y0186311D01*
X0007048Y0187509D02*
X0003560Y0187509D01*
X0003560Y0188708D02*
X0009801Y0188708D01*
X0007917Y0189906D02*
X0003560Y0189906D01*
X0003560Y0191105D02*
X0006718Y0191105D01*
X0005974Y0192303D02*
X0003560Y0192303D01*
X0003560Y0193502D02*
X0005478Y0193502D01*
X0005032Y0194700D02*
X0003560Y0194700D01*
X0003560Y0195899D02*
X0005032Y0195899D01*
X0005032Y0197097D02*
X0003560Y0197097D01*
X0003560Y0198296D02*
X0005205Y0198296D01*
X0005702Y0199494D02*
X0003560Y0199494D01*
X0003560Y0200693D02*
X0006198Y0200693D01*
X0007258Y0201891D02*
X0003560Y0201891D01*
X0003560Y0203090D02*
X0008457Y0203090D01*
X0011104Y0204288D02*
X0003560Y0204288D01*
X0008460Y0185280D02*
X0028920Y0185280D01*
X0031067Y0182724D02*
X0014927Y0182724D01*
X0014927Y0176584D01*
X0018541Y0173127D02*
X0021313Y0173127D01*
X0022512Y0171929D02*
X0017343Y0171929D01*
X0016832Y0171184D02*
X0015327Y0171184D01*
X0015327Y0166984D01*
X0019527Y0166984D01*
X0019527Y0168489D01*
X0016832Y0171184D01*
X0017286Y0170730D02*
X0022002Y0170730D01*
X0020804Y0169532D02*
X0018485Y0169532D01*
X0019527Y0168333D02*
X0019927Y0168333D01*
X0019927Y0167135D02*
X0019527Y0167135D01*
X0019527Y0165936D02*
X0019927Y0165936D01*
X0019927Y0164738D02*
X0019527Y0164738D01*
X0015327Y0167135D02*
X0014527Y0167135D01*
X0014527Y0168333D02*
X0015327Y0168333D01*
X0015327Y0169532D02*
X0014527Y0169532D01*
X0014527Y0170730D02*
X0015327Y0170730D01*
X0012568Y0170730D02*
X0011060Y0170730D01*
X0011060Y0169532D02*
X0011369Y0169532D01*
X0011060Y0171929D02*
X0012512Y0171929D01*
X0011313Y0173127D02*
X0011060Y0173127D01*
X0018458Y0180124D02*
X0021396Y0180124D01*
X0019927Y0178655D01*
X0018458Y0180124D01*
X0019463Y0179120D02*
X0020392Y0179120D01*
X0019927Y0177921D02*
X0019927Y0177921D01*
X0019927Y0176723D02*
X0019927Y0176723D01*
X0019927Y0175524D02*
X0019927Y0175524D01*
X0019740Y0174326D02*
X0020114Y0174326D01*
X0024927Y0176584D02*
X0034820Y0176584D01*
X0038521Y0180285D01*
X0038635Y0176723D02*
X0042843Y0176723D01*
X0042843Y0174326D02*
X0036161Y0174326D01*
X0037437Y0175524D02*
X0047027Y0175524D01*
X0047331Y0175684D02*
X0047412Y0175603D01*
X0047796Y0175524D02*
X0052443Y0175524D01*
X0051980Y0175219D02*
X0047796Y0175219D01*
X0047796Y0171035D01*
X0050591Y0171035D01*
X0050998Y0171144D01*
X0051362Y0171354D01*
X0051660Y0171652D01*
X0051871Y0172017D01*
X0051980Y0172424D01*
X0051980Y0175219D01*
X0051980Y0174326D02*
X0052563Y0174326D01*
X0053059Y0173127D02*
X0051980Y0173127D01*
X0051820Y0171929D02*
X0054060Y0171929D01*
X0054313Y0169532D02*
X0050510Y0169532D01*
X0051659Y0168333D02*
X0053164Y0168333D01*
X0052668Y0167135D02*
X0052155Y0167135D01*
X0052380Y0165936D02*
X0052443Y0165936D01*
X0052443Y0164738D02*
X0052380Y0164738D01*
X0051934Y0163539D02*
X0052889Y0163539D01*
X0052839Y0157546D02*
X0051984Y0157546D01*
X0052380Y0156348D02*
X0052443Y0156348D01*
X0052443Y0155149D02*
X0052380Y0155149D01*
X0052105Y0153951D02*
X0052718Y0153951D01*
X0053236Y0152752D02*
X0051587Y0152752D01*
X0050389Y0151554D02*
X0054434Y0151554D01*
X0055901Y0150355D02*
X0048922Y0150355D01*
X0050884Y0149157D02*
X0053939Y0149157D01*
X0053009Y0147958D02*
X0051814Y0147958D01*
X0052310Y0146760D02*
X0052513Y0146760D01*
X0052443Y0145561D02*
X0052380Y0145561D01*
X0052329Y0144363D02*
X0052547Y0144363D01*
X0049769Y0139569D02*
X0003560Y0139569D01*
X0003560Y0140767D02*
X0046103Y0140767D01*
X0050968Y0138370D02*
X0003560Y0138370D01*
X0003560Y0137172D02*
X0052166Y0137172D01*
X0053365Y0135973D02*
X0003560Y0135973D01*
X0003560Y0134775D02*
X0054563Y0134775D01*
X0055762Y0133576D02*
X0003560Y0133576D01*
X0003560Y0132378D02*
X0056960Y0132378D01*
X0067428Y0137172D02*
X0096326Y0137172D01*
X0096326Y0138370D02*
X0067428Y0138370D01*
X0060847Y0150355D02*
X0058922Y0150355D01*
X0060389Y0151554D02*
X0060847Y0151554D01*
X0043236Y0152752D02*
X0028166Y0152752D01*
X0029365Y0153951D02*
X0042718Y0153951D01*
X0042443Y0155149D02*
X0029927Y0155149D01*
X0029927Y0156348D02*
X0042443Y0156348D01*
X0042839Y0157546D02*
X0029927Y0157546D01*
X0029837Y0158745D02*
X0034864Y0158745D01*
X0035761Y0161525D02*
X0008460Y0161525D01*
X0008460Y0185280D01*
X0019444Y0158745D02*
X0020017Y0158745D01*
X0019927Y0157546D02*
X0019927Y0157546D01*
X0019927Y0156348D02*
X0019927Y0156348D01*
X0019927Y0155149D02*
X0019745Y0155149D01*
X0019248Y0153951D02*
X0020489Y0153951D01*
X0021688Y0152752D02*
X0018166Y0152752D01*
X0047027Y0171929D02*
X0047796Y0171929D01*
X0047796Y0173127D02*
X0047027Y0173127D01*
X0047027Y0174326D02*
X0047796Y0174326D01*
X0051980Y0176723D02*
X0052497Y0176723D01*
X0051919Y0185224D02*
X0049281Y0185224D01*
X0049392Y0185335D01*
X0049817Y0185921D01*
X0050146Y0186566D01*
X0050370Y0187254D01*
X0050483Y0187969D01*
X0050483Y0190931D01*
X0046283Y0190931D01*
X0046283Y0191731D01*
X0050483Y0191731D01*
X0050483Y0194694D01*
X0050370Y0195409D01*
X0050146Y0196097D01*
X0050030Y0196324D01*
X0051296Y0196324D01*
X0050883Y0195326D01*
X0050883Y0187337D01*
X0051644Y0185499D01*
X0051919Y0185224D01*
X0051308Y0186311D02*
X0050016Y0186311D01*
X0050410Y0187509D02*
X0050883Y0187509D01*
X0050883Y0188708D02*
X0050483Y0188708D01*
X0050483Y0189906D02*
X0050883Y0189906D01*
X0050883Y0191105D02*
X0046283Y0191105D01*
X0045483Y0191105D02*
X0040883Y0191105D01*
X0041283Y0190931D02*
X0041283Y0187969D01*
X0041396Y0187254D01*
X0041620Y0186566D01*
X0041949Y0185921D01*
X0042374Y0185335D01*
X0042485Y0185224D01*
X0039847Y0185224D01*
X0040122Y0185499D01*
X0040883Y0187337D01*
X0040883Y0195326D01*
X0040470Y0196324D01*
X0041736Y0196324D01*
X0041620Y0196097D01*
X0041396Y0195409D01*
X0041283Y0194694D01*
X0041283Y0191731D01*
X0045483Y0191731D01*
X0045483Y0190931D01*
X0041283Y0190931D01*
X0041283Y0189906D02*
X0040883Y0189906D01*
X0040883Y0188708D02*
X0041283Y0188708D01*
X0041356Y0187509D02*
X0040883Y0187509D01*
X0040458Y0186311D02*
X0041750Y0186311D01*
X0041283Y0192303D02*
X0040883Y0192303D01*
X0040883Y0193502D02*
X0041283Y0193502D01*
X0041284Y0194700D02*
X0040883Y0194700D01*
X0040646Y0195899D02*
X0041556Y0195899D01*
X0050210Y0195899D02*
X0051120Y0195899D01*
X0050883Y0194700D02*
X0050482Y0194700D01*
X0050483Y0193502D02*
X0050883Y0193502D01*
X0050883Y0192303D02*
X0050483Y0192303D01*
X0123967Y0195899D02*
X0124767Y0195899D01*
X0124767Y0197097D02*
X0123967Y0197097D01*
X0123967Y0198296D02*
X0124767Y0198296D01*
X0124767Y0199494D02*
X0123967Y0199494D01*
X0078541Y0109405D02*
X0080301Y0107645D01*
X0080301Y0102184D01*
X0009640Y0102184D01*
X0026258Y0072904D02*
X0027562Y0072904D01*
X0027027Y0072369D01*
X0027027Y0070864D01*
X0031227Y0070864D01*
X0031227Y0070064D01*
X0027027Y0070064D01*
X0027027Y0068559D01*
X0027721Y0067865D01*
X0026099Y0067865D01*
X0026627Y0068393D01*
X0026627Y0072535D01*
X0026258Y0072904D01*
X0026627Y0072452D02*
X0027110Y0072452D01*
X0027027Y0071254D02*
X0026627Y0071254D01*
X0026627Y0070055D02*
X0027027Y0070055D01*
X0027027Y0068857D02*
X0026627Y0068857D01*
X0032027Y0070064D02*
X0032027Y0070864D01*
X0036227Y0070864D01*
X0036227Y0072369D01*
X0035692Y0072904D01*
X0040409Y0072904D01*
X0040027Y0071981D01*
X0040027Y0070947D01*
X0040127Y0070705D01*
X0040127Y0067865D01*
X0035534Y0067865D01*
X0036227Y0068559D01*
X0036227Y0070064D01*
X0032027Y0070064D01*
X0036227Y0070055D02*
X0040127Y0070055D01*
X0040127Y0068857D02*
X0036227Y0068857D01*
X0036227Y0071254D02*
X0040027Y0071254D01*
X0040222Y0072452D02*
X0036144Y0072452D01*
X0061087Y0042489D02*
X0065567Y0042489D01*
X0065721Y0042644D02*
X0064427Y0041350D01*
X0063727Y0039659D01*
X0063727Y0032629D01*
X0064427Y0030938D01*
X0065721Y0029644D01*
X0067412Y0028944D01*
X0069242Y0028944D01*
X0070933Y0029644D01*
X0072227Y0030938D01*
X0072927Y0032629D01*
X0072927Y0039659D01*
X0072227Y0041350D01*
X0070933Y0042644D01*
X0069242Y0043344D01*
X0067412Y0043344D01*
X0065721Y0042644D01*
X0064403Y0041291D02*
X0062251Y0041291D01*
X0062748Y0040092D02*
X0063907Y0040092D01*
X0063727Y0038894D02*
X0062927Y0038894D01*
X0062927Y0037695D02*
X0063727Y0037695D01*
X0063727Y0036497D02*
X0062927Y0036497D01*
X0062927Y0035298D02*
X0063727Y0035298D01*
X0063727Y0034100D02*
X0062927Y0034100D01*
X0062927Y0032901D02*
X0063727Y0032901D01*
X0064111Y0031703D02*
X0062543Y0031703D01*
X0061793Y0030504D02*
X0064861Y0030504D01*
X0066539Y0029306D02*
X0060115Y0029306D01*
X0059242Y0023344D02*
X0057412Y0023344D01*
X0055721Y0022644D01*
X0054427Y0021350D01*
X0053727Y0019659D01*
X0053727Y0012629D01*
X0054427Y0010938D01*
X0055721Y0009644D01*
X0057412Y0008944D01*
X0059242Y0008944D01*
X0060933Y0009644D01*
X0062227Y0010938D01*
X0062927Y0012629D01*
X0062927Y0019659D01*
X0062227Y0021350D01*
X0060933Y0022644D01*
X0059242Y0023344D01*
X0059317Y0023313D02*
X0067338Y0023313D01*
X0067412Y0023344D02*
X0065721Y0022644D01*
X0064427Y0021350D01*
X0063727Y0019659D01*
X0063727Y0012629D01*
X0064427Y0010938D01*
X0065721Y0009644D01*
X0067412Y0008944D01*
X0069242Y0008944D01*
X0070933Y0009644D01*
X0072227Y0010938D01*
X0072927Y0012629D01*
X0072927Y0019659D01*
X0072227Y0021350D01*
X0070933Y0022644D01*
X0069242Y0023344D01*
X0067412Y0023344D01*
X0069317Y0023313D02*
X0077338Y0023313D01*
X0079317Y0023313D02*
X0130267Y0023313D01*
X0130267Y0022115D02*
X0081462Y0022115D01*
X0082406Y0020916D02*
X0130436Y0020916D01*
X0131312Y0019718D02*
X0082903Y0019718D01*
X0075192Y0022115D02*
X0071462Y0022115D01*
X0072406Y0020916D02*
X0074248Y0020916D01*
X0073751Y0019718D02*
X0072903Y0019718D01*
X0072927Y0018519D02*
X0073727Y0018519D01*
X0073727Y0017321D02*
X0072927Y0017321D01*
X0072927Y0016122D02*
X0073727Y0016122D01*
X0073727Y0014924D02*
X0072927Y0014924D01*
X0072927Y0013725D02*
X0073727Y0013725D01*
X0073770Y0012527D02*
X0072885Y0012527D01*
X0072388Y0011328D02*
X0074266Y0011328D01*
X0075236Y0010130D02*
X0071418Y0010130D01*
X0065236Y0010130D02*
X0061418Y0010130D01*
X0062388Y0011328D02*
X0064266Y0011328D01*
X0063770Y0012527D02*
X0062885Y0012527D01*
X0062927Y0013725D02*
X0063727Y0013725D01*
X0063727Y0014924D02*
X0062927Y0014924D01*
X0062927Y0016122D02*
X0063727Y0016122D01*
X0063727Y0017321D02*
X0062927Y0017321D01*
X0062927Y0018519D02*
X0063727Y0018519D01*
X0063751Y0019718D02*
X0062903Y0019718D01*
X0062406Y0020916D02*
X0064248Y0020916D01*
X0065192Y0022115D02*
X0061462Y0022115D01*
X0057338Y0023313D02*
X0045503Y0023313D01*
X0045551Y0022115D02*
X0055192Y0022115D01*
X0054248Y0020916D02*
X0045430Y0020916D01*
X0044934Y0019718D02*
X0053751Y0019718D01*
X0053727Y0018519D02*
X0043939Y0018519D01*
X0043703Y0016122D02*
X0053727Y0016122D01*
X0053727Y0014924D02*
X0044836Y0014924D01*
X0045333Y0013725D02*
X0053727Y0013725D01*
X0053770Y0012527D02*
X0045551Y0012527D01*
X0045551Y0011328D02*
X0054266Y0011328D01*
X0055236Y0010130D02*
X0045104Y0010130D01*
X0041831Y0017321D02*
X0053727Y0017321D01*
X0045007Y0024512D02*
X0130267Y0024512D01*
X0130267Y0025710D02*
X0044115Y0025710D01*
X0070115Y0029306D02*
X0076539Y0029306D01*
X0075721Y0029644D02*
X0077412Y0028944D01*
X0079242Y0028944D01*
X0080933Y0029644D01*
X0082227Y0030938D01*
X0082927Y0032629D01*
X0082927Y0039659D01*
X0082227Y0041350D01*
X0080933Y0042644D01*
X0079242Y0043344D01*
X0077412Y0043344D01*
X0075721Y0042644D01*
X0074427Y0041350D01*
X0073727Y0039659D01*
X0073727Y0032629D01*
X0074427Y0030938D01*
X0075721Y0029644D01*
X0074861Y0030504D02*
X0071793Y0030504D01*
X0072543Y0031703D02*
X0074111Y0031703D01*
X0073727Y0032901D02*
X0072927Y0032901D01*
X0072927Y0034100D02*
X0073727Y0034100D01*
X0073727Y0035298D02*
X0072927Y0035298D01*
X0072927Y0036497D02*
X0073727Y0036497D01*
X0073727Y0037695D02*
X0072927Y0037695D01*
X0072927Y0038894D02*
X0073727Y0038894D01*
X0073907Y0040092D02*
X0072748Y0040092D01*
X0072251Y0041291D02*
X0074403Y0041291D01*
X0075567Y0042489D02*
X0071087Y0042489D01*
X0081087Y0042489D02*
X0130267Y0042489D01*
X0130267Y0041291D02*
X0082251Y0041291D01*
X0082748Y0040092D02*
X0130267Y0040092D01*
X0130267Y0038894D02*
X0082927Y0038894D01*
X0082927Y0037695D02*
X0130267Y0037695D01*
X0130267Y0036497D02*
X0082927Y0036497D01*
X0082927Y0035298D02*
X0130267Y0035298D01*
X0130267Y0034100D02*
X0082927Y0034100D01*
X0082927Y0032901D02*
X0130267Y0032901D01*
X0130267Y0031703D02*
X0082543Y0031703D01*
X0081793Y0030504D02*
X0130267Y0030504D01*
X0130267Y0029306D02*
X0080115Y0029306D01*
X0132867Y0021840D02*
X0170420Y0021840D01*
X0172852Y0020916D02*
X0182950Y0020916D01*
X0182979Y0022115D02*
X0174872Y0022115D01*
X0175739Y0023313D02*
X0183327Y0023313D01*
X0184109Y0024512D02*
X0179858Y0024512D01*
X0183245Y0019718D02*
X0176143Y0019718D01*
X0178841Y0018519D02*
X0183952Y0018519D01*
X0185448Y0017321D02*
X0180039Y0017321D01*
X0181120Y0016122D02*
X0185804Y0016122D01*
X0183956Y0014924D02*
X0181616Y0014924D01*
X0182113Y0013725D02*
X0183068Y0013725D01*
X0182572Y0012527D02*
X0182300Y0012527D01*
X0182300Y0011328D02*
X0182527Y0011328D01*
X0182651Y0010130D02*
X0182300Y0010130D01*
X0181869Y0008931D02*
X0183148Y0008931D01*
X0184148Y0007733D02*
X0181373Y0007733D01*
X0180650Y0006534D02*
X0186267Y0006534D01*
X0179451Y0005336D02*
X0204263Y0005336D01*
X0204263Y0004137D02*
X0177618Y0004137D01*
X0170384Y0004137D02*
X0003560Y0004137D01*
X0003560Y0005336D02*
X0168550Y0005336D01*
X0170527Y0029704D02*
X0176247Y0029704D01*
X0176247Y0030644D01*
X0181867Y0030644D01*
X0137787Y0045719D02*
X0132867Y0045719D01*
X0132867Y0021840D01*
X0164728Y0086834D02*
X0164749Y0086834D01*
X0012090Y0006534D02*
X0003560Y0006534D01*
X0003560Y0007733D02*
X0009303Y0007733D01*
X0008105Y0008931D02*
X0003560Y0008931D01*
X0003560Y0010130D02*
X0006987Y0010130D01*
X0006490Y0011328D02*
X0003560Y0011328D01*
X0003560Y0012527D02*
X0005994Y0012527D01*
X0005780Y0013725D02*
X0003560Y0013725D01*
X0003560Y0014924D02*
X0005780Y0014924D01*
X0005780Y0016122D02*
X0003560Y0016122D01*
X0003560Y0017321D02*
X0006185Y0017321D01*
X0006682Y0018519D02*
X0003560Y0018519D01*
X0003560Y0019718D02*
X0007368Y0019718D01*
X0008566Y0020916D02*
X0003560Y0020916D01*
X0003560Y0022115D02*
X0010311Y0022115D01*
D22*
X0049740Y0043580D03*
X0049747Y0043584D03*
X0078541Y0109405D03*
X0063447Y0139284D03*
X0086000Y0153320D03*
X0079527Y0167004D03*
X0102620Y0147180D03*
X0100307Y0137464D03*
X0113621Y0135945D03*
X0117267Y0142804D03*
X0109380Y0124180D03*
X0124467Y0121284D03*
X0143281Y0116789D03*
X0116661Y0101745D03*
X0160747Y0088564D03*
X0181987Y0127784D03*
X0172700Y0131180D03*
X0170580Y0142500D03*
X0146101Y0150905D03*
X0118440Y0168860D03*
D23*
X0090247Y0180285D02*
X0038521Y0180285D01*
X0031067Y0182724D02*
X0088287Y0182724D01*
X0090247Y0180524D02*
X0090247Y0180285D01*
X0042627Y0071464D02*
X0042627Y0065365D01*
X0026528Y0065365D01*
X0021627Y0060464D01*
X0031627Y0060464D02*
X0046327Y0060464D01*
X0046327Y0068204D01*
M02*
