G75*
%MOIN*%
%OFA0B0*%
%FSLAX25Y25*%
%IPPOS*%
%LPD*%
%AMOC8*
5,1,8,0,0,1.08239X$1,22.5*
%
%ADD10C,0.00000*%
%ADD11C,0.01000*%
%ADD12C,0.01200*%
D10*
X0001560Y0001740D02*
X0001560Y0038748D01*
X0001560Y0041110D01*
X0001560Y0206424D01*
X0041717Y0206463D01*
X0041324Y0206464D01*
X0206284Y0206464D01*
X0206281Y0204924D01*
X0206263Y0001746D01*
X0001560Y0001740D01*
X0007781Y0014693D02*
X0007783Y0014851D01*
X0007789Y0015009D01*
X0007799Y0015167D01*
X0007813Y0015325D01*
X0007831Y0015482D01*
X0007852Y0015639D01*
X0007878Y0015795D01*
X0007908Y0015951D01*
X0007941Y0016106D01*
X0007979Y0016259D01*
X0008020Y0016412D01*
X0008065Y0016564D01*
X0008114Y0016715D01*
X0008167Y0016864D01*
X0008223Y0017012D01*
X0008283Y0017158D01*
X0008347Y0017303D01*
X0008415Y0017446D01*
X0008486Y0017588D01*
X0008560Y0017728D01*
X0008638Y0017865D01*
X0008720Y0018001D01*
X0008804Y0018135D01*
X0008893Y0018266D01*
X0008984Y0018395D01*
X0009079Y0018522D01*
X0009176Y0018647D01*
X0009277Y0018769D01*
X0009381Y0018888D01*
X0009488Y0019005D01*
X0009598Y0019119D01*
X0009711Y0019230D01*
X0009826Y0019339D01*
X0009944Y0019444D01*
X0010065Y0019546D01*
X0010188Y0019646D01*
X0010314Y0019742D01*
X0010442Y0019835D01*
X0010572Y0019925D01*
X0010705Y0020011D01*
X0010840Y0020095D01*
X0010976Y0020174D01*
X0011115Y0020251D01*
X0011256Y0020323D01*
X0011398Y0020393D01*
X0011542Y0020458D01*
X0011688Y0020520D01*
X0011835Y0020578D01*
X0011984Y0020633D01*
X0012134Y0020684D01*
X0012285Y0020731D01*
X0012437Y0020774D01*
X0012590Y0020813D01*
X0012745Y0020849D01*
X0012900Y0020880D01*
X0013056Y0020908D01*
X0013212Y0020932D01*
X0013369Y0020952D01*
X0013527Y0020968D01*
X0013684Y0020980D01*
X0013843Y0020988D01*
X0014001Y0020992D01*
X0014159Y0020992D01*
X0014317Y0020988D01*
X0014476Y0020980D01*
X0014633Y0020968D01*
X0014791Y0020952D01*
X0014948Y0020932D01*
X0015104Y0020908D01*
X0015260Y0020880D01*
X0015415Y0020849D01*
X0015570Y0020813D01*
X0015723Y0020774D01*
X0015875Y0020731D01*
X0016026Y0020684D01*
X0016176Y0020633D01*
X0016325Y0020578D01*
X0016472Y0020520D01*
X0016618Y0020458D01*
X0016762Y0020393D01*
X0016904Y0020323D01*
X0017045Y0020251D01*
X0017184Y0020174D01*
X0017320Y0020095D01*
X0017455Y0020011D01*
X0017588Y0019925D01*
X0017718Y0019835D01*
X0017846Y0019742D01*
X0017972Y0019646D01*
X0018095Y0019546D01*
X0018216Y0019444D01*
X0018334Y0019339D01*
X0018449Y0019230D01*
X0018562Y0019119D01*
X0018672Y0019005D01*
X0018779Y0018888D01*
X0018883Y0018769D01*
X0018984Y0018647D01*
X0019081Y0018522D01*
X0019176Y0018395D01*
X0019267Y0018266D01*
X0019356Y0018135D01*
X0019440Y0018001D01*
X0019522Y0017865D01*
X0019600Y0017728D01*
X0019674Y0017588D01*
X0019745Y0017446D01*
X0019813Y0017303D01*
X0019877Y0017158D01*
X0019937Y0017012D01*
X0019993Y0016864D01*
X0020046Y0016715D01*
X0020095Y0016564D01*
X0020140Y0016412D01*
X0020181Y0016259D01*
X0020219Y0016106D01*
X0020252Y0015951D01*
X0020282Y0015795D01*
X0020308Y0015639D01*
X0020329Y0015482D01*
X0020347Y0015325D01*
X0020361Y0015167D01*
X0020371Y0015009D01*
X0020377Y0014851D01*
X0020379Y0014693D01*
X0020377Y0014535D01*
X0020371Y0014377D01*
X0020361Y0014219D01*
X0020347Y0014061D01*
X0020329Y0013904D01*
X0020308Y0013747D01*
X0020282Y0013591D01*
X0020252Y0013435D01*
X0020219Y0013280D01*
X0020181Y0013127D01*
X0020140Y0012974D01*
X0020095Y0012822D01*
X0020046Y0012671D01*
X0019993Y0012522D01*
X0019937Y0012374D01*
X0019877Y0012228D01*
X0019813Y0012083D01*
X0019745Y0011940D01*
X0019674Y0011798D01*
X0019600Y0011658D01*
X0019522Y0011521D01*
X0019440Y0011385D01*
X0019356Y0011251D01*
X0019267Y0011120D01*
X0019176Y0010991D01*
X0019081Y0010864D01*
X0018984Y0010739D01*
X0018883Y0010617D01*
X0018779Y0010498D01*
X0018672Y0010381D01*
X0018562Y0010267D01*
X0018449Y0010156D01*
X0018334Y0010047D01*
X0018216Y0009942D01*
X0018095Y0009840D01*
X0017972Y0009740D01*
X0017846Y0009644D01*
X0017718Y0009551D01*
X0017588Y0009461D01*
X0017455Y0009375D01*
X0017320Y0009291D01*
X0017184Y0009212D01*
X0017045Y0009135D01*
X0016904Y0009063D01*
X0016762Y0008993D01*
X0016618Y0008928D01*
X0016472Y0008866D01*
X0016325Y0008808D01*
X0016176Y0008753D01*
X0016026Y0008702D01*
X0015875Y0008655D01*
X0015723Y0008612D01*
X0015570Y0008573D01*
X0015415Y0008537D01*
X0015260Y0008506D01*
X0015104Y0008478D01*
X0014948Y0008454D01*
X0014791Y0008434D01*
X0014633Y0008418D01*
X0014476Y0008406D01*
X0014317Y0008398D01*
X0014159Y0008394D01*
X0014001Y0008394D01*
X0013843Y0008398D01*
X0013684Y0008406D01*
X0013527Y0008418D01*
X0013369Y0008434D01*
X0013212Y0008454D01*
X0013056Y0008478D01*
X0012900Y0008506D01*
X0012745Y0008537D01*
X0012590Y0008573D01*
X0012437Y0008612D01*
X0012285Y0008655D01*
X0012134Y0008702D01*
X0011984Y0008753D01*
X0011835Y0008808D01*
X0011688Y0008866D01*
X0011542Y0008928D01*
X0011398Y0008993D01*
X0011256Y0009063D01*
X0011115Y0009135D01*
X0010976Y0009212D01*
X0010840Y0009291D01*
X0010705Y0009375D01*
X0010572Y0009461D01*
X0010442Y0009551D01*
X0010314Y0009644D01*
X0010188Y0009740D01*
X0010065Y0009840D01*
X0009944Y0009942D01*
X0009826Y0010047D01*
X0009711Y0010156D01*
X0009598Y0010267D01*
X0009488Y0010381D01*
X0009381Y0010498D01*
X0009277Y0010617D01*
X0009176Y0010739D01*
X0009079Y0010864D01*
X0008984Y0010991D01*
X0008893Y0011120D01*
X0008804Y0011251D01*
X0008720Y0011385D01*
X0008638Y0011521D01*
X0008560Y0011658D01*
X0008486Y0011798D01*
X0008415Y0011940D01*
X0008347Y0012083D01*
X0008283Y0012228D01*
X0008223Y0012374D01*
X0008167Y0012522D01*
X0008114Y0012671D01*
X0008065Y0012822D01*
X0008020Y0012974D01*
X0007979Y0013127D01*
X0007941Y0013280D01*
X0007908Y0013435D01*
X0007878Y0013591D01*
X0007852Y0013747D01*
X0007831Y0013904D01*
X0007813Y0014061D01*
X0007799Y0014219D01*
X0007789Y0014377D01*
X0007783Y0014535D01*
X0007781Y0014693D01*
X0167702Y0011622D02*
X0167704Y0011780D01*
X0167710Y0011938D01*
X0167720Y0012096D01*
X0167734Y0012254D01*
X0167752Y0012411D01*
X0167773Y0012568D01*
X0167799Y0012724D01*
X0167829Y0012880D01*
X0167862Y0013035D01*
X0167900Y0013188D01*
X0167941Y0013341D01*
X0167986Y0013493D01*
X0168035Y0013644D01*
X0168088Y0013793D01*
X0168144Y0013941D01*
X0168204Y0014087D01*
X0168268Y0014232D01*
X0168336Y0014375D01*
X0168407Y0014517D01*
X0168481Y0014657D01*
X0168559Y0014794D01*
X0168641Y0014930D01*
X0168725Y0015064D01*
X0168814Y0015195D01*
X0168905Y0015324D01*
X0169000Y0015451D01*
X0169097Y0015576D01*
X0169198Y0015698D01*
X0169302Y0015817D01*
X0169409Y0015934D01*
X0169519Y0016048D01*
X0169632Y0016159D01*
X0169747Y0016268D01*
X0169865Y0016373D01*
X0169986Y0016475D01*
X0170109Y0016575D01*
X0170235Y0016671D01*
X0170363Y0016764D01*
X0170493Y0016854D01*
X0170626Y0016940D01*
X0170761Y0017024D01*
X0170897Y0017103D01*
X0171036Y0017180D01*
X0171177Y0017252D01*
X0171319Y0017322D01*
X0171463Y0017387D01*
X0171609Y0017449D01*
X0171756Y0017507D01*
X0171905Y0017562D01*
X0172055Y0017613D01*
X0172206Y0017660D01*
X0172358Y0017703D01*
X0172511Y0017742D01*
X0172666Y0017778D01*
X0172821Y0017809D01*
X0172977Y0017837D01*
X0173133Y0017861D01*
X0173290Y0017881D01*
X0173448Y0017897D01*
X0173605Y0017909D01*
X0173764Y0017917D01*
X0173922Y0017921D01*
X0174080Y0017921D01*
X0174238Y0017917D01*
X0174397Y0017909D01*
X0174554Y0017897D01*
X0174712Y0017881D01*
X0174869Y0017861D01*
X0175025Y0017837D01*
X0175181Y0017809D01*
X0175336Y0017778D01*
X0175491Y0017742D01*
X0175644Y0017703D01*
X0175796Y0017660D01*
X0175947Y0017613D01*
X0176097Y0017562D01*
X0176246Y0017507D01*
X0176393Y0017449D01*
X0176539Y0017387D01*
X0176683Y0017322D01*
X0176825Y0017252D01*
X0176966Y0017180D01*
X0177105Y0017103D01*
X0177241Y0017024D01*
X0177376Y0016940D01*
X0177509Y0016854D01*
X0177639Y0016764D01*
X0177767Y0016671D01*
X0177893Y0016575D01*
X0178016Y0016475D01*
X0178137Y0016373D01*
X0178255Y0016268D01*
X0178370Y0016159D01*
X0178483Y0016048D01*
X0178593Y0015934D01*
X0178700Y0015817D01*
X0178804Y0015698D01*
X0178905Y0015576D01*
X0179002Y0015451D01*
X0179097Y0015324D01*
X0179188Y0015195D01*
X0179277Y0015064D01*
X0179361Y0014930D01*
X0179443Y0014794D01*
X0179521Y0014657D01*
X0179595Y0014517D01*
X0179666Y0014375D01*
X0179734Y0014232D01*
X0179798Y0014087D01*
X0179858Y0013941D01*
X0179914Y0013793D01*
X0179967Y0013644D01*
X0180016Y0013493D01*
X0180061Y0013341D01*
X0180102Y0013188D01*
X0180140Y0013035D01*
X0180173Y0012880D01*
X0180203Y0012724D01*
X0180229Y0012568D01*
X0180250Y0012411D01*
X0180268Y0012254D01*
X0180282Y0012096D01*
X0180292Y0011938D01*
X0180298Y0011780D01*
X0180300Y0011622D01*
X0180298Y0011464D01*
X0180292Y0011306D01*
X0180282Y0011148D01*
X0180268Y0010990D01*
X0180250Y0010833D01*
X0180229Y0010676D01*
X0180203Y0010520D01*
X0180173Y0010364D01*
X0180140Y0010209D01*
X0180102Y0010056D01*
X0180061Y0009903D01*
X0180016Y0009751D01*
X0179967Y0009600D01*
X0179914Y0009451D01*
X0179858Y0009303D01*
X0179798Y0009157D01*
X0179734Y0009012D01*
X0179666Y0008869D01*
X0179595Y0008727D01*
X0179521Y0008587D01*
X0179443Y0008450D01*
X0179361Y0008314D01*
X0179277Y0008180D01*
X0179188Y0008049D01*
X0179097Y0007920D01*
X0179002Y0007793D01*
X0178905Y0007668D01*
X0178804Y0007546D01*
X0178700Y0007427D01*
X0178593Y0007310D01*
X0178483Y0007196D01*
X0178370Y0007085D01*
X0178255Y0006976D01*
X0178137Y0006871D01*
X0178016Y0006769D01*
X0177893Y0006669D01*
X0177767Y0006573D01*
X0177639Y0006480D01*
X0177509Y0006390D01*
X0177376Y0006304D01*
X0177241Y0006220D01*
X0177105Y0006141D01*
X0176966Y0006064D01*
X0176825Y0005992D01*
X0176683Y0005922D01*
X0176539Y0005857D01*
X0176393Y0005795D01*
X0176246Y0005737D01*
X0176097Y0005682D01*
X0175947Y0005631D01*
X0175796Y0005584D01*
X0175644Y0005541D01*
X0175491Y0005502D01*
X0175336Y0005466D01*
X0175181Y0005435D01*
X0175025Y0005407D01*
X0174869Y0005383D01*
X0174712Y0005363D01*
X0174554Y0005347D01*
X0174397Y0005335D01*
X0174238Y0005327D01*
X0174080Y0005323D01*
X0173922Y0005323D01*
X0173764Y0005327D01*
X0173605Y0005335D01*
X0173448Y0005347D01*
X0173290Y0005363D01*
X0173133Y0005383D01*
X0172977Y0005407D01*
X0172821Y0005435D01*
X0172666Y0005466D01*
X0172511Y0005502D01*
X0172358Y0005541D01*
X0172206Y0005584D01*
X0172055Y0005631D01*
X0171905Y0005682D01*
X0171756Y0005737D01*
X0171609Y0005795D01*
X0171463Y0005857D01*
X0171319Y0005922D01*
X0171177Y0005992D01*
X0171036Y0006064D01*
X0170897Y0006141D01*
X0170761Y0006220D01*
X0170626Y0006304D01*
X0170493Y0006390D01*
X0170363Y0006480D01*
X0170235Y0006573D01*
X0170109Y0006669D01*
X0169986Y0006769D01*
X0169865Y0006871D01*
X0169747Y0006976D01*
X0169632Y0007085D01*
X0169519Y0007196D01*
X0169409Y0007310D01*
X0169302Y0007427D01*
X0169198Y0007546D01*
X0169097Y0007668D01*
X0169000Y0007793D01*
X0168905Y0007920D01*
X0168814Y0008049D01*
X0168725Y0008180D01*
X0168641Y0008314D01*
X0168559Y0008450D01*
X0168481Y0008587D01*
X0168407Y0008727D01*
X0168336Y0008869D01*
X0168268Y0009012D01*
X0168204Y0009157D01*
X0168144Y0009303D01*
X0168088Y0009451D01*
X0168035Y0009600D01*
X0167986Y0009751D01*
X0167941Y0009903D01*
X0167900Y0010056D01*
X0167862Y0010209D01*
X0167829Y0010364D01*
X0167799Y0010520D01*
X0167773Y0010676D01*
X0167752Y0010833D01*
X0167734Y0010990D01*
X0167720Y0011148D01*
X0167710Y0011306D01*
X0167704Y0011464D01*
X0167702Y0011622D01*
X0187426Y0195834D02*
X0187428Y0195992D01*
X0187434Y0196150D01*
X0187444Y0196308D01*
X0187458Y0196466D01*
X0187476Y0196623D01*
X0187497Y0196780D01*
X0187523Y0196936D01*
X0187553Y0197092D01*
X0187586Y0197247D01*
X0187624Y0197400D01*
X0187665Y0197553D01*
X0187710Y0197705D01*
X0187759Y0197856D01*
X0187812Y0198005D01*
X0187868Y0198153D01*
X0187928Y0198299D01*
X0187992Y0198444D01*
X0188060Y0198587D01*
X0188131Y0198729D01*
X0188205Y0198869D01*
X0188283Y0199006D01*
X0188365Y0199142D01*
X0188449Y0199276D01*
X0188538Y0199407D01*
X0188629Y0199536D01*
X0188724Y0199663D01*
X0188821Y0199788D01*
X0188922Y0199910D01*
X0189026Y0200029D01*
X0189133Y0200146D01*
X0189243Y0200260D01*
X0189356Y0200371D01*
X0189471Y0200480D01*
X0189589Y0200585D01*
X0189710Y0200687D01*
X0189833Y0200787D01*
X0189959Y0200883D01*
X0190087Y0200976D01*
X0190217Y0201066D01*
X0190350Y0201152D01*
X0190485Y0201236D01*
X0190621Y0201315D01*
X0190760Y0201392D01*
X0190901Y0201464D01*
X0191043Y0201534D01*
X0191187Y0201599D01*
X0191333Y0201661D01*
X0191480Y0201719D01*
X0191629Y0201774D01*
X0191779Y0201825D01*
X0191930Y0201872D01*
X0192082Y0201915D01*
X0192235Y0201954D01*
X0192390Y0201990D01*
X0192545Y0202021D01*
X0192701Y0202049D01*
X0192857Y0202073D01*
X0193014Y0202093D01*
X0193172Y0202109D01*
X0193329Y0202121D01*
X0193488Y0202129D01*
X0193646Y0202133D01*
X0193804Y0202133D01*
X0193962Y0202129D01*
X0194121Y0202121D01*
X0194278Y0202109D01*
X0194436Y0202093D01*
X0194593Y0202073D01*
X0194749Y0202049D01*
X0194905Y0202021D01*
X0195060Y0201990D01*
X0195215Y0201954D01*
X0195368Y0201915D01*
X0195520Y0201872D01*
X0195671Y0201825D01*
X0195821Y0201774D01*
X0195970Y0201719D01*
X0196117Y0201661D01*
X0196263Y0201599D01*
X0196407Y0201534D01*
X0196549Y0201464D01*
X0196690Y0201392D01*
X0196829Y0201315D01*
X0196965Y0201236D01*
X0197100Y0201152D01*
X0197233Y0201066D01*
X0197363Y0200976D01*
X0197491Y0200883D01*
X0197617Y0200787D01*
X0197740Y0200687D01*
X0197861Y0200585D01*
X0197979Y0200480D01*
X0198094Y0200371D01*
X0198207Y0200260D01*
X0198317Y0200146D01*
X0198424Y0200029D01*
X0198528Y0199910D01*
X0198629Y0199788D01*
X0198726Y0199663D01*
X0198821Y0199536D01*
X0198912Y0199407D01*
X0199001Y0199276D01*
X0199085Y0199142D01*
X0199167Y0199006D01*
X0199245Y0198869D01*
X0199319Y0198729D01*
X0199390Y0198587D01*
X0199458Y0198444D01*
X0199522Y0198299D01*
X0199582Y0198153D01*
X0199638Y0198005D01*
X0199691Y0197856D01*
X0199740Y0197705D01*
X0199785Y0197553D01*
X0199826Y0197400D01*
X0199864Y0197247D01*
X0199897Y0197092D01*
X0199927Y0196936D01*
X0199953Y0196780D01*
X0199974Y0196623D01*
X0199992Y0196466D01*
X0200006Y0196308D01*
X0200016Y0196150D01*
X0200022Y0195992D01*
X0200024Y0195834D01*
X0200022Y0195676D01*
X0200016Y0195518D01*
X0200006Y0195360D01*
X0199992Y0195202D01*
X0199974Y0195045D01*
X0199953Y0194888D01*
X0199927Y0194732D01*
X0199897Y0194576D01*
X0199864Y0194421D01*
X0199826Y0194268D01*
X0199785Y0194115D01*
X0199740Y0193963D01*
X0199691Y0193812D01*
X0199638Y0193663D01*
X0199582Y0193515D01*
X0199522Y0193369D01*
X0199458Y0193224D01*
X0199390Y0193081D01*
X0199319Y0192939D01*
X0199245Y0192799D01*
X0199167Y0192662D01*
X0199085Y0192526D01*
X0199001Y0192392D01*
X0198912Y0192261D01*
X0198821Y0192132D01*
X0198726Y0192005D01*
X0198629Y0191880D01*
X0198528Y0191758D01*
X0198424Y0191639D01*
X0198317Y0191522D01*
X0198207Y0191408D01*
X0198094Y0191297D01*
X0197979Y0191188D01*
X0197861Y0191083D01*
X0197740Y0190981D01*
X0197617Y0190881D01*
X0197491Y0190785D01*
X0197363Y0190692D01*
X0197233Y0190602D01*
X0197100Y0190516D01*
X0196965Y0190432D01*
X0196829Y0190353D01*
X0196690Y0190276D01*
X0196549Y0190204D01*
X0196407Y0190134D01*
X0196263Y0190069D01*
X0196117Y0190007D01*
X0195970Y0189949D01*
X0195821Y0189894D01*
X0195671Y0189843D01*
X0195520Y0189796D01*
X0195368Y0189753D01*
X0195215Y0189714D01*
X0195060Y0189678D01*
X0194905Y0189647D01*
X0194749Y0189619D01*
X0194593Y0189595D01*
X0194436Y0189575D01*
X0194278Y0189559D01*
X0194121Y0189547D01*
X0193962Y0189539D01*
X0193804Y0189535D01*
X0193646Y0189535D01*
X0193488Y0189539D01*
X0193329Y0189547D01*
X0193172Y0189559D01*
X0193014Y0189575D01*
X0192857Y0189595D01*
X0192701Y0189619D01*
X0192545Y0189647D01*
X0192390Y0189678D01*
X0192235Y0189714D01*
X0192082Y0189753D01*
X0191930Y0189796D01*
X0191779Y0189843D01*
X0191629Y0189894D01*
X0191480Y0189949D01*
X0191333Y0190007D01*
X0191187Y0190069D01*
X0191043Y0190134D01*
X0190901Y0190204D01*
X0190760Y0190276D01*
X0190621Y0190353D01*
X0190485Y0190432D01*
X0190350Y0190516D01*
X0190217Y0190602D01*
X0190087Y0190692D01*
X0189959Y0190785D01*
X0189833Y0190881D01*
X0189710Y0190981D01*
X0189589Y0191083D01*
X0189471Y0191188D01*
X0189356Y0191297D01*
X0189243Y0191408D01*
X0189133Y0191522D01*
X0189026Y0191639D01*
X0188922Y0191758D01*
X0188821Y0191880D01*
X0188724Y0192005D01*
X0188629Y0192132D01*
X0188538Y0192261D01*
X0188449Y0192392D01*
X0188365Y0192526D01*
X0188283Y0192662D01*
X0188205Y0192799D01*
X0188131Y0192939D01*
X0188060Y0193081D01*
X0187992Y0193224D01*
X0187928Y0193369D01*
X0187868Y0193515D01*
X0187812Y0193663D01*
X0187759Y0193812D01*
X0187710Y0193963D01*
X0187665Y0194115D01*
X0187624Y0194268D01*
X0187586Y0194421D01*
X0187553Y0194576D01*
X0187523Y0194732D01*
X0187497Y0194888D01*
X0187476Y0195045D01*
X0187458Y0195202D01*
X0187444Y0195360D01*
X0187434Y0195518D01*
X0187428Y0195676D01*
X0187426Y0195834D01*
X0007033Y0196228D02*
X0007035Y0196386D01*
X0007041Y0196544D01*
X0007051Y0196702D01*
X0007065Y0196860D01*
X0007083Y0197017D01*
X0007104Y0197174D01*
X0007130Y0197330D01*
X0007160Y0197486D01*
X0007193Y0197641D01*
X0007231Y0197794D01*
X0007272Y0197947D01*
X0007317Y0198099D01*
X0007366Y0198250D01*
X0007419Y0198399D01*
X0007475Y0198547D01*
X0007535Y0198693D01*
X0007599Y0198838D01*
X0007667Y0198981D01*
X0007738Y0199123D01*
X0007812Y0199263D01*
X0007890Y0199400D01*
X0007972Y0199536D01*
X0008056Y0199670D01*
X0008145Y0199801D01*
X0008236Y0199930D01*
X0008331Y0200057D01*
X0008428Y0200182D01*
X0008529Y0200304D01*
X0008633Y0200423D01*
X0008740Y0200540D01*
X0008850Y0200654D01*
X0008963Y0200765D01*
X0009078Y0200874D01*
X0009196Y0200979D01*
X0009317Y0201081D01*
X0009440Y0201181D01*
X0009566Y0201277D01*
X0009694Y0201370D01*
X0009824Y0201460D01*
X0009957Y0201546D01*
X0010092Y0201630D01*
X0010228Y0201709D01*
X0010367Y0201786D01*
X0010508Y0201858D01*
X0010650Y0201928D01*
X0010794Y0201993D01*
X0010940Y0202055D01*
X0011087Y0202113D01*
X0011236Y0202168D01*
X0011386Y0202219D01*
X0011537Y0202266D01*
X0011689Y0202309D01*
X0011842Y0202348D01*
X0011997Y0202384D01*
X0012152Y0202415D01*
X0012308Y0202443D01*
X0012464Y0202467D01*
X0012621Y0202487D01*
X0012779Y0202503D01*
X0012936Y0202515D01*
X0013095Y0202523D01*
X0013253Y0202527D01*
X0013411Y0202527D01*
X0013569Y0202523D01*
X0013728Y0202515D01*
X0013885Y0202503D01*
X0014043Y0202487D01*
X0014200Y0202467D01*
X0014356Y0202443D01*
X0014512Y0202415D01*
X0014667Y0202384D01*
X0014822Y0202348D01*
X0014975Y0202309D01*
X0015127Y0202266D01*
X0015278Y0202219D01*
X0015428Y0202168D01*
X0015577Y0202113D01*
X0015724Y0202055D01*
X0015870Y0201993D01*
X0016014Y0201928D01*
X0016156Y0201858D01*
X0016297Y0201786D01*
X0016436Y0201709D01*
X0016572Y0201630D01*
X0016707Y0201546D01*
X0016840Y0201460D01*
X0016970Y0201370D01*
X0017098Y0201277D01*
X0017224Y0201181D01*
X0017347Y0201081D01*
X0017468Y0200979D01*
X0017586Y0200874D01*
X0017701Y0200765D01*
X0017814Y0200654D01*
X0017924Y0200540D01*
X0018031Y0200423D01*
X0018135Y0200304D01*
X0018236Y0200182D01*
X0018333Y0200057D01*
X0018428Y0199930D01*
X0018519Y0199801D01*
X0018608Y0199670D01*
X0018692Y0199536D01*
X0018774Y0199400D01*
X0018852Y0199263D01*
X0018926Y0199123D01*
X0018997Y0198981D01*
X0019065Y0198838D01*
X0019129Y0198693D01*
X0019189Y0198547D01*
X0019245Y0198399D01*
X0019298Y0198250D01*
X0019347Y0198099D01*
X0019392Y0197947D01*
X0019433Y0197794D01*
X0019471Y0197641D01*
X0019504Y0197486D01*
X0019534Y0197330D01*
X0019560Y0197174D01*
X0019581Y0197017D01*
X0019599Y0196860D01*
X0019613Y0196702D01*
X0019623Y0196544D01*
X0019629Y0196386D01*
X0019631Y0196228D01*
X0019629Y0196070D01*
X0019623Y0195912D01*
X0019613Y0195754D01*
X0019599Y0195596D01*
X0019581Y0195439D01*
X0019560Y0195282D01*
X0019534Y0195126D01*
X0019504Y0194970D01*
X0019471Y0194815D01*
X0019433Y0194662D01*
X0019392Y0194509D01*
X0019347Y0194357D01*
X0019298Y0194206D01*
X0019245Y0194057D01*
X0019189Y0193909D01*
X0019129Y0193763D01*
X0019065Y0193618D01*
X0018997Y0193475D01*
X0018926Y0193333D01*
X0018852Y0193193D01*
X0018774Y0193056D01*
X0018692Y0192920D01*
X0018608Y0192786D01*
X0018519Y0192655D01*
X0018428Y0192526D01*
X0018333Y0192399D01*
X0018236Y0192274D01*
X0018135Y0192152D01*
X0018031Y0192033D01*
X0017924Y0191916D01*
X0017814Y0191802D01*
X0017701Y0191691D01*
X0017586Y0191582D01*
X0017468Y0191477D01*
X0017347Y0191375D01*
X0017224Y0191275D01*
X0017098Y0191179D01*
X0016970Y0191086D01*
X0016840Y0190996D01*
X0016707Y0190910D01*
X0016572Y0190826D01*
X0016436Y0190747D01*
X0016297Y0190670D01*
X0016156Y0190598D01*
X0016014Y0190528D01*
X0015870Y0190463D01*
X0015724Y0190401D01*
X0015577Y0190343D01*
X0015428Y0190288D01*
X0015278Y0190237D01*
X0015127Y0190190D01*
X0014975Y0190147D01*
X0014822Y0190108D01*
X0014667Y0190072D01*
X0014512Y0190041D01*
X0014356Y0190013D01*
X0014200Y0189989D01*
X0014043Y0189969D01*
X0013885Y0189953D01*
X0013728Y0189941D01*
X0013569Y0189933D01*
X0013411Y0189929D01*
X0013253Y0189929D01*
X0013095Y0189933D01*
X0012936Y0189941D01*
X0012779Y0189953D01*
X0012621Y0189969D01*
X0012464Y0189989D01*
X0012308Y0190013D01*
X0012152Y0190041D01*
X0011997Y0190072D01*
X0011842Y0190108D01*
X0011689Y0190147D01*
X0011537Y0190190D01*
X0011386Y0190237D01*
X0011236Y0190288D01*
X0011087Y0190343D01*
X0010940Y0190401D01*
X0010794Y0190463D01*
X0010650Y0190528D01*
X0010508Y0190598D01*
X0010367Y0190670D01*
X0010228Y0190747D01*
X0010092Y0190826D01*
X0009957Y0190910D01*
X0009824Y0190996D01*
X0009694Y0191086D01*
X0009566Y0191179D01*
X0009440Y0191275D01*
X0009317Y0191375D01*
X0009196Y0191477D01*
X0009078Y0191582D01*
X0008963Y0191691D01*
X0008850Y0191802D01*
X0008740Y0191916D01*
X0008633Y0192033D01*
X0008529Y0192152D01*
X0008428Y0192274D01*
X0008331Y0192399D01*
X0008236Y0192526D01*
X0008145Y0192655D01*
X0008056Y0192786D01*
X0007972Y0192920D01*
X0007890Y0193056D01*
X0007812Y0193193D01*
X0007738Y0193333D01*
X0007667Y0193475D01*
X0007599Y0193618D01*
X0007535Y0193763D01*
X0007475Y0193909D01*
X0007419Y0194057D01*
X0007366Y0194206D01*
X0007317Y0194357D01*
X0007272Y0194509D01*
X0007231Y0194662D01*
X0007193Y0194815D01*
X0007160Y0194970D01*
X0007130Y0195126D01*
X0007104Y0195282D01*
X0007083Y0195439D01*
X0007065Y0195596D01*
X0007051Y0195754D01*
X0007041Y0195912D01*
X0007035Y0196070D01*
X0007033Y0196228D01*
D11*
X0012781Y0181545D02*
X0027361Y0181545D01*
X0030081Y0178825D01*
X0030081Y0173725D01*
X0027681Y0171325D01*
X0027781Y0171325D02*
X0029761Y0169345D01*
X0030081Y0169345D01*
X0030081Y0163905D01*
X0027801Y0161625D01*
X0027581Y0161625D01*
X0029861Y0159345D01*
X0029861Y0153785D01*
X0027681Y0151605D01*
X0012241Y0151605D01*
X0009841Y0154005D01*
X0009841Y0159105D01*
X0012361Y0161625D01*
X0012461Y0161625D01*
X0009961Y0164125D01*
X0009961Y0168925D01*
X0012361Y0171325D01*
X0012361Y0171525D01*
X0010061Y0173825D01*
X0010061Y0178205D01*
X0009961Y0178725D02*
X0012781Y0181545D01*
X0030937Y0188993D02*
X0031797Y0188133D01*
X0031797Y0188073D01*
X0030937Y0188993D02*
X0030937Y0194053D01*
X0032097Y0195213D01*
X0039537Y0195573D02*
X0040937Y0194173D01*
X0040957Y0194173D01*
X0041997Y0195213D01*
X0040957Y0188933D02*
X0042157Y0187733D01*
X0040957Y0188933D02*
X0040737Y0188933D01*
X0039737Y0187933D01*
X0039737Y0187773D01*
X0044631Y0180756D02*
X0060379Y0180756D01*
X0062741Y0178394D01*
X0062741Y0172882D01*
X0060379Y0170520D01*
X0062741Y0168157D01*
X0062741Y0163433D01*
X0060379Y0161071D01*
X0060379Y0160283D01*
X0062741Y0157921D01*
X0062741Y0153197D01*
X0060379Y0150834D01*
X0060370Y0150834D01*
X0060121Y0150585D01*
X0060121Y0150445D01*
X0062421Y0148145D01*
X0062421Y0143225D01*
X0062521Y0143125D01*
X0062461Y0143125D01*
X0061701Y0142365D01*
X0060281Y0141025D02*
X0059821Y0140565D01*
X0054901Y0140565D01*
X0052401Y0143065D01*
X0052321Y0143065D01*
X0050021Y0140765D01*
X0044981Y0140765D01*
X0044881Y0140665D01*
X0044781Y0140665D01*
X0042601Y0142845D01*
X0042601Y0148145D01*
X0044901Y0150445D01*
X0044901Y0150625D01*
X0042501Y0153025D01*
X0042501Y0158165D01*
X0044861Y0160525D01*
X0042441Y0162945D01*
X0042441Y0167945D01*
X0044861Y0170365D01*
X0044631Y0170520D02*
X0042269Y0172882D01*
X0042269Y0178394D01*
X0044631Y0180756D01*
X0049537Y0187853D02*
X0050837Y0189153D01*
X0050917Y0189153D01*
X0052217Y0187853D01*
X0050837Y0194073D02*
X0050837Y0194153D01*
X0051857Y0195173D01*
X0050837Y0194073D02*
X0049317Y0195593D01*
X0049317Y0195733D01*
X0059457Y0195533D02*
X0059537Y0195533D01*
X0061057Y0194013D01*
X0061057Y0194153D01*
X0061917Y0195013D01*
X0060837Y0188933D02*
X0059757Y0187853D01*
X0060837Y0188933D02*
X0061837Y0187933D01*
X0061857Y0187933D01*
X0069737Y0187993D02*
X0070757Y0189013D01*
X0071997Y0187773D01*
X0070977Y0194013D02*
X0069677Y0195313D01*
X0069677Y0195373D01*
X0070977Y0194073D02*
X0072137Y0195233D01*
X0070977Y0194073D02*
X0070977Y0194013D01*
X0079457Y0195453D02*
X0079517Y0195453D01*
X0080817Y0194153D01*
X0080957Y0194153D01*
X0081977Y0195173D01*
X0081037Y0189013D02*
X0081977Y0188073D01*
X0081037Y0189013D02*
X0080977Y0189013D01*
X0079737Y0187773D01*
X0089157Y0195813D02*
X0091037Y0193933D01*
X0091037Y0189453D01*
X0089437Y0187853D01*
X0089437Y0187493D01*
X0099501Y0191105D02*
X0099501Y0182305D01*
X0104761Y0174705D02*
X0117521Y0174705D01*
X0123821Y0182065D02*
X0123661Y0182225D01*
X0123661Y0191025D01*
X0117841Y0198625D02*
X0105241Y0198625D01*
X0105161Y0198705D01*
X0104999Y0186745D02*
X0105001Y0186908D01*
X0105007Y0187070D01*
X0105017Y0187232D01*
X0105031Y0187394D01*
X0105049Y0187556D01*
X0105071Y0187717D01*
X0105096Y0187877D01*
X0105126Y0188037D01*
X0105160Y0188196D01*
X0105197Y0188354D01*
X0105239Y0188511D01*
X0105284Y0188667D01*
X0105333Y0188822D01*
X0105386Y0188976D01*
X0105443Y0189128D01*
X0105503Y0189279D01*
X0105567Y0189429D01*
X0105635Y0189576D01*
X0105706Y0189722D01*
X0105781Y0189867D01*
X0105859Y0190009D01*
X0105941Y0190149D01*
X0106026Y0190288D01*
X0106115Y0190424D01*
X0106207Y0190558D01*
X0106302Y0190690D01*
X0106401Y0190819D01*
X0106502Y0190946D01*
X0106607Y0191070D01*
X0106714Y0191192D01*
X0106825Y0191311D01*
X0106939Y0191427D01*
X0107055Y0191541D01*
X0107174Y0191652D01*
X0107296Y0191759D01*
X0107420Y0191864D01*
X0107547Y0191965D01*
X0107676Y0192064D01*
X0107808Y0192159D01*
X0107942Y0192251D01*
X0108078Y0192340D01*
X0108217Y0192425D01*
X0108357Y0192507D01*
X0108499Y0192585D01*
X0108644Y0192660D01*
X0108790Y0192731D01*
X0108937Y0192799D01*
X0109087Y0192863D01*
X0109238Y0192923D01*
X0109390Y0192980D01*
X0109544Y0193033D01*
X0109699Y0193082D01*
X0109855Y0193127D01*
X0110012Y0193169D01*
X0110170Y0193206D01*
X0110329Y0193240D01*
X0110489Y0193270D01*
X0110649Y0193295D01*
X0110810Y0193317D01*
X0110972Y0193335D01*
X0111134Y0193349D01*
X0111296Y0193359D01*
X0111458Y0193365D01*
X0111621Y0193367D01*
X0111784Y0193365D01*
X0111946Y0193359D01*
X0112108Y0193349D01*
X0112270Y0193335D01*
X0112432Y0193317D01*
X0112593Y0193295D01*
X0112753Y0193270D01*
X0112913Y0193240D01*
X0113072Y0193206D01*
X0113230Y0193169D01*
X0113387Y0193127D01*
X0113543Y0193082D01*
X0113698Y0193033D01*
X0113852Y0192980D01*
X0114004Y0192923D01*
X0114155Y0192863D01*
X0114305Y0192799D01*
X0114452Y0192731D01*
X0114598Y0192660D01*
X0114743Y0192585D01*
X0114885Y0192507D01*
X0115025Y0192425D01*
X0115164Y0192340D01*
X0115300Y0192251D01*
X0115434Y0192159D01*
X0115566Y0192064D01*
X0115695Y0191965D01*
X0115822Y0191864D01*
X0115946Y0191759D01*
X0116068Y0191652D01*
X0116187Y0191541D01*
X0116303Y0191427D01*
X0116417Y0191311D01*
X0116528Y0191192D01*
X0116635Y0191070D01*
X0116740Y0190946D01*
X0116841Y0190819D01*
X0116940Y0190690D01*
X0117035Y0190558D01*
X0117127Y0190424D01*
X0117216Y0190288D01*
X0117301Y0190149D01*
X0117383Y0190009D01*
X0117461Y0189867D01*
X0117536Y0189722D01*
X0117607Y0189576D01*
X0117675Y0189429D01*
X0117739Y0189279D01*
X0117799Y0189128D01*
X0117856Y0188976D01*
X0117909Y0188822D01*
X0117958Y0188667D01*
X0118003Y0188511D01*
X0118045Y0188354D01*
X0118082Y0188196D01*
X0118116Y0188037D01*
X0118146Y0187877D01*
X0118171Y0187717D01*
X0118193Y0187556D01*
X0118211Y0187394D01*
X0118225Y0187232D01*
X0118235Y0187070D01*
X0118241Y0186908D01*
X0118243Y0186745D01*
X0118241Y0186582D01*
X0118235Y0186420D01*
X0118225Y0186258D01*
X0118211Y0186096D01*
X0118193Y0185934D01*
X0118171Y0185773D01*
X0118146Y0185613D01*
X0118116Y0185453D01*
X0118082Y0185294D01*
X0118045Y0185136D01*
X0118003Y0184979D01*
X0117958Y0184823D01*
X0117909Y0184668D01*
X0117856Y0184514D01*
X0117799Y0184362D01*
X0117739Y0184211D01*
X0117675Y0184061D01*
X0117607Y0183914D01*
X0117536Y0183768D01*
X0117461Y0183623D01*
X0117383Y0183481D01*
X0117301Y0183341D01*
X0117216Y0183202D01*
X0117127Y0183066D01*
X0117035Y0182932D01*
X0116940Y0182800D01*
X0116841Y0182671D01*
X0116740Y0182544D01*
X0116635Y0182420D01*
X0116528Y0182298D01*
X0116417Y0182179D01*
X0116303Y0182063D01*
X0116187Y0181949D01*
X0116068Y0181838D01*
X0115946Y0181731D01*
X0115822Y0181626D01*
X0115695Y0181525D01*
X0115566Y0181426D01*
X0115434Y0181331D01*
X0115300Y0181239D01*
X0115164Y0181150D01*
X0115025Y0181065D01*
X0114885Y0180983D01*
X0114743Y0180905D01*
X0114598Y0180830D01*
X0114452Y0180759D01*
X0114305Y0180691D01*
X0114155Y0180627D01*
X0114004Y0180567D01*
X0113852Y0180510D01*
X0113698Y0180457D01*
X0113543Y0180408D01*
X0113387Y0180363D01*
X0113230Y0180321D01*
X0113072Y0180284D01*
X0112913Y0180250D01*
X0112753Y0180220D01*
X0112593Y0180195D01*
X0112432Y0180173D01*
X0112270Y0180155D01*
X0112108Y0180141D01*
X0111946Y0180131D01*
X0111784Y0180125D01*
X0111621Y0180123D01*
X0111458Y0180125D01*
X0111296Y0180131D01*
X0111134Y0180141D01*
X0110972Y0180155D01*
X0110810Y0180173D01*
X0110649Y0180195D01*
X0110489Y0180220D01*
X0110329Y0180250D01*
X0110170Y0180284D01*
X0110012Y0180321D01*
X0109855Y0180363D01*
X0109699Y0180408D01*
X0109544Y0180457D01*
X0109390Y0180510D01*
X0109238Y0180567D01*
X0109087Y0180627D01*
X0108937Y0180691D01*
X0108790Y0180759D01*
X0108644Y0180830D01*
X0108499Y0180905D01*
X0108357Y0180983D01*
X0108217Y0181065D01*
X0108078Y0181150D01*
X0107942Y0181239D01*
X0107808Y0181331D01*
X0107676Y0181426D01*
X0107547Y0181525D01*
X0107420Y0181626D01*
X0107296Y0181731D01*
X0107174Y0181838D01*
X0107055Y0181949D01*
X0106939Y0182063D01*
X0106825Y0182179D01*
X0106714Y0182298D01*
X0106607Y0182420D01*
X0106502Y0182544D01*
X0106401Y0182671D01*
X0106302Y0182800D01*
X0106207Y0182932D01*
X0106115Y0183066D01*
X0106026Y0183202D01*
X0105941Y0183341D01*
X0105859Y0183481D01*
X0105781Y0183623D01*
X0105706Y0183768D01*
X0105635Y0183914D01*
X0105567Y0184061D01*
X0105503Y0184211D01*
X0105443Y0184362D01*
X0105386Y0184514D01*
X0105333Y0184668D01*
X0105284Y0184823D01*
X0105239Y0184979D01*
X0105197Y0185136D01*
X0105160Y0185294D01*
X0105126Y0185453D01*
X0105096Y0185613D01*
X0105071Y0185773D01*
X0105049Y0185934D01*
X0105031Y0186096D01*
X0105017Y0186258D01*
X0105007Y0186420D01*
X0105001Y0186582D01*
X0104999Y0186745D01*
X0104761Y0174705D02*
X0104681Y0174625D01*
X0092099Y0163805D02*
X0092101Y0163841D01*
X0092107Y0163877D01*
X0092116Y0163912D01*
X0092130Y0163946D01*
X0092146Y0163979D01*
X0092166Y0164009D01*
X0092190Y0164037D01*
X0092216Y0164062D01*
X0092244Y0164085D01*
X0092275Y0164104D01*
X0092308Y0164120D01*
X0092342Y0164132D01*
X0092378Y0164141D01*
X0092414Y0164146D01*
X0092450Y0164147D01*
X0092486Y0164144D01*
X0092522Y0164137D01*
X0092557Y0164127D01*
X0092591Y0164113D01*
X0092622Y0164095D01*
X0092652Y0164074D01*
X0092680Y0164050D01*
X0092704Y0164023D01*
X0092726Y0163994D01*
X0092744Y0163963D01*
X0092760Y0163930D01*
X0092771Y0163895D01*
X0092779Y0163859D01*
X0092783Y0163823D01*
X0092783Y0163787D01*
X0092779Y0163751D01*
X0092771Y0163715D01*
X0092760Y0163680D01*
X0092744Y0163647D01*
X0092726Y0163616D01*
X0092704Y0163587D01*
X0092680Y0163560D01*
X0092652Y0163536D01*
X0092622Y0163515D01*
X0092591Y0163497D01*
X0092557Y0163483D01*
X0092522Y0163473D01*
X0092486Y0163466D01*
X0092450Y0163463D01*
X0092414Y0163464D01*
X0092378Y0163469D01*
X0092342Y0163478D01*
X0092308Y0163490D01*
X0092275Y0163506D01*
X0092244Y0163525D01*
X0092216Y0163548D01*
X0092190Y0163573D01*
X0092166Y0163601D01*
X0092146Y0163631D01*
X0092130Y0163664D01*
X0092116Y0163698D01*
X0092107Y0163733D01*
X0092101Y0163769D01*
X0092099Y0163805D01*
X0095812Y0153197D02*
X0095812Y0116189D01*
X0132820Y0116189D01*
X0132820Y0153197D01*
X0095812Y0153197D01*
X0079023Y0175385D02*
X0079025Y0175441D01*
X0079031Y0175497D01*
X0079041Y0175553D01*
X0079055Y0175607D01*
X0079072Y0175661D01*
X0079094Y0175713D01*
X0079118Y0175764D01*
X0079147Y0175812D01*
X0079179Y0175859D01*
X0079214Y0175903D01*
X0079252Y0175944D01*
X0079293Y0175983D01*
X0079336Y0176019D01*
X0079382Y0176051D01*
X0079430Y0176081D01*
X0079480Y0176107D01*
X0079532Y0176129D01*
X0079585Y0176147D01*
X0079640Y0176162D01*
X0079695Y0176173D01*
X0079751Y0176180D01*
X0079807Y0176183D01*
X0079863Y0176182D01*
X0079919Y0176177D01*
X0079975Y0176168D01*
X0080030Y0176155D01*
X0080084Y0176139D01*
X0080136Y0176118D01*
X0080187Y0176094D01*
X0080236Y0176067D01*
X0080283Y0176036D01*
X0080328Y0176001D01*
X0080370Y0175964D01*
X0080410Y0175924D01*
X0080446Y0175881D01*
X0080480Y0175836D01*
X0080510Y0175788D01*
X0080536Y0175738D01*
X0080560Y0175687D01*
X0080579Y0175634D01*
X0080595Y0175580D01*
X0080607Y0175525D01*
X0080615Y0175469D01*
X0080619Y0175413D01*
X0080619Y0175357D01*
X0080615Y0175301D01*
X0080607Y0175245D01*
X0080595Y0175190D01*
X0080579Y0175136D01*
X0080560Y0175083D01*
X0080536Y0175032D01*
X0080510Y0174982D01*
X0080480Y0174934D01*
X0080446Y0174889D01*
X0080410Y0174846D01*
X0080370Y0174806D01*
X0080328Y0174769D01*
X0080283Y0174734D01*
X0080236Y0174703D01*
X0080187Y0174676D01*
X0080136Y0174652D01*
X0080084Y0174631D01*
X0080030Y0174615D01*
X0079975Y0174602D01*
X0079919Y0174593D01*
X0079863Y0174588D01*
X0079807Y0174587D01*
X0079751Y0174590D01*
X0079695Y0174597D01*
X0079640Y0174608D01*
X0079585Y0174623D01*
X0079532Y0174641D01*
X0079480Y0174663D01*
X0079430Y0174689D01*
X0079382Y0174719D01*
X0079336Y0174751D01*
X0079293Y0174787D01*
X0079252Y0174826D01*
X0079214Y0174867D01*
X0079179Y0174911D01*
X0079147Y0174958D01*
X0079118Y0175006D01*
X0079094Y0175057D01*
X0079072Y0175109D01*
X0079055Y0175163D01*
X0079041Y0175217D01*
X0079031Y0175273D01*
X0079025Y0175329D01*
X0079023Y0175385D01*
X0036013Y0158745D02*
X0036015Y0158783D01*
X0036021Y0158820D01*
X0036030Y0158857D01*
X0036044Y0158892D01*
X0036061Y0158926D01*
X0036081Y0158958D01*
X0036105Y0158988D01*
X0036131Y0159015D01*
X0036160Y0159039D01*
X0036192Y0159060D01*
X0036225Y0159078D01*
X0036260Y0159093D01*
X0036296Y0159103D01*
X0036334Y0159110D01*
X0036372Y0159113D01*
X0036409Y0159112D01*
X0036447Y0159107D01*
X0036484Y0159098D01*
X0036520Y0159086D01*
X0036554Y0159070D01*
X0036586Y0159050D01*
X0036617Y0159028D01*
X0036645Y0159002D01*
X0036670Y0158973D01*
X0036692Y0158943D01*
X0036710Y0158910D01*
X0036725Y0158875D01*
X0036737Y0158839D01*
X0036745Y0158802D01*
X0036749Y0158764D01*
X0036749Y0158726D01*
X0036745Y0158688D01*
X0036737Y0158651D01*
X0036725Y0158615D01*
X0036710Y0158580D01*
X0036692Y0158547D01*
X0036670Y0158517D01*
X0036645Y0158488D01*
X0036617Y0158462D01*
X0036586Y0158440D01*
X0036554Y0158420D01*
X0036520Y0158404D01*
X0036484Y0158392D01*
X0036447Y0158383D01*
X0036409Y0158378D01*
X0036372Y0158377D01*
X0036334Y0158380D01*
X0036296Y0158387D01*
X0036260Y0158397D01*
X0036225Y0158412D01*
X0036192Y0158430D01*
X0036160Y0158451D01*
X0036131Y0158475D01*
X0036105Y0158502D01*
X0036081Y0158532D01*
X0036061Y0158564D01*
X0036044Y0158598D01*
X0036030Y0158633D01*
X0036021Y0158670D01*
X0036015Y0158707D01*
X0036013Y0158745D01*
X0032032Y0127212D02*
X0032032Y0109890D01*
X0044631Y0109890D01*
X0044631Y0127212D01*
X0032032Y0127212D01*
X0042641Y0088685D02*
X0042643Y0088736D01*
X0042649Y0088787D01*
X0042659Y0088837D01*
X0042673Y0088887D01*
X0042690Y0088935D01*
X0042711Y0088981D01*
X0042736Y0089026D01*
X0042764Y0089069D01*
X0042795Y0089109D01*
X0042830Y0089147D01*
X0042867Y0089182D01*
X0042907Y0089214D01*
X0042949Y0089243D01*
X0042993Y0089269D01*
X0043040Y0089291D01*
X0043087Y0089309D01*
X0043136Y0089324D01*
X0043186Y0089335D01*
X0043237Y0089342D01*
X0043288Y0089345D01*
X0043339Y0089344D01*
X0043390Y0089339D01*
X0043441Y0089330D01*
X0043490Y0089317D01*
X0043539Y0089301D01*
X0043586Y0089280D01*
X0043631Y0089257D01*
X0043674Y0089229D01*
X0043715Y0089199D01*
X0043754Y0089165D01*
X0043790Y0089129D01*
X0043823Y0089089D01*
X0043852Y0089048D01*
X0043879Y0089004D01*
X0043902Y0088958D01*
X0043921Y0088911D01*
X0043937Y0088862D01*
X0043949Y0088812D01*
X0043957Y0088762D01*
X0043961Y0088711D01*
X0043961Y0088659D01*
X0043957Y0088608D01*
X0043949Y0088558D01*
X0043937Y0088508D01*
X0043921Y0088459D01*
X0043902Y0088412D01*
X0043879Y0088366D01*
X0043852Y0088322D01*
X0043823Y0088281D01*
X0043790Y0088241D01*
X0043754Y0088205D01*
X0043715Y0088171D01*
X0043674Y0088141D01*
X0043631Y0088113D01*
X0043586Y0088090D01*
X0043539Y0088069D01*
X0043490Y0088053D01*
X0043441Y0088040D01*
X0043390Y0088031D01*
X0043339Y0088026D01*
X0043288Y0088025D01*
X0043237Y0088028D01*
X0043186Y0088035D01*
X0043136Y0088046D01*
X0043087Y0088061D01*
X0043040Y0088079D01*
X0042993Y0088101D01*
X0042949Y0088127D01*
X0042907Y0088156D01*
X0042867Y0088188D01*
X0042830Y0088223D01*
X0042795Y0088261D01*
X0042764Y0088301D01*
X0042736Y0088344D01*
X0042711Y0088389D01*
X0042690Y0088435D01*
X0042673Y0088483D01*
X0042659Y0088533D01*
X0042649Y0088583D01*
X0042643Y0088634D01*
X0042641Y0088685D01*
X0036641Y0082765D02*
X0036641Y0077765D01*
X0034361Y0075485D01*
X0034361Y0075265D01*
X0034781Y0075045D02*
X0036961Y0072865D01*
X0036961Y0067845D01*
X0034461Y0065345D01*
X0036761Y0063045D01*
X0036761Y0057725D01*
X0036541Y0057725D01*
X0036541Y0057625D01*
X0034561Y0055645D01*
X0018921Y0055645D01*
X0016941Y0057625D01*
X0016941Y0063265D01*
X0019021Y0065345D01*
X0016621Y0067745D01*
X0016621Y0073065D01*
X0018701Y0075145D01*
X0018721Y0075145D01*
X0019141Y0075345D02*
X0016801Y0077685D01*
X0016801Y0083105D01*
X0019141Y0085445D01*
X0033961Y0085445D01*
X0033977Y0085443D01*
X0033992Y0085439D01*
X0034005Y0085432D01*
X0034018Y0085422D01*
X0034028Y0085409D01*
X0034035Y0085396D01*
X0034039Y0085381D01*
X0034041Y0085365D01*
X0036641Y0082765D01*
X0057435Y0088445D02*
X0057437Y0088492D01*
X0057443Y0088539D01*
X0057453Y0088586D01*
X0057466Y0088631D01*
X0057484Y0088675D01*
X0057505Y0088718D01*
X0057530Y0088758D01*
X0057557Y0088797D01*
X0057588Y0088832D01*
X0057622Y0088866D01*
X0057659Y0088896D01*
X0057698Y0088923D01*
X0057739Y0088947D01*
X0057782Y0088967D01*
X0057826Y0088983D01*
X0057872Y0088996D01*
X0057918Y0089005D01*
X0057965Y0089010D01*
X0058013Y0089011D01*
X0058060Y0089008D01*
X0058107Y0089001D01*
X0058153Y0088990D01*
X0058198Y0088976D01*
X0058242Y0088957D01*
X0058284Y0088935D01*
X0058324Y0088910D01*
X0058362Y0088881D01*
X0058397Y0088849D01*
X0058429Y0088815D01*
X0058459Y0088778D01*
X0058485Y0088738D01*
X0058508Y0088697D01*
X0058527Y0088653D01*
X0058543Y0088609D01*
X0058555Y0088563D01*
X0058563Y0088516D01*
X0058567Y0088469D01*
X0058567Y0088421D01*
X0058563Y0088374D01*
X0058555Y0088327D01*
X0058543Y0088281D01*
X0058527Y0088237D01*
X0058508Y0088193D01*
X0058485Y0088152D01*
X0058459Y0088112D01*
X0058429Y0088075D01*
X0058397Y0088041D01*
X0058362Y0088009D01*
X0058324Y0087980D01*
X0058284Y0087955D01*
X0058242Y0087933D01*
X0058198Y0087914D01*
X0058153Y0087900D01*
X0058107Y0087889D01*
X0058060Y0087882D01*
X0058013Y0087879D01*
X0057965Y0087880D01*
X0057918Y0087885D01*
X0057872Y0087894D01*
X0057826Y0087907D01*
X0057782Y0087923D01*
X0057739Y0087943D01*
X0057698Y0087967D01*
X0057659Y0087994D01*
X0057622Y0088024D01*
X0057588Y0088058D01*
X0057557Y0088093D01*
X0057530Y0088132D01*
X0057505Y0088172D01*
X0057484Y0088215D01*
X0057466Y0088259D01*
X0057453Y0088304D01*
X0057443Y0088351D01*
X0057437Y0088398D01*
X0057435Y0088445D01*
X0068868Y0088365D02*
X0068870Y0088417D01*
X0068876Y0088470D01*
X0068886Y0088521D01*
X0068900Y0088572D01*
X0068917Y0088621D01*
X0068938Y0088669D01*
X0068963Y0088715D01*
X0068991Y0088759D01*
X0069023Y0088801D01*
X0069057Y0088841D01*
X0069095Y0088878D01*
X0069135Y0088911D01*
X0069177Y0088942D01*
X0069222Y0088969D01*
X0069269Y0088993D01*
X0069317Y0089014D01*
X0069367Y0089030D01*
X0069418Y0089043D01*
X0069469Y0089052D01*
X0069522Y0089057D01*
X0069574Y0089058D01*
X0069626Y0089055D01*
X0069678Y0089048D01*
X0069730Y0089037D01*
X0069780Y0089022D01*
X0069829Y0089004D01*
X0069877Y0088982D01*
X0069923Y0088956D01*
X0069966Y0088927D01*
X0070008Y0088895D01*
X0070046Y0088860D01*
X0070082Y0088822D01*
X0070115Y0088781D01*
X0070145Y0088738D01*
X0070172Y0088692D01*
X0070195Y0088645D01*
X0070214Y0088597D01*
X0070230Y0088546D01*
X0070242Y0088495D01*
X0070250Y0088444D01*
X0070254Y0088391D01*
X0070254Y0088339D01*
X0070250Y0088286D01*
X0070242Y0088235D01*
X0070230Y0088184D01*
X0070214Y0088133D01*
X0070195Y0088085D01*
X0070172Y0088038D01*
X0070145Y0087992D01*
X0070115Y0087949D01*
X0070082Y0087908D01*
X0070046Y0087870D01*
X0070008Y0087835D01*
X0069966Y0087803D01*
X0069923Y0087774D01*
X0069877Y0087748D01*
X0069829Y0087726D01*
X0069780Y0087708D01*
X0069730Y0087693D01*
X0069678Y0087682D01*
X0069626Y0087675D01*
X0069574Y0087672D01*
X0069522Y0087673D01*
X0069469Y0087678D01*
X0069418Y0087687D01*
X0069367Y0087700D01*
X0069317Y0087716D01*
X0069269Y0087737D01*
X0069222Y0087761D01*
X0069177Y0087788D01*
X0069135Y0087819D01*
X0069095Y0087852D01*
X0069057Y0087889D01*
X0069023Y0087929D01*
X0068991Y0087971D01*
X0068963Y0088015D01*
X0068938Y0088061D01*
X0068917Y0088109D01*
X0068900Y0088158D01*
X0068886Y0088209D01*
X0068876Y0088260D01*
X0068870Y0088313D01*
X0068868Y0088365D01*
X0080766Y0087625D02*
X0080768Y0087676D01*
X0080774Y0087726D01*
X0080784Y0087776D01*
X0080797Y0087825D01*
X0080815Y0087873D01*
X0080836Y0087919D01*
X0080860Y0087963D01*
X0080888Y0088006D01*
X0080919Y0088046D01*
X0080953Y0088084D01*
X0080990Y0088119D01*
X0081030Y0088150D01*
X0081072Y0088179D01*
X0081116Y0088205D01*
X0081162Y0088226D01*
X0081209Y0088245D01*
X0081258Y0088259D01*
X0081307Y0088270D01*
X0081358Y0088277D01*
X0081408Y0088280D01*
X0081459Y0088279D01*
X0081510Y0088274D01*
X0081560Y0088265D01*
X0081609Y0088252D01*
X0081657Y0088236D01*
X0081704Y0088216D01*
X0081748Y0088192D01*
X0081791Y0088165D01*
X0081832Y0088135D01*
X0081870Y0088101D01*
X0081906Y0088065D01*
X0081939Y0088026D01*
X0081968Y0087985D01*
X0081994Y0087941D01*
X0082017Y0087896D01*
X0082036Y0087849D01*
X0082052Y0087801D01*
X0082064Y0087751D01*
X0082072Y0087701D01*
X0082076Y0087650D01*
X0082076Y0087600D01*
X0082072Y0087549D01*
X0082064Y0087499D01*
X0082052Y0087449D01*
X0082036Y0087401D01*
X0082017Y0087354D01*
X0081994Y0087309D01*
X0081968Y0087265D01*
X0081939Y0087224D01*
X0081906Y0087185D01*
X0081870Y0087149D01*
X0081832Y0087115D01*
X0081791Y0087085D01*
X0081749Y0087058D01*
X0081704Y0087034D01*
X0081657Y0087014D01*
X0081609Y0086998D01*
X0081560Y0086985D01*
X0081510Y0086976D01*
X0081459Y0086971D01*
X0081408Y0086970D01*
X0081358Y0086973D01*
X0081307Y0086980D01*
X0081258Y0086991D01*
X0081209Y0087005D01*
X0081162Y0087024D01*
X0081116Y0087045D01*
X0081072Y0087071D01*
X0081030Y0087100D01*
X0080990Y0087131D01*
X0080953Y0087166D01*
X0080919Y0087204D01*
X0080888Y0087244D01*
X0080860Y0087287D01*
X0080836Y0087331D01*
X0080815Y0087377D01*
X0080797Y0087425D01*
X0080784Y0087474D01*
X0080774Y0087524D01*
X0080768Y0087574D01*
X0080766Y0087625D01*
X0093519Y0087965D02*
X0093521Y0088013D01*
X0093527Y0088061D01*
X0093537Y0088108D01*
X0093551Y0088154D01*
X0093568Y0088199D01*
X0093589Y0088242D01*
X0093614Y0088283D01*
X0093642Y0088322D01*
X0093673Y0088359D01*
X0093707Y0088393D01*
X0093744Y0088424D01*
X0093783Y0088452D01*
X0093824Y0088477D01*
X0093867Y0088498D01*
X0093912Y0088515D01*
X0093958Y0088529D01*
X0094005Y0088539D01*
X0094053Y0088545D01*
X0094101Y0088547D01*
X0094149Y0088545D01*
X0094197Y0088539D01*
X0094244Y0088529D01*
X0094290Y0088515D01*
X0094335Y0088498D01*
X0094378Y0088477D01*
X0094419Y0088452D01*
X0094458Y0088424D01*
X0094495Y0088393D01*
X0094529Y0088359D01*
X0094560Y0088322D01*
X0094588Y0088283D01*
X0094613Y0088242D01*
X0094634Y0088199D01*
X0094651Y0088154D01*
X0094665Y0088108D01*
X0094675Y0088061D01*
X0094681Y0088013D01*
X0094683Y0087965D01*
X0094681Y0087917D01*
X0094675Y0087869D01*
X0094665Y0087822D01*
X0094651Y0087776D01*
X0094634Y0087731D01*
X0094613Y0087688D01*
X0094588Y0087647D01*
X0094560Y0087608D01*
X0094529Y0087571D01*
X0094495Y0087537D01*
X0094458Y0087506D01*
X0094419Y0087478D01*
X0094378Y0087453D01*
X0094335Y0087432D01*
X0094290Y0087415D01*
X0094244Y0087401D01*
X0094197Y0087391D01*
X0094149Y0087385D01*
X0094101Y0087383D01*
X0094053Y0087385D01*
X0094005Y0087391D01*
X0093958Y0087401D01*
X0093912Y0087415D01*
X0093867Y0087432D01*
X0093824Y0087453D01*
X0093783Y0087478D01*
X0093744Y0087506D01*
X0093707Y0087537D01*
X0093673Y0087571D01*
X0093642Y0087608D01*
X0093614Y0087647D01*
X0093589Y0087688D01*
X0093568Y0087731D01*
X0093551Y0087776D01*
X0093537Y0087822D01*
X0093527Y0087869D01*
X0093521Y0087917D01*
X0093519Y0087965D01*
X0105995Y0088445D02*
X0105997Y0088488D01*
X0106003Y0088531D01*
X0106013Y0088573D01*
X0106026Y0088613D01*
X0106044Y0088653D01*
X0106065Y0088690D01*
X0106089Y0088726D01*
X0106117Y0088759D01*
X0106147Y0088789D01*
X0106180Y0088817D01*
X0106216Y0088841D01*
X0106253Y0088862D01*
X0106293Y0088880D01*
X0106333Y0088893D01*
X0106375Y0088903D01*
X0106418Y0088909D01*
X0106461Y0088911D01*
X0106504Y0088909D01*
X0106547Y0088903D01*
X0106589Y0088893D01*
X0106629Y0088880D01*
X0106669Y0088862D01*
X0106706Y0088841D01*
X0106742Y0088817D01*
X0106775Y0088789D01*
X0106805Y0088759D01*
X0106833Y0088726D01*
X0106857Y0088690D01*
X0106878Y0088653D01*
X0106896Y0088613D01*
X0106909Y0088573D01*
X0106919Y0088531D01*
X0106925Y0088488D01*
X0106927Y0088445D01*
X0106925Y0088402D01*
X0106919Y0088359D01*
X0106909Y0088317D01*
X0106896Y0088277D01*
X0106878Y0088237D01*
X0106857Y0088200D01*
X0106833Y0088164D01*
X0106805Y0088131D01*
X0106775Y0088101D01*
X0106742Y0088073D01*
X0106706Y0088049D01*
X0106669Y0088028D01*
X0106629Y0088010D01*
X0106589Y0087997D01*
X0106547Y0087987D01*
X0106504Y0087981D01*
X0106461Y0087979D01*
X0106418Y0087981D01*
X0106375Y0087987D01*
X0106333Y0087997D01*
X0106293Y0088010D01*
X0106253Y0088028D01*
X0106216Y0088049D01*
X0106180Y0088073D01*
X0106147Y0088101D01*
X0106117Y0088131D01*
X0106089Y0088164D01*
X0106065Y0088200D01*
X0106044Y0088237D01*
X0106026Y0088277D01*
X0106013Y0088317D01*
X0106003Y0088359D01*
X0105997Y0088402D01*
X0105995Y0088445D01*
X0119609Y0087885D02*
X0119611Y0087930D01*
X0119617Y0087974D01*
X0119626Y0088018D01*
X0119640Y0088060D01*
X0119657Y0088101D01*
X0119678Y0088141D01*
X0119702Y0088179D01*
X0119729Y0088214D01*
X0119759Y0088247D01*
X0119792Y0088277D01*
X0119827Y0088304D01*
X0119865Y0088328D01*
X0119905Y0088349D01*
X0119946Y0088366D01*
X0119988Y0088380D01*
X0120032Y0088389D01*
X0120076Y0088395D01*
X0120121Y0088397D01*
X0120166Y0088395D01*
X0120210Y0088389D01*
X0120254Y0088380D01*
X0120296Y0088366D01*
X0120337Y0088349D01*
X0120377Y0088328D01*
X0120415Y0088304D01*
X0120450Y0088277D01*
X0120483Y0088247D01*
X0120513Y0088214D01*
X0120540Y0088179D01*
X0120564Y0088141D01*
X0120585Y0088101D01*
X0120602Y0088060D01*
X0120616Y0088018D01*
X0120625Y0087974D01*
X0120631Y0087930D01*
X0120633Y0087885D01*
X0120631Y0087840D01*
X0120625Y0087796D01*
X0120616Y0087752D01*
X0120602Y0087710D01*
X0120585Y0087669D01*
X0120564Y0087629D01*
X0120540Y0087591D01*
X0120513Y0087556D01*
X0120483Y0087523D01*
X0120450Y0087493D01*
X0120415Y0087466D01*
X0120377Y0087442D01*
X0120337Y0087421D01*
X0120296Y0087404D01*
X0120254Y0087390D01*
X0120210Y0087381D01*
X0120166Y0087375D01*
X0120121Y0087373D01*
X0120076Y0087375D01*
X0120032Y0087381D01*
X0119988Y0087390D01*
X0119946Y0087404D01*
X0119905Y0087421D01*
X0119865Y0087442D01*
X0119827Y0087466D01*
X0119792Y0087493D01*
X0119759Y0087523D01*
X0119729Y0087556D01*
X0119702Y0087591D01*
X0119678Y0087629D01*
X0119657Y0087669D01*
X0119640Y0087710D01*
X0119626Y0087752D01*
X0119617Y0087796D01*
X0119611Y0087840D01*
X0119609Y0087885D01*
X0117859Y0073669D02*
X0107623Y0073669D01*
X0107623Y0050834D01*
X0117859Y0050834D01*
X0117859Y0073669D01*
X0141781Y0054765D02*
X0143761Y0056745D01*
X0167481Y0056745D01*
X0167601Y0056865D01*
X0167661Y0057005D02*
X0167661Y0031005D01*
X0141801Y0031005D01*
X0141781Y0031105D02*
X0141781Y0054765D01*
X0160221Y0075405D02*
X0160221Y0077865D01*
X0160181Y0077865D01*
X0167561Y0083045D02*
X0172381Y0083045D01*
X0172381Y0082985D01*
X0179781Y0077965D02*
X0179821Y0077965D01*
X0179821Y0075405D01*
X0172181Y0070425D02*
X0172181Y0070265D01*
X0172181Y0070425D02*
X0167621Y0070425D01*
X0186241Y0064665D02*
X0188121Y0066545D01*
X0192601Y0066545D01*
X0194201Y0064945D01*
X0194561Y0064945D01*
X0193981Y0057485D02*
X0193041Y0056545D01*
X0193041Y0056485D01*
X0194281Y0055245D01*
X0187901Y0056325D02*
X0187901Y0056465D01*
X0186881Y0057485D01*
X0187901Y0056325D02*
X0186601Y0055025D01*
X0186601Y0054965D01*
X0186821Y0047645D02*
X0187981Y0046485D01*
X0188041Y0046485D01*
X0186741Y0045185D01*
X0186681Y0045185D01*
X0193041Y0046265D02*
X0194281Y0047505D01*
X0193041Y0046265D02*
X0194061Y0045245D01*
X0194121Y0037365D02*
X0194121Y0037345D01*
X0193121Y0036345D01*
X0194201Y0035265D01*
X0188041Y0036565D02*
X0187901Y0036565D01*
X0187041Y0037425D01*
X0188041Y0036565D02*
X0186521Y0035045D01*
X0186521Y0034965D01*
X0186881Y0027365D02*
X0187901Y0026345D01*
X0187981Y0026345D01*
X0186461Y0024825D01*
X0186321Y0024825D01*
X0192901Y0026345D02*
X0192901Y0026425D01*
X0194201Y0027725D01*
X0192901Y0026345D02*
X0194201Y0025045D01*
X0194321Y0017665D02*
X0193121Y0016465D01*
X0193121Y0016245D01*
X0194121Y0015245D01*
X0194281Y0015245D01*
X0187881Y0016445D02*
X0187881Y0016465D01*
X0186841Y0017505D01*
X0187881Y0016445D02*
X0186481Y0015045D01*
X0186841Y0007605D02*
X0188001Y0006445D01*
X0193061Y0006445D01*
X0193921Y0007305D01*
X0193981Y0007305D01*
X0167721Y0031005D02*
X0167661Y0031005D01*
X0189881Y0073805D02*
X0189883Y0073843D01*
X0189889Y0073880D01*
X0189899Y0073916D01*
X0189912Y0073951D01*
X0189929Y0073985D01*
X0189950Y0074017D01*
X0189973Y0074046D01*
X0190000Y0074073D01*
X0190029Y0074096D01*
X0190061Y0074117D01*
X0190095Y0074134D01*
X0190130Y0074147D01*
X0190166Y0074157D01*
X0190203Y0074163D01*
X0190241Y0074165D01*
X0190279Y0074163D01*
X0190316Y0074157D01*
X0190352Y0074147D01*
X0190387Y0074134D01*
X0190421Y0074117D01*
X0190453Y0074096D01*
X0190482Y0074073D01*
X0190509Y0074046D01*
X0190532Y0074017D01*
X0190553Y0073985D01*
X0190570Y0073951D01*
X0190583Y0073916D01*
X0190593Y0073880D01*
X0190599Y0073843D01*
X0190601Y0073805D01*
X0190599Y0073767D01*
X0190593Y0073730D01*
X0190583Y0073694D01*
X0190570Y0073659D01*
X0190553Y0073625D01*
X0190532Y0073593D01*
X0190509Y0073564D01*
X0190482Y0073537D01*
X0190453Y0073514D01*
X0190421Y0073493D01*
X0190387Y0073476D01*
X0190352Y0073463D01*
X0190316Y0073453D01*
X0190279Y0073447D01*
X0190241Y0073445D01*
X0190203Y0073447D01*
X0190166Y0073453D01*
X0190130Y0073463D01*
X0190095Y0073476D01*
X0190061Y0073493D01*
X0190029Y0073514D01*
X0190000Y0073537D01*
X0189973Y0073564D01*
X0189950Y0073593D01*
X0189929Y0073625D01*
X0189912Y0073659D01*
X0189899Y0073694D01*
X0189889Y0073730D01*
X0189883Y0073767D01*
X0189881Y0073805D01*
X0189714Y0083885D02*
X0189716Y0083927D01*
X0189722Y0083968D01*
X0189732Y0084009D01*
X0189745Y0084049D01*
X0189762Y0084087D01*
X0189783Y0084123D01*
X0189807Y0084158D01*
X0189834Y0084190D01*
X0189864Y0084219D01*
X0189897Y0084245D01*
X0189931Y0084269D01*
X0189968Y0084288D01*
X0190007Y0084305D01*
X0190047Y0084317D01*
X0190088Y0084326D01*
X0190130Y0084331D01*
X0190171Y0084332D01*
X0190213Y0084329D01*
X0190255Y0084322D01*
X0190295Y0084311D01*
X0190334Y0084297D01*
X0190372Y0084279D01*
X0190408Y0084257D01*
X0190442Y0084233D01*
X0190473Y0084205D01*
X0190502Y0084174D01*
X0190527Y0084141D01*
X0190550Y0084105D01*
X0190569Y0084068D01*
X0190584Y0084029D01*
X0190596Y0083989D01*
X0190604Y0083948D01*
X0190608Y0083906D01*
X0190608Y0083864D01*
X0190604Y0083822D01*
X0190596Y0083781D01*
X0190584Y0083741D01*
X0190569Y0083702D01*
X0190550Y0083665D01*
X0190527Y0083629D01*
X0190502Y0083596D01*
X0190473Y0083565D01*
X0190442Y0083537D01*
X0190408Y0083513D01*
X0190372Y0083491D01*
X0190334Y0083473D01*
X0190295Y0083459D01*
X0190255Y0083448D01*
X0190213Y0083441D01*
X0190171Y0083438D01*
X0190130Y0083439D01*
X0190088Y0083444D01*
X0190047Y0083453D01*
X0190007Y0083465D01*
X0189968Y0083482D01*
X0189931Y0083501D01*
X0189897Y0083525D01*
X0189864Y0083551D01*
X0189834Y0083580D01*
X0189807Y0083612D01*
X0189783Y0083647D01*
X0189762Y0083683D01*
X0189745Y0083721D01*
X0189732Y0083761D01*
X0189722Y0083802D01*
X0189716Y0083843D01*
X0189714Y0083885D01*
X0189527Y0098625D02*
X0189529Y0098664D01*
X0189535Y0098703D01*
X0189545Y0098741D01*
X0189558Y0098778D01*
X0189575Y0098813D01*
X0189595Y0098847D01*
X0189619Y0098878D01*
X0189646Y0098907D01*
X0189675Y0098933D01*
X0189707Y0098956D01*
X0189741Y0098976D01*
X0189777Y0098992D01*
X0189814Y0099004D01*
X0189853Y0099013D01*
X0189892Y0099018D01*
X0189931Y0099019D01*
X0189970Y0099016D01*
X0190009Y0099009D01*
X0190046Y0098998D01*
X0190083Y0098984D01*
X0190118Y0098966D01*
X0190151Y0098945D01*
X0190182Y0098920D01*
X0190210Y0098893D01*
X0190235Y0098863D01*
X0190257Y0098830D01*
X0190276Y0098796D01*
X0190291Y0098760D01*
X0190303Y0098722D01*
X0190311Y0098684D01*
X0190315Y0098645D01*
X0190315Y0098605D01*
X0190311Y0098566D01*
X0190303Y0098528D01*
X0190291Y0098490D01*
X0190276Y0098454D01*
X0190257Y0098420D01*
X0190235Y0098387D01*
X0190210Y0098357D01*
X0190182Y0098330D01*
X0190151Y0098305D01*
X0190118Y0098284D01*
X0190083Y0098266D01*
X0190046Y0098252D01*
X0190009Y0098241D01*
X0189970Y0098234D01*
X0189931Y0098231D01*
X0189892Y0098232D01*
X0189853Y0098237D01*
X0189814Y0098246D01*
X0189777Y0098258D01*
X0189741Y0098274D01*
X0189707Y0098294D01*
X0189675Y0098317D01*
X0189646Y0098343D01*
X0189619Y0098372D01*
X0189595Y0098403D01*
X0189575Y0098437D01*
X0189558Y0098472D01*
X0189545Y0098509D01*
X0189535Y0098547D01*
X0189529Y0098586D01*
X0189527Y0098625D01*
X0182116Y0097805D02*
X0182118Y0097840D01*
X0182124Y0097874D01*
X0182134Y0097907D01*
X0182147Y0097940D01*
X0182164Y0097970D01*
X0182185Y0097998D01*
X0182208Y0098024D01*
X0182235Y0098047D01*
X0182263Y0098066D01*
X0182294Y0098082D01*
X0182327Y0098095D01*
X0182360Y0098104D01*
X0182395Y0098109D01*
X0182430Y0098110D01*
X0182464Y0098107D01*
X0182499Y0098100D01*
X0182532Y0098089D01*
X0182563Y0098075D01*
X0182593Y0098057D01*
X0182621Y0098036D01*
X0182646Y0098011D01*
X0182668Y0097984D01*
X0182687Y0097955D01*
X0182702Y0097924D01*
X0182714Y0097891D01*
X0182722Y0097857D01*
X0182726Y0097822D01*
X0182726Y0097788D01*
X0182722Y0097753D01*
X0182714Y0097719D01*
X0182702Y0097686D01*
X0182687Y0097655D01*
X0182668Y0097626D01*
X0182646Y0097599D01*
X0182621Y0097574D01*
X0182593Y0097553D01*
X0182563Y0097535D01*
X0182532Y0097521D01*
X0182499Y0097510D01*
X0182464Y0097503D01*
X0182430Y0097500D01*
X0182395Y0097501D01*
X0182360Y0097506D01*
X0182327Y0097515D01*
X0182294Y0097528D01*
X0182263Y0097544D01*
X0182235Y0097563D01*
X0182208Y0097586D01*
X0182185Y0097612D01*
X0182164Y0097640D01*
X0182147Y0097670D01*
X0182134Y0097703D01*
X0182124Y0097736D01*
X0182118Y0097770D01*
X0182116Y0097805D01*
X0180181Y0099785D02*
X0180181Y0104345D01*
X0180241Y0104345D01*
X0184788Y0112252D02*
X0163529Y0112252D01*
X0163529Y0153197D01*
X0184788Y0153197D01*
X0184788Y0112252D01*
X0181639Y0113827D02*
X0181639Y0120126D01*
X0171403Y0120126D01*
X0171403Y0113827D01*
X0181639Y0113827D01*
X0175001Y0111905D02*
X0175001Y0111845D01*
X0172801Y0111845D01*
X0171403Y0113827D02*
X0165891Y0113827D01*
X0165891Y0120126D01*
X0171403Y0120126D01*
X0172190Y0124063D02*
X0172190Y0130362D01*
X0165891Y0130362D01*
X0165891Y0124063D01*
X0172190Y0124063D01*
X0181639Y0124063D01*
X0180741Y0122145D02*
X0184121Y0125525D01*
X0184121Y0125885D02*
X0184121Y0148565D01*
X0159221Y0148565D01*
X0159101Y0148505D02*
X0159101Y0122505D01*
X0159381Y0122145D02*
X0180741Y0122145D01*
X0178489Y0130362D02*
X0172190Y0130362D01*
X0172190Y0134299D02*
X0172190Y0140598D01*
X0181639Y0140598D01*
X0181639Y0134299D01*
X0180064Y0134299D01*
X0173765Y0134299D02*
X0172190Y0134299D01*
X0165891Y0134299D01*
X0165891Y0139811D01*
X0165891Y0140598D02*
X0172190Y0140598D01*
X0172190Y0143748D02*
X0172190Y0150047D01*
X0181639Y0150047D01*
X0181639Y0143748D01*
X0172190Y0143748D01*
X0165891Y0143748D01*
X0165891Y0149260D01*
X0165891Y0150047D02*
X0172190Y0150047D01*
X0172381Y0162485D02*
X0173401Y0163505D01*
X0174641Y0162265D01*
X0173621Y0168505D02*
X0172321Y0169805D01*
X0172321Y0169865D01*
X0173621Y0168565D02*
X0174781Y0169725D01*
X0173621Y0168565D02*
X0173621Y0168505D01*
X0182101Y0169945D02*
X0182161Y0169945D01*
X0183461Y0168645D01*
X0183601Y0168645D01*
X0184621Y0169665D01*
X0183681Y0163505D02*
X0184621Y0162565D01*
X0183681Y0163505D02*
X0183621Y0163505D01*
X0182381Y0162265D01*
X0192081Y0162345D02*
X0192081Y0161985D01*
X0192081Y0162345D02*
X0193681Y0163945D01*
X0193681Y0168425D01*
X0191801Y0170305D01*
X0171188Y0182465D02*
X0171190Y0182525D01*
X0171196Y0182585D01*
X0171206Y0182645D01*
X0171220Y0182704D01*
X0171237Y0182761D01*
X0171259Y0182818D01*
X0171284Y0182873D01*
X0171313Y0182926D01*
X0171345Y0182977D01*
X0171381Y0183026D01*
X0171419Y0183072D01*
X0171461Y0183116D01*
X0171505Y0183157D01*
X0171552Y0183195D01*
X0171602Y0183229D01*
X0171653Y0183261D01*
X0171707Y0183289D01*
X0171762Y0183313D01*
X0171819Y0183333D01*
X0171877Y0183350D01*
X0171936Y0183363D01*
X0171996Y0183372D01*
X0172056Y0183377D01*
X0172116Y0183378D01*
X0172176Y0183375D01*
X0172236Y0183368D01*
X0172296Y0183357D01*
X0172354Y0183342D01*
X0172412Y0183324D01*
X0172468Y0183301D01*
X0172522Y0183275D01*
X0172575Y0183245D01*
X0172625Y0183212D01*
X0172674Y0183176D01*
X0172719Y0183137D01*
X0172762Y0183094D01*
X0172803Y0183049D01*
X0172840Y0183002D01*
X0172873Y0182952D01*
X0172904Y0182900D01*
X0172931Y0182846D01*
X0172954Y0182790D01*
X0172974Y0182733D01*
X0172990Y0182674D01*
X0173002Y0182615D01*
X0173010Y0182555D01*
X0173014Y0182495D01*
X0173014Y0182435D01*
X0173010Y0182375D01*
X0173002Y0182315D01*
X0172990Y0182256D01*
X0172974Y0182197D01*
X0172954Y0182140D01*
X0172931Y0182084D01*
X0172904Y0182030D01*
X0172873Y0181978D01*
X0172840Y0181928D01*
X0172803Y0181881D01*
X0172762Y0181836D01*
X0172719Y0181793D01*
X0172674Y0181754D01*
X0172625Y0181718D01*
X0172575Y0181685D01*
X0172522Y0181655D01*
X0172468Y0181629D01*
X0172412Y0181606D01*
X0172354Y0181588D01*
X0172296Y0181573D01*
X0172236Y0181562D01*
X0172176Y0181555D01*
X0172116Y0181552D01*
X0172056Y0181553D01*
X0171996Y0181558D01*
X0171936Y0181567D01*
X0171877Y0181580D01*
X0171819Y0181597D01*
X0171762Y0181617D01*
X0171707Y0181641D01*
X0171653Y0181669D01*
X0171602Y0181701D01*
X0171552Y0181735D01*
X0171505Y0181773D01*
X0171461Y0181814D01*
X0171419Y0181858D01*
X0171381Y0181904D01*
X0171345Y0181953D01*
X0171313Y0182004D01*
X0171284Y0182057D01*
X0171259Y0182112D01*
X0171237Y0182169D01*
X0171220Y0182226D01*
X0171206Y0182285D01*
X0171196Y0182345D01*
X0171190Y0182405D01*
X0171188Y0182465D01*
X0170950Y0193165D02*
X0170952Y0193223D01*
X0170958Y0193281D01*
X0170968Y0193338D01*
X0170982Y0193395D01*
X0170999Y0193450D01*
X0171020Y0193504D01*
X0171045Y0193557D01*
X0171074Y0193607D01*
X0171106Y0193656D01*
X0171141Y0193702D01*
X0171179Y0193746D01*
X0171220Y0193787D01*
X0171264Y0193825D01*
X0171310Y0193860D01*
X0171359Y0193892D01*
X0171409Y0193921D01*
X0171462Y0193946D01*
X0171516Y0193967D01*
X0171571Y0193984D01*
X0171628Y0193998D01*
X0171685Y0194008D01*
X0171743Y0194014D01*
X0171801Y0194016D01*
X0171859Y0194014D01*
X0171917Y0194008D01*
X0171974Y0193998D01*
X0172031Y0193984D01*
X0172086Y0193967D01*
X0172140Y0193946D01*
X0172193Y0193921D01*
X0172243Y0193892D01*
X0172292Y0193860D01*
X0172338Y0193825D01*
X0172382Y0193787D01*
X0172423Y0193746D01*
X0172461Y0193702D01*
X0172496Y0193656D01*
X0172528Y0193607D01*
X0172557Y0193557D01*
X0172582Y0193504D01*
X0172603Y0193450D01*
X0172620Y0193395D01*
X0172634Y0193338D01*
X0172644Y0193281D01*
X0172650Y0193223D01*
X0172652Y0193165D01*
X0172650Y0193107D01*
X0172644Y0193049D01*
X0172634Y0192992D01*
X0172620Y0192935D01*
X0172603Y0192880D01*
X0172582Y0192826D01*
X0172557Y0192773D01*
X0172528Y0192723D01*
X0172496Y0192674D01*
X0172461Y0192628D01*
X0172423Y0192584D01*
X0172382Y0192543D01*
X0172338Y0192505D01*
X0172292Y0192470D01*
X0172243Y0192438D01*
X0172193Y0192409D01*
X0172140Y0192384D01*
X0172086Y0192363D01*
X0172031Y0192346D01*
X0171974Y0192332D01*
X0171917Y0192322D01*
X0171859Y0192316D01*
X0171801Y0192314D01*
X0171743Y0192316D01*
X0171685Y0192322D01*
X0171628Y0192332D01*
X0171571Y0192346D01*
X0171516Y0192363D01*
X0171462Y0192384D01*
X0171409Y0192409D01*
X0171359Y0192438D01*
X0171310Y0192470D01*
X0171264Y0192505D01*
X0171220Y0192543D01*
X0171179Y0192584D01*
X0171141Y0192628D01*
X0171106Y0192674D01*
X0171074Y0192723D01*
X0171045Y0192773D01*
X0171020Y0192826D01*
X0170999Y0192880D01*
X0170982Y0192935D01*
X0170968Y0192992D01*
X0170958Y0193049D01*
X0170952Y0193107D01*
X0170950Y0193165D01*
X0164561Y0169505D02*
X0163701Y0168645D01*
X0163701Y0168505D01*
X0162181Y0170025D01*
X0162101Y0170025D01*
X0163481Y0163425D02*
X0164481Y0162425D01*
X0164501Y0162425D01*
X0163481Y0163425D02*
X0162401Y0162345D01*
X0154861Y0162345D02*
X0153561Y0163645D01*
X0153481Y0163645D01*
X0152181Y0162345D01*
X0153481Y0168565D02*
X0153481Y0168645D01*
X0154501Y0169665D01*
X0153481Y0168565D02*
X0151961Y0170085D01*
X0151961Y0170225D01*
X0144641Y0169705D02*
X0143601Y0168665D01*
X0143581Y0168665D01*
X0142181Y0170065D01*
X0143381Y0163425D02*
X0143601Y0163425D01*
X0144801Y0162225D01*
X0143381Y0163425D02*
X0142381Y0162425D01*
X0142381Y0162265D01*
X0142461Y0155865D02*
X0142463Y0155896D01*
X0142469Y0155926D01*
X0142479Y0155955D01*
X0142492Y0155983D01*
X0142509Y0156009D01*
X0142529Y0156032D01*
X0142551Y0156053D01*
X0142577Y0156070D01*
X0142604Y0156084D01*
X0142633Y0156095D01*
X0142663Y0156102D01*
X0142693Y0156105D01*
X0142724Y0156104D01*
X0142754Y0156099D01*
X0142784Y0156090D01*
X0142812Y0156078D01*
X0142838Y0156062D01*
X0142862Y0156043D01*
X0142884Y0156021D01*
X0142902Y0155996D01*
X0142917Y0155969D01*
X0142929Y0155941D01*
X0142937Y0155911D01*
X0142941Y0155880D01*
X0142941Y0155850D01*
X0142937Y0155819D01*
X0142929Y0155789D01*
X0142917Y0155761D01*
X0142902Y0155734D01*
X0142884Y0155709D01*
X0142862Y0155687D01*
X0142838Y0155668D01*
X0142812Y0155652D01*
X0142784Y0155640D01*
X0142754Y0155631D01*
X0142724Y0155626D01*
X0142693Y0155625D01*
X0142663Y0155628D01*
X0142633Y0155635D01*
X0142604Y0155646D01*
X0142577Y0155660D01*
X0142551Y0155677D01*
X0142529Y0155698D01*
X0142509Y0155721D01*
X0142492Y0155747D01*
X0142479Y0155775D01*
X0142469Y0155804D01*
X0142463Y0155834D01*
X0142461Y0155865D01*
X0134441Y0162565D02*
X0134441Y0162625D01*
X0133581Y0163485D01*
X0133581Y0168545D01*
X0134741Y0169705D01*
X0145368Y0183185D02*
X0145370Y0183239D01*
X0145376Y0183292D01*
X0145386Y0183344D01*
X0145399Y0183396D01*
X0145416Y0183447D01*
X0145437Y0183496D01*
X0145462Y0183544D01*
X0145490Y0183589D01*
X0145521Y0183633D01*
X0145555Y0183674D01*
X0145592Y0183713D01*
X0145632Y0183748D01*
X0145674Y0183781D01*
X0145719Y0183811D01*
X0145766Y0183837D01*
X0145814Y0183860D01*
X0145864Y0183879D01*
X0145916Y0183894D01*
X0145968Y0183906D01*
X0146021Y0183914D01*
X0146074Y0183918D01*
X0146128Y0183918D01*
X0146181Y0183914D01*
X0146234Y0183906D01*
X0146286Y0183894D01*
X0146338Y0183879D01*
X0146388Y0183860D01*
X0146436Y0183837D01*
X0146483Y0183811D01*
X0146528Y0183781D01*
X0146570Y0183748D01*
X0146610Y0183713D01*
X0146647Y0183674D01*
X0146681Y0183633D01*
X0146712Y0183589D01*
X0146740Y0183544D01*
X0146765Y0183496D01*
X0146786Y0183447D01*
X0146803Y0183396D01*
X0146816Y0183344D01*
X0146826Y0183292D01*
X0146832Y0183239D01*
X0146834Y0183185D01*
X0146832Y0183131D01*
X0146826Y0183078D01*
X0146816Y0183026D01*
X0146803Y0182974D01*
X0146786Y0182923D01*
X0146765Y0182874D01*
X0146740Y0182826D01*
X0146712Y0182781D01*
X0146681Y0182737D01*
X0146647Y0182696D01*
X0146610Y0182657D01*
X0146570Y0182622D01*
X0146528Y0182589D01*
X0146483Y0182559D01*
X0146436Y0182533D01*
X0146388Y0182510D01*
X0146338Y0182491D01*
X0146286Y0182476D01*
X0146234Y0182464D01*
X0146181Y0182456D01*
X0146128Y0182452D01*
X0146074Y0182452D01*
X0146021Y0182456D01*
X0145968Y0182464D01*
X0145916Y0182476D01*
X0145864Y0182491D01*
X0145814Y0182510D01*
X0145766Y0182533D01*
X0145719Y0182559D01*
X0145674Y0182589D01*
X0145632Y0182622D01*
X0145592Y0182657D01*
X0145555Y0182696D01*
X0145521Y0182737D01*
X0145490Y0182781D01*
X0145462Y0182826D01*
X0145437Y0182874D01*
X0145416Y0182923D01*
X0145399Y0182974D01*
X0145386Y0183026D01*
X0145376Y0183078D01*
X0145370Y0183131D01*
X0145368Y0183185D01*
X0145801Y0193025D02*
X0145803Y0193074D01*
X0145809Y0193122D01*
X0145819Y0193170D01*
X0145833Y0193217D01*
X0145850Y0193263D01*
X0145871Y0193307D01*
X0145896Y0193349D01*
X0145924Y0193389D01*
X0145956Y0193427D01*
X0145990Y0193462D01*
X0146027Y0193494D01*
X0146066Y0193523D01*
X0146108Y0193549D01*
X0146152Y0193571D01*
X0146197Y0193589D01*
X0146244Y0193604D01*
X0146291Y0193615D01*
X0146340Y0193622D01*
X0146389Y0193625D01*
X0146438Y0193624D01*
X0146486Y0193619D01*
X0146535Y0193610D01*
X0146582Y0193597D01*
X0146628Y0193580D01*
X0146672Y0193560D01*
X0146715Y0193536D01*
X0146756Y0193509D01*
X0146794Y0193478D01*
X0146830Y0193445D01*
X0146862Y0193409D01*
X0146892Y0193370D01*
X0146919Y0193329D01*
X0146942Y0193285D01*
X0146961Y0193240D01*
X0146977Y0193194D01*
X0146989Y0193147D01*
X0146997Y0193098D01*
X0147001Y0193049D01*
X0147001Y0193001D01*
X0146997Y0192952D01*
X0146989Y0192903D01*
X0146977Y0192856D01*
X0146961Y0192810D01*
X0146942Y0192765D01*
X0146919Y0192721D01*
X0146892Y0192680D01*
X0146862Y0192641D01*
X0146830Y0192605D01*
X0146794Y0192572D01*
X0146756Y0192541D01*
X0146715Y0192514D01*
X0146672Y0192490D01*
X0146628Y0192470D01*
X0146582Y0192453D01*
X0146535Y0192440D01*
X0146486Y0192431D01*
X0146438Y0192426D01*
X0146389Y0192425D01*
X0146340Y0192428D01*
X0146291Y0192435D01*
X0146244Y0192446D01*
X0146197Y0192461D01*
X0146152Y0192479D01*
X0146108Y0192501D01*
X0146066Y0192527D01*
X0146027Y0192556D01*
X0145990Y0192588D01*
X0145956Y0192623D01*
X0145924Y0192661D01*
X0145896Y0192701D01*
X0145871Y0192743D01*
X0145850Y0192787D01*
X0145833Y0192833D01*
X0145819Y0192880D01*
X0145809Y0192928D01*
X0145803Y0192976D01*
X0145801Y0193025D01*
X0097686Y0119785D02*
X0097688Y0119870D01*
X0097694Y0119955D01*
X0097704Y0120039D01*
X0097718Y0120123D01*
X0097736Y0120207D01*
X0097757Y0120289D01*
X0097783Y0120370D01*
X0097812Y0120450D01*
X0097845Y0120528D01*
X0097882Y0120605D01*
X0097922Y0120680D01*
X0097966Y0120753D01*
X0098013Y0120824D01*
X0098063Y0120893D01*
X0098117Y0120959D01*
X0098173Y0121022D01*
X0098233Y0121083D01*
X0098295Y0121141D01*
X0098360Y0121196D01*
X0098427Y0121248D01*
X0098497Y0121297D01*
X0098569Y0121342D01*
X0098643Y0121384D01*
X0098719Y0121423D01*
X0098797Y0121458D01*
X0098876Y0121489D01*
X0098956Y0121516D01*
X0099038Y0121540D01*
X0099121Y0121560D01*
X0099204Y0121576D01*
X0099289Y0121588D01*
X0099373Y0121596D01*
X0099458Y0121600D01*
X0099544Y0121600D01*
X0099629Y0121596D01*
X0099713Y0121588D01*
X0099798Y0121576D01*
X0099881Y0121560D01*
X0099964Y0121540D01*
X0100046Y0121516D01*
X0100126Y0121489D01*
X0100205Y0121458D01*
X0100283Y0121423D01*
X0100359Y0121384D01*
X0100433Y0121342D01*
X0100505Y0121297D01*
X0100575Y0121248D01*
X0100642Y0121196D01*
X0100707Y0121141D01*
X0100769Y0121083D01*
X0100829Y0121022D01*
X0100885Y0120959D01*
X0100939Y0120893D01*
X0100989Y0120824D01*
X0101036Y0120753D01*
X0101080Y0120680D01*
X0101120Y0120605D01*
X0101157Y0120528D01*
X0101190Y0120450D01*
X0101219Y0120370D01*
X0101245Y0120289D01*
X0101266Y0120207D01*
X0101284Y0120123D01*
X0101298Y0120039D01*
X0101308Y0119955D01*
X0101314Y0119870D01*
X0101316Y0119785D01*
X0101314Y0119700D01*
X0101308Y0119615D01*
X0101298Y0119531D01*
X0101284Y0119447D01*
X0101266Y0119363D01*
X0101245Y0119281D01*
X0101219Y0119200D01*
X0101190Y0119120D01*
X0101157Y0119042D01*
X0101120Y0118965D01*
X0101080Y0118890D01*
X0101036Y0118817D01*
X0100989Y0118746D01*
X0100939Y0118677D01*
X0100885Y0118611D01*
X0100829Y0118548D01*
X0100769Y0118487D01*
X0100707Y0118429D01*
X0100642Y0118374D01*
X0100575Y0118322D01*
X0100505Y0118273D01*
X0100433Y0118228D01*
X0100359Y0118186D01*
X0100283Y0118147D01*
X0100205Y0118112D01*
X0100126Y0118081D01*
X0100046Y0118054D01*
X0099964Y0118030D01*
X0099881Y0118010D01*
X0099798Y0117994D01*
X0099713Y0117982D01*
X0099629Y0117974D01*
X0099544Y0117970D01*
X0099458Y0117970D01*
X0099373Y0117974D01*
X0099289Y0117982D01*
X0099204Y0117994D01*
X0099121Y0118010D01*
X0099038Y0118030D01*
X0098956Y0118054D01*
X0098876Y0118081D01*
X0098797Y0118112D01*
X0098719Y0118147D01*
X0098643Y0118186D01*
X0098569Y0118228D01*
X0098497Y0118273D01*
X0098427Y0118322D01*
X0098360Y0118374D01*
X0098295Y0118429D01*
X0098233Y0118487D01*
X0098173Y0118548D01*
X0098117Y0118611D01*
X0098063Y0118677D01*
X0098013Y0118746D01*
X0097966Y0118817D01*
X0097922Y0118890D01*
X0097882Y0118965D01*
X0097845Y0119042D01*
X0097812Y0119120D01*
X0097783Y0119200D01*
X0097757Y0119281D01*
X0097736Y0119363D01*
X0097718Y0119447D01*
X0097704Y0119531D01*
X0097694Y0119615D01*
X0097688Y0119700D01*
X0097686Y0119785D01*
X0143241Y0097885D02*
X0143243Y0097911D01*
X0143249Y0097937D01*
X0143258Y0097961D01*
X0143271Y0097984D01*
X0143287Y0098005D01*
X0143306Y0098023D01*
X0143327Y0098039D01*
X0143351Y0098051D01*
X0143375Y0098059D01*
X0143401Y0098064D01*
X0143428Y0098065D01*
X0143454Y0098062D01*
X0143479Y0098055D01*
X0143503Y0098045D01*
X0143526Y0098031D01*
X0143546Y0098015D01*
X0143563Y0097995D01*
X0143578Y0097973D01*
X0143589Y0097949D01*
X0143597Y0097924D01*
X0143601Y0097898D01*
X0143601Y0097872D01*
X0143597Y0097846D01*
X0143589Y0097821D01*
X0143578Y0097797D01*
X0143563Y0097775D01*
X0143546Y0097755D01*
X0143526Y0097739D01*
X0143503Y0097725D01*
X0143479Y0097715D01*
X0143454Y0097708D01*
X0143428Y0097705D01*
X0143401Y0097706D01*
X0143375Y0097711D01*
X0143351Y0097719D01*
X0143327Y0097731D01*
X0143306Y0097747D01*
X0143287Y0097765D01*
X0143271Y0097786D01*
X0143258Y0097809D01*
X0143249Y0097833D01*
X0143243Y0097859D01*
X0143241Y0097885D01*
X0155041Y0097885D02*
X0155043Y0097911D01*
X0155049Y0097937D01*
X0155058Y0097961D01*
X0155071Y0097984D01*
X0155087Y0098005D01*
X0155106Y0098023D01*
X0155127Y0098039D01*
X0155151Y0098051D01*
X0155175Y0098059D01*
X0155201Y0098064D01*
X0155228Y0098065D01*
X0155254Y0098062D01*
X0155279Y0098055D01*
X0155303Y0098045D01*
X0155326Y0098031D01*
X0155346Y0098015D01*
X0155363Y0097995D01*
X0155378Y0097973D01*
X0155389Y0097949D01*
X0155397Y0097924D01*
X0155401Y0097898D01*
X0155401Y0097872D01*
X0155397Y0097846D01*
X0155389Y0097821D01*
X0155378Y0097797D01*
X0155363Y0097775D01*
X0155346Y0097755D01*
X0155326Y0097739D01*
X0155303Y0097725D01*
X0155279Y0097715D01*
X0155254Y0097708D01*
X0155228Y0097705D01*
X0155201Y0097706D01*
X0155175Y0097711D01*
X0155151Y0097719D01*
X0155127Y0097731D01*
X0155106Y0097747D01*
X0155087Y0097765D01*
X0155071Y0097786D01*
X0155058Y0097809D01*
X0155049Y0097833D01*
X0155043Y0097859D01*
X0155041Y0097885D01*
X0164781Y0097805D02*
X0164783Y0097831D01*
X0164789Y0097857D01*
X0164798Y0097881D01*
X0164811Y0097904D01*
X0164827Y0097925D01*
X0164846Y0097943D01*
X0164867Y0097959D01*
X0164891Y0097971D01*
X0164915Y0097979D01*
X0164941Y0097984D01*
X0164968Y0097985D01*
X0164994Y0097982D01*
X0165019Y0097975D01*
X0165043Y0097965D01*
X0165066Y0097951D01*
X0165086Y0097935D01*
X0165103Y0097915D01*
X0165118Y0097893D01*
X0165129Y0097869D01*
X0165137Y0097844D01*
X0165141Y0097818D01*
X0165141Y0097792D01*
X0165137Y0097766D01*
X0165129Y0097741D01*
X0165118Y0097717D01*
X0165103Y0097695D01*
X0165086Y0097675D01*
X0165066Y0097659D01*
X0165043Y0097645D01*
X0165019Y0097635D01*
X0164994Y0097628D01*
X0164968Y0097625D01*
X0164941Y0097626D01*
X0164915Y0097631D01*
X0164891Y0097639D01*
X0164867Y0097651D01*
X0164846Y0097667D01*
X0164827Y0097685D01*
X0164811Y0097706D01*
X0164798Y0097729D01*
X0164789Y0097753D01*
X0164783Y0097779D01*
X0164781Y0097805D01*
X0167621Y0099585D02*
X0167621Y0104465D01*
X0173279Y0097805D02*
X0173281Y0097844D01*
X0173287Y0097882D01*
X0173297Y0097919D01*
X0173310Y0097956D01*
X0173327Y0097990D01*
X0173347Y0098023D01*
X0173371Y0098054D01*
X0173398Y0098082D01*
X0173427Y0098107D01*
X0173459Y0098129D01*
X0173493Y0098148D01*
X0173528Y0098163D01*
X0173565Y0098175D01*
X0173603Y0098183D01*
X0173642Y0098187D01*
X0173680Y0098187D01*
X0173719Y0098183D01*
X0173757Y0098175D01*
X0173794Y0098163D01*
X0173829Y0098148D01*
X0173863Y0098129D01*
X0173895Y0098107D01*
X0173924Y0098082D01*
X0173951Y0098054D01*
X0173975Y0098023D01*
X0173995Y0097990D01*
X0174012Y0097956D01*
X0174025Y0097919D01*
X0174035Y0097882D01*
X0174041Y0097844D01*
X0174043Y0097805D01*
X0174041Y0097766D01*
X0174035Y0097728D01*
X0174025Y0097691D01*
X0174012Y0097654D01*
X0173995Y0097620D01*
X0173975Y0097587D01*
X0173951Y0097556D01*
X0173924Y0097528D01*
X0173895Y0097503D01*
X0173863Y0097481D01*
X0173829Y0097462D01*
X0173794Y0097447D01*
X0173757Y0097435D01*
X0173719Y0097427D01*
X0173680Y0097423D01*
X0173642Y0097423D01*
X0173603Y0097427D01*
X0173565Y0097435D01*
X0173528Y0097447D01*
X0173493Y0097462D01*
X0173459Y0097481D01*
X0173427Y0097503D01*
X0173398Y0097528D01*
X0173371Y0097556D01*
X0173347Y0097587D01*
X0173327Y0097620D01*
X0173310Y0097654D01*
X0173297Y0097691D01*
X0173287Y0097728D01*
X0173281Y0097766D01*
X0173279Y0097805D01*
X0172601Y0092185D02*
X0174961Y0092185D01*
X0174961Y0092245D01*
X0189253Y0108405D02*
X0189255Y0108448D01*
X0189261Y0108491D01*
X0189271Y0108533D01*
X0189285Y0108574D01*
X0189302Y0108614D01*
X0189323Y0108651D01*
X0189348Y0108687D01*
X0189375Y0108720D01*
X0189406Y0108751D01*
X0189439Y0108778D01*
X0189475Y0108803D01*
X0189512Y0108824D01*
X0189552Y0108841D01*
X0189593Y0108855D01*
X0189635Y0108865D01*
X0189678Y0108871D01*
X0189721Y0108873D01*
X0189764Y0108871D01*
X0189807Y0108865D01*
X0189849Y0108855D01*
X0189890Y0108841D01*
X0189930Y0108824D01*
X0189967Y0108803D01*
X0190003Y0108778D01*
X0190036Y0108751D01*
X0190067Y0108720D01*
X0190094Y0108687D01*
X0190119Y0108651D01*
X0190140Y0108614D01*
X0190157Y0108574D01*
X0190171Y0108533D01*
X0190181Y0108491D01*
X0190187Y0108448D01*
X0190189Y0108405D01*
X0190187Y0108362D01*
X0190181Y0108319D01*
X0190171Y0108277D01*
X0190157Y0108236D01*
X0190140Y0108196D01*
X0190119Y0108159D01*
X0190094Y0108123D01*
X0190067Y0108090D01*
X0190036Y0108059D01*
X0190003Y0108032D01*
X0189967Y0108007D01*
X0189930Y0107986D01*
X0189890Y0107969D01*
X0189849Y0107955D01*
X0189807Y0107945D01*
X0189764Y0107939D01*
X0189721Y0107937D01*
X0189678Y0107939D01*
X0189635Y0107945D01*
X0189593Y0107955D01*
X0189552Y0107969D01*
X0189512Y0107986D01*
X0189475Y0108007D01*
X0189439Y0108032D01*
X0189406Y0108059D01*
X0189375Y0108090D01*
X0189348Y0108123D01*
X0189323Y0108159D01*
X0189302Y0108196D01*
X0189285Y0108236D01*
X0189271Y0108277D01*
X0189261Y0108319D01*
X0189255Y0108362D01*
X0189253Y0108405D01*
X0088261Y0040985D02*
X0088261Y0011165D01*
X0080801Y0011165D01*
X0075601Y0011045D02*
X0071061Y0011045D01*
X0065441Y0011105D02*
X0065441Y0011165D01*
X0065441Y0011105D02*
X0061181Y0011105D01*
X0054981Y0011065D02*
X0054981Y0010965D01*
X0048261Y0010965D01*
X0048410Y0010953D02*
X0048410Y0038866D01*
X0053410Y0041228D02*
X0055261Y0041228D01*
X0055261Y0041307D01*
X0061081Y0041165D02*
X0065281Y0041165D01*
X0065281Y0041205D01*
X0071101Y0041205D02*
X0075361Y0041205D01*
X0081541Y0040985D02*
X0088261Y0040985D01*
X0078281Y0029425D02*
X0058221Y0029425D01*
X0058221Y0022645D01*
X0078281Y0022645D01*
X0078281Y0029425D01*
X0067041Y0028065D02*
X0067041Y0024185D01*
X0061041Y0024185D01*
X0061041Y0027965D01*
X0061621Y0027965D02*
X0061621Y0028065D01*
X0067041Y0028065D01*
X0064621Y0027585D02*
X0064521Y0027585D01*
X0064521Y0024385D01*
X0063461Y0024665D02*
X0063461Y0027285D01*
X0041725Y0028744D02*
X0040245Y0027264D01*
X0041545Y0025964D01*
X0041545Y0025884D01*
X0034945Y0027184D02*
X0034845Y0027184D01*
X0033545Y0025884D01*
X0034945Y0027184D02*
X0033465Y0028584D01*
X0033465Y0035884D02*
X0034765Y0037184D01*
X0040425Y0037184D01*
X0041645Y0035964D01*
X0041725Y0035964D01*
X0033545Y0018764D02*
X0033545Y0018584D01*
X0034945Y0017184D01*
X0034845Y0017184D01*
X0033545Y0015884D01*
X0040245Y0017284D02*
X0041465Y0016064D01*
X0041465Y0015884D01*
X0040245Y0017284D02*
X0040245Y0017364D01*
X0041465Y0018584D01*
X0041025Y0008424D02*
X0039805Y0007204D01*
X0034945Y0007204D01*
X0033385Y0008764D01*
X0065891Y0050834D02*
X0065891Y0073669D01*
X0075340Y0073669D01*
X0075340Y0050834D01*
X0065891Y0050834D01*
D12*
X0065124Y0109299D02*
X0065126Y0109357D01*
X0065132Y0109414D01*
X0065142Y0109471D01*
X0065155Y0109527D01*
X0065173Y0109582D01*
X0065194Y0109636D01*
X0065219Y0109688D01*
X0065247Y0109738D01*
X0065279Y0109786D01*
X0065314Y0109832D01*
X0065351Y0109876D01*
X0065392Y0109917D01*
X0065436Y0109954D01*
X0065482Y0109989D01*
X0065530Y0110021D01*
X0065580Y0110049D01*
X0065632Y0110074D01*
X0065686Y0110095D01*
X0065741Y0110113D01*
X0065797Y0110126D01*
X0065854Y0110136D01*
X0065911Y0110142D01*
X0065969Y0110144D01*
X0066027Y0110142D01*
X0066084Y0110136D01*
X0066141Y0110126D01*
X0066197Y0110113D01*
X0066252Y0110095D01*
X0066306Y0110074D01*
X0066358Y0110049D01*
X0066408Y0110021D01*
X0066456Y0109989D01*
X0066502Y0109954D01*
X0066546Y0109917D01*
X0066587Y0109876D01*
X0066624Y0109832D01*
X0066659Y0109786D01*
X0066691Y0109738D01*
X0066719Y0109688D01*
X0066744Y0109636D01*
X0066765Y0109582D01*
X0066783Y0109527D01*
X0066796Y0109471D01*
X0066806Y0109414D01*
X0066812Y0109357D01*
X0066814Y0109299D01*
X0066812Y0109241D01*
X0066806Y0109184D01*
X0066796Y0109127D01*
X0066783Y0109071D01*
X0066765Y0109016D01*
X0066744Y0108962D01*
X0066719Y0108910D01*
X0066691Y0108860D01*
X0066659Y0108812D01*
X0066624Y0108766D01*
X0066587Y0108722D01*
X0066546Y0108681D01*
X0066502Y0108644D01*
X0066456Y0108609D01*
X0066408Y0108577D01*
X0066358Y0108549D01*
X0066306Y0108524D01*
X0066252Y0108503D01*
X0066197Y0108485D01*
X0066141Y0108472D01*
X0066084Y0108462D01*
X0066027Y0108456D01*
X0065969Y0108454D01*
X0065911Y0108456D01*
X0065854Y0108462D01*
X0065797Y0108472D01*
X0065741Y0108485D01*
X0065686Y0108503D01*
X0065632Y0108524D01*
X0065580Y0108549D01*
X0065530Y0108577D01*
X0065482Y0108609D01*
X0065436Y0108644D01*
X0065392Y0108681D01*
X0065351Y0108722D01*
X0065314Y0108766D01*
X0065279Y0108812D01*
X0065247Y0108860D01*
X0065219Y0108910D01*
X0065194Y0108962D01*
X0065173Y0109016D01*
X0065155Y0109071D01*
X0065142Y0109127D01*
X0065132Y0109184D01*
X0065126Y0109241D01*
X0065124Y0109299D01*
X0065982Y0126583D02*
X0065984Y0126637D01*
X0065990Y0126690D01*
X0066000Y0126743D01*
X0066013Y0126795D01*
X0066030Y0126846D01*
X0066051Y0126895D01*
X0066076Y0126943D01*
X0066104Y0126989D01*
X0066135Y0127032D01*
X0066170Y0127073D01*
X0066207Y0127112D01*
X0066247Y0127148D01*
X0066289Y0127181D01*
X0066334Y0127210D01*
X0066381Y0127237D01*
X0066430Y0127259D01*
X0066480Y0127279D01*
X0066531Y0127294D01*
X0066583Y0127306D01*
X0066637Y0127314D01*
X0066690Y0127318D01*
X0066744Y0127318D01*
X0066797Y0127314D01*
X0066851Y0127306D01*
X0066903Y0127294D01*
X0066954Y0127279D01*
X0067004Y0127259D01*
X0067053Y0127237D01*
X0067100Y0127210D01*
X0067145Y0127181D01*
X0067187Y0127148D01*
X0067227Y0127112D01*
X0067264Y0127073D01*
X0067299Y0127032D01*
X0067330Y0126989D01*
X0067358Y0126943D01*
X0067383Y0126895D01*
X0067404Y0126846D01*
X0067421Y0126795D01*
X0067434Y0126743D01*
X0067444Y0126690D01*
X0067450Y0126637D01*
X0067452Y0126583D01*
X0067450Y0126529D01*
X0067444Y0126476D01*
X0067434Y0126423D01*
X0067421Y0126371D01*
X0067404Y0126320D01*
X0067383Y0126271D01*
X0067358Y0126223D01*
X0067330Y0126177D01*
X0067299Y0126134D01*
X0067264Y0126093D01*
X0067227Y0126054D01*
X0067187Y0126018D01*
X0067145Y0125985D01*
X0067100Y0125956D01*
X0067053Y0125929D01*
X0067004Y0125907D01*
X0066954Y0125887D01*
X0066903Y0125872D01*
X0066851Y0125860D01*
X0066797Y0125852D01*
X0066744Y0125848D01*
X0066690Y0125848D01*
X0066637Y0125852D01*
X0066583Y0125860D01*
X0066531Y0125872D01*
X0066480Y0125887D01*
X0066430Y0125907D01*
X0066381Y0125929D01*
X0066334Y0125956D01*
X0066289Y0125985D01*
X0066247Y0126018D01*
X0066207Y0126054D01*
X0066170Y0126093D01*
X0066135Y0126134D01*
X0066104Y0126177D01*
X0066076Y0126223D01*
X0066051Y0126271D01*
X0066030Y0126320D01*
X0066013Y0126371D01*
X0066000Y0126423D01*
X0065990Y0126476D01*
X0065984Y0126529D01*
X0065982Y0126583D01*
X0034204Y0124575D02*
X0034206Y0124636D01*
X0034212Y0124696D01*
X0034222Y0124756D01*
X0034235Y0124816D01*
X0034253Y0124874D01*
X0034274Y0124931D01*
X0034299Y0124986D01*
X0034327Y0125040D01*
X0034359Y0125092D01*
X0034394Y0125142D01*
X0034432Y0125189D01*
X0034474Y0125234D01*
X0034518Y0125276D01*
X0034564Y0125315D01*
X0034613Y0125350D01*
X0034665Y0125383D01*
X0034718Y0125412D01*
X0034773Y0125438D01*
X0034830Y0125460D01*
X0034888Y0125479D01*
X0034947Y0125493D01*
X0035007Y0125504D01*
X0035067Y0125511D01*
X0035128Y0125514D01*
X0035189Y0125513D01*
X0035249Y0125508D01*
X0035309Y0125499D01*
X0035369Y0125486D01*
X0035427Y0125470D01*
X0035485Y0125450D01*
X0035541Y0125426D01*
X0035595Y0125398D01*
X0035647Y0125367D01*
X0035697Y0125333D01*
X0035745Y0125295D01*
X0035791Y0125255D01*
X0035833Y0125212D01*
X0035873Y0125166D01*
X0035910Y0125117D01*
X0035943Y0125066D01*
X0035973Y0125013D01*
X0036000Y0124959D01*
X0036023Y0124902D01*
X0036042Y0124845D01*
X0036058Y0124786D01*
X0036070Y0124726D01*
X0036078Y0124666D01*
X0036082Y0124605D01*
X0036082Y0124545D01*
X0036078Y0124484D01*
X0036070Y0124424D01*
X0036058Y0124364D01*
X0036042Y0124305D01*
X0036023Y0124248D01*
X0036000Y0124191D01*
X0035973Y0124137D01*
X0035943Y0124084D01*
X0035910Y0124033D01*
X0035873Y0123984D01*
X0035833Y0123938D01*
X0035791Y0123895D01*
X0035745Y0123855D01*
X0035697Y0123817D01*
X0035647Y0123783D01*
X0035595Y0123752D01*
X0035541Y0123724D01*
X0035485Y0123700D01*
X0035427Y0123680D01*
X0035369Y0123664D01*
X0035309Y0123651D01*
X0035249Y0123642D01*
X0035189Y0123637D01*
X0035128Y0123636D01*
X0035067Y0123639D01*
X0035007Y0123646D01*
X0034947Y0123657D01*
X0034888Y0123671D01*
X0034830Y0123690D01*
X0034773Y0123712D01*
X0034718Y0123738D01*
X0034665Y0123767D01*
X0034613Y0123800D01*
X0034564Y0123835D01*
X0034518Y0123874D01*
X0034474Y0123916D01*
X0034432Y0123961D01*
X0034394Y0124008D01*
X0034359Y0124058D01*
X0034327Y0124110D01*
X0034299Y0124164D01*
X0034274Y0124219D01*
X0034253Y0124276D01*
X0034235Y0124334D01*
X0034222Y0124394D01*
X0034212Y0124454D01*
X0034206Y0124514D01*
X0034204Y0124575D01*
X0156803Y0044600D02*
X0156805Y0044657D01*
X0156811Y0044714D01*
X0156821Y0044770D01*
X0156834Y0044826D01*
X0156852Y0044880D01*
X0156873Y0044933D01*
X0156898Y0044985D01*
X0156926Y0045034D01*
X0156958Y0045082D01*
X0156993Y0045127D01*
X0157031Y0045170D01*
X0157071Y0045210D01*
X0157115Y0045247D01*
X0157161Y0045281D01*
X0157209Y0045312D01*
X0157259Y0045340D01*
X0157311Y0045364D01*
X0157364Y0045384D01*
X0157419Y0045400D01*
X0157475Y0045413D01*
X0157531Y0045422D01*
X0157588Y0045427D01*
X0157645Y0045428D01*
X0157702Y0045425D01*
X0157759Y0045418D01*
X0157815Y0045407D01*
X0157871Y0045393D01*
X0157925Y0045374D01*
X0157977Y0045352D01*
X0158028Y0045326D01*
X0158078Y0045297D01*
X0158125Y0045265D01*
X0158169Y0045229D01*
X0158211Y0045191D01*
X0158251Y0045149D01*
X0158287Y0045105D01*
X0158320Y0045059D01*
X0158350Y0045010D01*
X0158377Y0044959D01*
X0158400Y0044907D01*
X0158419Y0044853D01*
X0158435Y0044798D01*
X0158447Y0044742D01*
X0158455Y0044686D01*
X0158459Y0044629D01*
X0158459Y0044571D01*
X0158455Y0044514D01*
X0158447Y0044458D01*
X0158435Y0044402D01*
X0158419Y0044347D01*
X0158400Y0044293D01*
X0158377Y0044241D01*
X0158350Y0044190D01*
X0158320Y0044141D01*
X0158287Y0044095D01*
X0158251Y0044051D01*
X0158211Y0044009D01*
X0158169Y0043971D01*
X0158125Y0043935D01*
X0158078Y0043903D01*
X0158028Y0043874D01*
X0157977Y0043848D01*
X0157925Y0043826D01*
X0157871Y0043807D01*
X0157815Y0043793D01*
X0157759Y0043782D01*
X0157702Y0043775D01*
X0157645Y0043772D01*
X0157588Y0043773D01*
X0157531Y0043778D01*
X0157475Y0043787D01*
X0157419Y0043800D01*
X0157364Y0043816D01*
X0157311Y0043836D01*
X0157259Y0043860D01*
X0157209Y0043888D01*
X0157161Y0043919D01*
X0157115Y0043953D01*
X0157071Y0043990D01*
X0157031Y0044030D01*
X0156993Y0044073D01*
X0156958Y0044118D01*
X0156926Y0044166D01*
X0156898Y0044215D01*
X0156873Y0044267D01*
X0156852Y0044320D01*
X0156834Y0044374D01*
X0156821Y0044430D01*
X0156811Y0044486D01*
X0156805Y0044543D01*
X0156803Y0044600D01*
X0157147Y0057307D02*
X0157149Y0057367D01*
X0157155Y0057426D01*
X0157165Y0057486D01*
X0157179Y0057544D01*
X0157196Y0057601D01*
X0157217Y0057657D01*
X0157242Y0057712D01*
X0157271Y0057764D01*
X0157303Y0057815D01*
X0157338Y0057863D01*
X0157376Y0057910D01*
X0157418Y0057953D01*
X0157462Y0057993D01*
X0157508Y0058031D01*
X0157557Y0058065D01*
X0157609Y0058097D01*
X0157662Y0058124D01*
X0157717Y0058148D01*
X0157773Y0058169D01*
X0157831Y0058185D01*
X0157889Y0058198D01*
X0157948Y0058207D01*
X0158008Y0058212D01*
X0158068Y0058213D01*
X0158128Y0058210D01*
X0158187Y0058203D01*
X0158246Y0058192D01*
X0158304Y0058177D01*
X0158361Y0058159D01*
X0158417Y0058137D01*
X0158471Y0058111D01*
X0158523Y0058081D01*
X0158573Y0058049D01*
X0158621Y0058013D01*
X0158667Y0057974D01*
X0158709Y0057932D01*
X0158749Y0057887D01*
X0158786Y0057840D01*
X0158820Y0057790D01*
X0158850Y0057738D01*
X0158877Y0057685D01*
X0158900Y0057629D01*
X0158919Y0057573D01*
X0158935Y0057515D01*
X0158947Y0057456D01*
X0158955Y0057397D01*
X0158959Y0057337D01*
X0158959Y0057277D01*
X0158955Y0057217D01*
X0158947Y0057158D01*
X0158935Y0057099D01*
X0158919Y0057041D01*
X0158900Y0056985D01*
X0158877Y0056929D01*
X0158850Y0056876D01*
X0158820Y0056824D01*
X0158786Y0056774D01*
X0158749Y0056727D01*
X0158709Y0056682D01*
X0158667Y0056640D01*
X0158621Y0056601D01*
X0158573Y0056565D01*
X0158523Y0056533D01*
X0158471Y0056503D01*
X0158417Y0056477D01*
X0158361Y0056455D01*
X0158304Y0056437D01*
X0158246Y0056422D01*
X0158187Y0056411D01*
X0158128Y0056404D01*
X0158068Y0056401D01*
X0158008Y0056402D01*
X0157948Y0056407D01*
X0157889Y0056416D01*
X0157831Y0056429D01*
X0157773Y0056445D01*
X0157717Y0056466D01*
X0157662Y0056490D01*
X0157609Y0056517D01*
X0157557Y0056549D01*
X0157508Y0056583D01*
X0157462Y0056621D01*
X0157418Y0056661D01*
X0157376Y0056704D01*
X0157338Y0056751D01*
X0157303Y0056799D01*
X0157271Y0056850D01*
X0157242Y0056902D01*
X0157217Y0056957D01*
X0157196Y0057013D01*
X0157179Y0057070D01*
X0157165Y0057128D01*
X0157155Y0057188D01*
X0157149Y0057247D01*
X0157147Y0057307D01*
M02*
