G75*
%MOIN*%
%OFA0B0*%
%FSLAX25Y25*%
%IPPOS*%
%LPD*%
%AMOC8*
5,1,8,0,0,1.08239X$1,22.5*
%
%ADD10C,0.13398*%
%ADD11R,0.07887X0.07099*%
%ADD12R,0.04737X0.05131*%
%ADD13R,0.05131X0.04737*%
%ADD14R,0.07099X0.07887*%
%ADD15R,0.06706X0.06706*%
%ADD16R,0.09600X0.05600*%
%ADD17R,0.09461X0.14973*%
%ADD18R,0.06737X0.06737*%
%ADD19C,0.06737*%
%ADD20C,0.06800*%
%ADD21R,0.07099X0.05918*%
%ADD22R,0.07099X0.07898*%
%ADD23R,0.10406X0.05249*%
%ADD24C,0.06000*%
%ADD25C,0.06800*%
%ADD26OC8,0.06800*%
%ADD27R,0.07099X0.01981*%
%ADD28R,0.10485X0.14186*%
%ADD29R,0.01981X0.05524*%
%ADD30R,0.05524X0.01981*%
%ADD31R,0.28359X0.27178*%
%ADD32R,0.12600X0.07100*%
%ADD33R,0.04762X0.04762*%
D10*
X0014080Y0014693D03*
X0174001Y0011622D03*
X0193725Y0195834D03*
X0013332Y0196228D03*
D11*
X0043287Y0094136D03*
X0043287Y0083112D03*
X0057747Y0083032D03*
X0057747Y0094056D03*
X0069487Y0093836D03*
X0069487Y0082812D03*
X0081247Y0082272D03*
X0081247Y0093296D03*
X0094007Y0093376D03*
X0094007Y0082352D03*
X0106407Y0082892D03*
X0106407Y0093916D03*
X0120087Y0093416D03*
X0120087Y0082392D03*
D12*
X0143387Y0094558D03*
X0143387Y0101251D03*
X0155267Y0101291D03*
X0155267Y0094598D03*
X0165087Y0094518D03*
X0165087Y0101211D03*
X0173667Y0101231D03*
X0173667Y0094538D03*
X0182467Y0094598D03*
X0182467Y0101291D03*
D13*
X0141681Y0156186D03*
X0134988Y0156186D03*
X0095834Y0163644D03*
X0089141Y0163644D03*
D14*
X0085259Y0175124D03*
X0074235Y0175124D03*
X0072106Y0126646D03*
X0061083Y0126646D03*
X0060383Y0109426D03*
X0071406Y0109426D03*
D15*
X0151222Y0057031D03*
X0165001Y0057031D03*
X0165057Y0182544D03*
X0164737Y0193144D03*
X0178517Y0193144D03*
X0178837Y0182544D03*
D16*
X0100667Y0071124D03*
X0100667Y0062024D03*
X0100667Y0052924D03*
X0058447Y0052904D03*
X0058447Y0062004D03*
X0058447Y0071104D03*
D17*
X0082848Y0062004D03*
X0125068Y0062024D03*
D18*
X0047412Y0175603D03*
D19*
X0057412Y0175603D03*
X0057412Y0165603D03*
X0057412Y0155603D03*
X0057412Y0145603D03*
X0047412Y0145603D03*
X0047412Y0155603D03*
X0047412Y0165603D03*
D20*
X0045883Y0188331D02*
X0045883Y0194331D01*
X0055883Y0194331D02*
X0055883Y0188331D01*
X0065883Y0188331D02*
X0065883Y0194331D01*
X0075883Y0194331D02*
X0075883Y0188331D01*
X0085883Y0188331D02*
X0085883Y0194331D01*
X0095767Y0195444D02*
X0101767Y0195444D01*
X0101767Y0177644D02*
X0095767Y0177644D01*
X0121367Y0177644D02*
X0127367Y0177644D01*
X0138527Y0169044D02*
X0138527Y0163044D01*
X0148527Y0163044D02*
X0148527Y0169044D01*
X0158527Y0169044D02*
X0158527Y0163044D01*
X0168527Y0163044D02*
X0168527Y0169044D01*
X0178527Y0169044D02*
X0178527Y0163044D01*
X0188527Y0163044D02*
X0188527Y0169044D01*
X0127367Y0195444D02*
X0121367Y0195444D01*
X0035883Y0194331D02*
X0035883Y0188331D01*
X0187527Y0061424D02*
X0193527Y0061424D01*
X0193527Y0051424D02*
X0187527Y0051424D01*
X0187527Y0041424D02*
X0193527Y0041424D01*
X0193527Y0031424D02*
X0187527Y0031424D01*
X0187527Y0021424D02*
X0193527Y0021424D01*
X0193527Y0011424D02*
X0187527Y0011424D01*
X0040551Y0012203D02*
X0034551Y0012203D01*
X0034551Y0022203D02*
X0040551Y0022203D01*
X0040551Y0032203D02*
X0034551Y0032203D01*
D21*
X0036327Y0155084D03*
X0036327Y0162564D03*
D22*
X0140609Y0183424D03*
X0140649Y0193124D03*
X0151846Y0193124D03*
X0151806Y0183424D03*
X0151974Y0044883D03*
X0163171Y0044883D03*
D23*
X0156938Y0117124D03*
X0156938Y0127124D03*
X0156938Y0137124D03*
X0156938Y0147124D03*
X0190796Y0147124D03*
X0190796Y0137124D03*
X0190796Y0127124D03*
X0190796Y0117124D03*
D24*
X0078327Y0038744D02*
X0078327Y0033544D01*
X0068327Y0033544D02*
X0068327Y0038744D01*
X0058327Y0038744D02*
X0058327Y0033544D01*
X0058327Y0018744D02*
X0058327Y0013544D01*
X0068327Y0013544D02*
X0068327Y0018744D01*
X0078327Y0018744D02*
X0078327Y0013544D01*
D25*
X0031627Y0080464D03*
X0014927Y0156584D03*
D26*
X0024927Y0156584D03*
X0024927Y0166584D03*
X0014927Y0166584D03*
X0014927Y0176584D03*
X0024927Y0176584D03*
X0021627Y0080464D03*
X0021627Y0070464D03*
X0021627Y0060464D03*
X0031627Y0060464D03*
X0031627Y0070464D03*
D27*
X0027143Y0109467D03*
X0027143Y0112026D03*
X0027143Y0114586D03*
X0027143Y0117145D03*
X0027143Y0119704D03*
X0027143Y0122263D03*
X0027143Y0124822D03*
X0027143Y0127381D03*
X0049191Y0127381D03*
X0049191Y0124822D03*
X0049191Y0122263D03*
X0049191Y0119704D03*
X0049191Y0117145D03*
X0049191Y0114586D03*
X0049191Y0112026D03*
X0049191Y0109467D03*
D28*
X0038167Y0118424D03*
D29*
X0099723Y0112106D03*
X0101692Y0112106D03*
X0103660Y0112106D03*
X0105629Y0112106D03*
X0107597Y0112106D03*
X0109566Y0112106D03*
X0111534Y0112106D03*
X0113503Y0112106D03*
X0115471Y0112106D03*
X0117440Y0112106D03*
X0119408Y0112106D03*
X0121377Y0112106D03*
X0123345Y0112106D03*
X0125314Y0112106D03*
X0127282Y0112106D03*
X0129251Y0112106D03*
X0129251Y0157382D03*
X0127282Y0157382D03*
X0125314Y0157382D03*
X0123345Y0157382D03*
X0121377Y0157382D03*
X0119408Y0157382D03*
X0117440Y0157382D03*
X0115471Y0157382D03*
X0113503Y0157382D03*
X0111534Y0157382D03*
X0109566Y0157382D03*
X0107597Y0157382D03*
X0105629Y0157382D03*
X0103660Y0157382D03*
X0101692Y0157382D03*
X0099723Y0157382D03*
D30*
X0091849Y0149508D03*
X0091849Y0147539D03*
X0091849Y0145571D03*
X0091849Y0143602D03*
X0091849Y0141634D03*
X0091849Y0139665D03*
X0091849Y0137697D03*
X0091849Y0135728D03*
X0091849Y0133760D03*
X0091849Y0131791D03*
X0091849Y0129823D03*
X0091849Y0127854D03*
X0091849Y0125886D03*
X0091849Y0123917D03*
X0091849Y0121949D03*
X0091849Y0119980D03*
X0137125Y0119980D03*
X0137125Y0121949D03*
X0137125Y0123917D03*
X0137125Y0125886D03*
X0137125Y0127854D03*
X0137125Y0129823D03*
X0137125Y0131791D03*
X0137125Y0133760D03*
X0137125Y0135728D03*
X0137125Y0137697D03*
X0137125Y0139665D03*
X0137125Y0141634D03*
X0137125Y0143602D03*
X0137125Y0145571D03*
X0137125Y0147539D03*
X0137125Y0149508D03*
D31*
X0126474Y0024420D03*
D32*
X0099780Y0015720D03*
X0099780Y0033320D03*
D33*
X0049747Y0043584D03*
X0049740Y0043580D03*
X0078541Y0109405D03*
X0063447Y0139284D03*
X0086000Y0153320D03*
X0079527Y0167004D03*
X0102620Y0147180D03*
X0100307Y0137464D03*
X0113621Y0135945D03*
X0117267Y0142804D03*
X0109380Y0124180D03*
X0124467Y0121284D03*
X0143281Y0116789D03*
X0116661Y0101745D03*
X0160747Y0088564D03*
X0181987Y0127784D03*
X0172700Y0131180D03*
X0170580Y0142500D03*
X0146101Y0150905D03*
X0118440Y0168860D03*
M02*
